<svg version="1.1" viewBox="0.0 0.0 712.0 916.0" fill="none" stroke="none" stroke-linecap="square" stroke-miterlimit="10" xmlns:xlink="http://www.w3.org/1999/xlink" xmlns="http://www.w3.org/2000/svg"><clipPath id="p.0"><path d="m0 0l712.0 0l0 916.0l-712.0 0l0 -916.0z" clip-rule="nonzero"/></clipPath><g clip-path="url(#p.0)"><path fill="#ffffff" d="m0 0l712.0 0l0 916.0l-712.0 0z" fill-rule="evenodd"/><path fill="#cfe2f3" d="m567.92126 168.07874l0 560.0l-368.0 0l0 -560.0z" fill-rule="evenodd"/><path stroke="#000000" stroke-width="1.0" stroke-linejoin="round" stroke-linecap="butt" d="m567.92126 168.07874l0 560.0l-368.0 0l0 -560.0z" fill-rule="evenodd"/><path fill="#000000" fill-opacity="0.0" d="m503.92126 232.07874l0 432.0" fill-rule="evenodd"/><path stroke="#000000" stroke-width="2.0" stroke-linejoin="round" stroke-linecap="butt" d="m503.92126 232.07874l0 432.0" fill-rule="evenodd"/><path fill="#000000" fill-opacity="0.0" d="m455.92126 232.07874l0 432.0" fill-rule="evenodd"/><path stroke="#000000" stroke-width="2.0" stroke-linejoin="round" stroke-linecap="butt" d="m455.92126 232.07874l0 432.0" fill-rule="evenodd"/><path fill="#000000" fill-opacity="0.0" d="m407.92126 232.07874l0 432.0" fill-rule="evenodd"/><path stroke="#000000" stroke-width="2.0" stroke-linejoin="round" stroke-linecap="butt" d="m407.92126 232.07874l0 432.0" fill-rule="evenodd"/><path fill="#000000" fill-opacity="0.0" d="m359.92126 232.07874l0 432.0" fill-rule="evenodd"/><path stroke="#000000" stroke-width="2.0" stroke-linejoin="round" stroke-linecap="butt" d="m359.92126 232.07874l0 432.0" fill-rule="evenodd"/><path fill="#000000" fill-opacity="0.0" d="m311.92126 232.07874l0 432.0" fill-rule="evenodd"/><path stroke="#000000" stroke-width="2.0" stroke-linejoin="round" stroke-linecap="butt" d="m311.92126 232.07874l0 432.0" fill-rule="evenodd"/><path fill="#000000" fill-opacity="0.0" d="m263.92126 232.07874l0 432.0" fill-rule="evenodd"/><path stroke="#000000" stroke-width="2.0" stroke-linejoin="round" stroke-linecap="butt" d="m263.92126 232.07874l0 432.0" fill-rule="evenodd"/><path fill="#000000" fill-opacity="0.0" d="m503.92126 232.07874l-240.0 0" fill-rule="evenodd"/><path stroke="#000000" stroke-width="8.0" stroke-linejoin="round" stroke-linecap="round" d="m503.92126 232.07874l-240.0 0" fill-rule="evenodd"/><path fill="#000000" fill-opacity="0.0" d="m503.92126 312.07874l-240.0 0" fill-rule="evenodd"/><path stroke="#000000" stroke-width="2.0" stroke-linejoin="round" stroke-linecap="butt" d="m503.92126 312.07874l-240.0 0" fill-rule="evenodd"/><path fill="#000000" fill-opacity="0.0" d="m503.92126 392.07874l-240.0 0" fill-rule="evenodd"/><path stroke="#000000" stroke-width="2.0" stroke-linejoin="round" stroke-linecap="butt" d="m503.92126 392.07874l-240.0 0" fill-rule="evenodd"/><path fill="#000000" fill-opacity="0.0" d="m503.92126 472.07874l-240.0 0" fill-rule="evenodd"/><path stroke="#000000" stroke-width="2.0" stroke-linejoin="round" stroke-linecap="butt" d="m503.92126 472.07874l-240.0 0" fill-rule="evenodd"/><path fill="#000000" fill-opacity="0.0" d="m503.92126 552.07874l-240.0 0" fill-rule="evenodd"/><path stroke="#000000" stroke-width="2.0" stroke-linejoin="round" stroke-linecap="butt" d="m503.92126 552.07874l-240.0 0" fill-rule="evenodd"/><path fill="#000000" fill-opacity="0.0" d="m503.92126 632.07874l-240.0 0" fill-rule="evenodd"/><path stroke="#000000" stroke-width="2.0" stroke-linejoin="round" stroke-linecap="butt" d="m503.92126 632.07874l-240.0 0" fill-rule="evenodd"/><path fill="#000000" fill-opacity="0.0" d="m239.92126 232.07874l0 80.0l-32.0 0l0 -80.0z" fill-rule="evenodd"/><path fill="#000000" d="m222.00127 274.23462l0 -2.5625l9.640625 0q-1.3125 -1.40625 -1.9375 -3.3125l2.328125 0q0.328125 1.015625 1.234375 2.1875q0.921875 1.171875 2.140625 1.609375l0 2.078125l-13.40625 0z" fill-rule="nonzero"/><path fill="#000000" fill-opacity="0.0" d="m239.92126 312.07874l0 80.0l-32.0 0l0 -80.0z" fill-rule="evenodd"/><path fill="#000000" d="m224.37627 356.32837l-2.375 0l0 -8.96875q1.34375 0.140625 2.546875 0.859375q1.21875 0.734375 3.203125 2.890625q1.625 1.734375 2.1875 2.125q0.796875 0.53125 1.578125 0.53125q0.84375 0 1.296875 -0.46875q0.46875 -0.453125 0.46875 -1.265625q0 -0.796875 -0.484375 -1.28125q-0.46875 -0.46875 -1.59375 -0.546875l0.25 -2.546875q2.109375 0.234375 3.03125 1.421875q0.921875 1.203125 0.921875 3.015625q0 1.96875 -1.0625 3.09375q-1.0625 1.140625 -2.65625 1.140625q-0.890625 0 -1.71875 -0.328125q-0.8125 -0.3125 -1.703125 -1.015625q-0.59375 -0.46875 -1.703125 -1.6875q-1.109375 -1.203125 -1.484375 -1.53125q-0.359375 -0.3125 -0.703125 -0.515625l0 5.078125z" fill-rule="nonzero"/><path fill="#000000" fill-opacity="0.0" d="m239.92126 392.07874l0 80.0l-32.0 0l0 -80.0z" fill-rule="evenodd"/><path fill="#000000" d="m225.54814 427.594l0.296875 2.46875q-0.953125 0.125 -1.453125 0.640625q-0.5 0.53125 -0.5 1.265625q0 0.78125 0.59375 1.328125q0.609375 0.546875 1.640625 0.546875q0.953125 0 1.515625 -0.53125q0.578125 -0.515625 0.578125 -1.25q0 -0.5 -0.203125 -1.1875l2.09375 0.28125q-0.03125 1.046875 0.4375 1.59375q0.484375 0.546875 1.28125 0.546875q0.671875 0 1.078125 -0.40625q0.40625 -0.390625 0.40625 -1.0625q0 -0.65625 -0.46875 -1.125q-0.453125 -0.453125 -1.328125 -0.5625l0.40625 -2.359375q1.203125 0.25 1.921875 0.734375q0.734375 0.5 1.140625 1.390625q0.421875 0.890625 0.421875 2.0q0 1.875 -1.203125 3.015625q-0.984375 0.9375 -2.21875 0.9375q-1.765625 0 -2.8125 -1.921875q-0.234375 1.15625 -1.09375 1.84375q-0.859375 0.6875 -2.0625 0.6875q-1.765625 0 -3.015625 -1.296875q-1.234375 -1.28125 -1.234375 -3.1875q0 -1.8125 1.046875 -3.015625q1.046875 -1.1875 2.734375 -1.375z" fill-rule="nonzero"/><path fill="#000000" fill-opacity="0.0" d="m239.92126 472.07874l0 80.0l-32.0 0l0 -80.0z" fill-rule="evenodd"/><path fill="#000000" d="m222.00127 512.70337l2.6875 0l0 -5.46875l2.234375 0l8.484375 5.796875l0 2.15625l-8.46875 0l0 1.65625l-2.25 0l0 -1.65625l-2.6875 0l0 -2.484375zm4.9375 0l4.5625 0l-4.5625 -3.078125l0 3.078125z" fill-rule="nonzero"/><path fill="#000000" fill-opacity="0.0" d="m239.92126 552.07874l0 80.0l-32.0 0l0 -80.0z" fill-rule="evenodd"/><path fill="#000000" d="m225.43877 587.719l0.265625 2.546875q-0.875 0.109375 -1.375 0.640625q-0.5 0.546875 -0.5 1.25q0 0.796875 0.640625 1.34375q0.65625 0.5625 1.96875 0.5625q1.234375 0 1.84375 -0.546875q0.609375 -0.546875 0.609375 -1.4375q0 -1.09375 -0.96875 -1.96875l0.296875 -2.078125l6.953125 1.3125l0 6.765625l-2.390625 0l0 -4.828125l-2.265625 -0.40625q0.421875 0.859375 0.421875 1.75q0 1.703125 -1.25 2.890625q-1.234375 1.1875 -3.203125 1.1875q-1.65625 0 -2.9375 -0.953125q-1.78125 -1.3125 -1.78125 -3.625q0 -1.84375 1.0 -3.015625q1.0 -1.15625 2.671875 -1.390625z" fill-rule="nonzero"/><path fill="#9fc5e8" d="m455.92126 256.07874l0 0c8.836548 0 16.0 7.163452 16.0 16.0l0 0c0 4.243469 -1.6856995 8.313141 -4.68631 11.313721c-3.0005798 3.0005798 -7.070221 4.6862793 -11.31369 4.6862793l0 0c-8.836548 0 -16.0 -7.163452 -16.0 -16.0l0 0c0 -8.836548 7.163452 -16.0 16.0 -16.0z" fill-rule="evenodd"/><path stroke="#000000" stroke-width="2.0" stroke-linejoin="round" stroke-linecap="butt" d="m455.92126 256.07874l0 0c8.836548 0 16.0 7.163452 16.0 16.0l0 0c0 4.243469 -1.6856995 8.313141 -4.68631 11.313721c-3.0005798 3.0005798 -7.070221 4.6862793 -11.31369 4.6862793l0 0c-8.836548 0 -16.0 -7.163452 -16.0 -16.0l0 0c0 -8.836548 7.163452 -16.0 16.0 -16.0z" fill-rule="evenodd"/><path fill="#000000" d="m453.68875 276.311l-0.453125 1.765625q-2.171875 -0.5625 -3.328125 -2.0q-1.140625 -1.4375 -1.140625 -3.53125q0 -2.15625 0.875 -3.515625q0.890625 -1.34375 2.546875 -2.0625q1.671875 -0.703125 3.59375 -0.703125q2.078125 0 3.625 0.796875q1.5625 0.796875 2.359375 2.265625q0.8125 1.484375 0.8125 3.25q0 2.0 -1.015625 3.359375q-1.015625 1.375 -2.875 1.90625l-0.40625 -1.734375q1.453125 -0.46875 2.109375 -1.359375q0.671875 -0.875 0.671875 -2.203125q0 -1.546875 -0.734375 -2.578125q-0.734375 -1.03125 -1.984375 -1.453125q-1.234375 -0.421875 -2.5625 -0.421875q-1.703125 0 -2.96875 0.5q-1.265625 0.5 -1.90625 1.546875q-0.625 1.046875 -0.625 2.265625q0 1.484375 0.859375 2.515625q0.859375 1.03125 2.546875 1.390625z" fill-rule="nonzero"/><path fill="#cfe2f3" d="m407.92126 184.07874l0 0c8.836548 0 16.0 7.163452 16.0 16.0l0 0c0 4.243469 -1.6856995 8.313126 -4.68631 11.313721c-3.0005798 3.0005798 -7.070221 4.6862793 -11.31369 4.6862793l0 0c-8.836548 0 -16.0 -7.163437 -16.0 -16.0l0 0c0 -8.836548 7.163452 -16.0 16.0 -16.0z" fill-rule="evenodd"/><path stroke="#000000" stroke-width="2.0" stroke-linejoin="round" stroke-linecap="butt" d="m407.92126 184.07874l0 0c8.836548 0 16.0 7.163452 16.0 16.0l0 0c0 4.243469 -1.6856995 8.313126 -4.68631 11.313721c-3.0005798 3.0005798 -7.070221 4.6862793 -11.31369 4.6862793l0 0c-8.836548 0 -16.0 -7.163437 -16.0 -16.0l0 0c0 -8.836548 7.163452 -16.0 16.0 -16.0z" fill-rule="evenodd"/><path fill="#000000" d="m406.23563 200.51053l1.578125 0l0 5.65625l-4.953125 0q-1.046875 -1.296875 -1.578125 -2.6875q-0.515625 -1.375 -0.515625 -2.84375q0 -1.96875 0.84375 -3.578125q0.84375 -1.609375 2.4375 -2.421875q1.59375 -0.8125 3.5625 -0.8125q1.953125 0 3.640625 0.8125q1.6875 0.8125 2.5 2.34375q0.828125 1.53125 0.828125 3.515625q0 1.453125 -0.46875 2.625q-0.46875 1.171875 -1.3125 1.828125q-0.828125 0.671875 -2.171875 1.015625l-0.4375 -1.59375q1.015625 -0.296875 1.59375 -0.75q0.59375 -0.4375 0.9375 -1.265625q0.34375 -0.828125 0.34375 -1.84375q0 -1.203125 -0.375 -2.09375q-0.359375 -0.890625 -0.96875 -1.4375q-0.59375 -0.53125 -1.3125 -0.828125q-1.234375 -0.515625 -2.6875 -0.515625q-1.78125 0 -2.984375 0.609375q-1.203125 0.625 -1.796875 1.796875q-0.578125 1.171875 -0.578125 2.5q0 1.140625 0.4375 2.234375q0.453125 1.09375 0.953125 1.65625l2.484375 0l0 -3.921875z" fill-rule="nonzero"/><path fill="#9fc5e8" d="m311.92126 416.07874l0 0c8.836548 0 16.0 7.163452 16.0 16.0l0 0c0 4.243469 -1.6856995 8.313141 -4.68631 11.313721c-3.0005798 3.0005798 -7.070221 4.6862793 -11.31369 4.6862793l0 0c-8.836548 0 -16.0 -7.163452 -16.0 -16.0l0 0c0 -8.836548 7.163452 -16.0 16.0 -16.0z" fill-rule="evenodd"/><path stroke="#000000" stroke-width="2.0" stroke-linejoin="round" stroke-linecap="butt" d="m311.92126 416.07874l0 0c8.836548 0 16.0 7.163452 16.0 16.0l0 0c0 4.243469 -1.6856995 8.313141 -4.68631 11.313721c-3.0005798 3.0005798 -7.070221 4.6862793 -11.31369 4.6862793l0 0c-8.836548 0 -16.0 -7.163452 -16.0 -16.0l0 0c0 -8.836548 7.163452 -16.0 16.0 -16.0z" fill-rule="evenodd"/><path fill="#000000" d="m309.68875 436.311l-0.453125 1.765625q-2.171875 -0.5625 -3.328125 -2.0q-1.140625 -1.4375 -1.140625 -3.53125q0 -2.15625 0.875 -3.515625q0.890625 -1.34375 2.546875 -2.0625q1.671875 -0.703125 3.59375 -0.703125q2.078125 0 3.625 0.796875q1.5625 0.796875 2.359375 2.265625q0.8125 1.484375 0.8125 3.25q0 2.0 -1.015625 3.359375q-1.015625 1.375 -2.875 1.90625l-0.40625 -1.734375q1.453125 -0.46875 2.109375 -1.359375q0.671875 -0.875 0.671875 -2.203125q0 -1.546875 -0.734375 -2.578125q-0.734375 -1.03125 -1.984375 -1.453125q-1.234375 -0.421875 -2.5625 -0.421875q-1.703125 0 -2.96875 0.5q-1.265625 0.5 -1.90625 1.546875q-0.625 1.046875 -0.625 2.265625q0 1.484375 0.859375 2.515625q0.859375 1.03125 2.546875 1.390625z" fill-rule="nonzero"/><path fill="#cfe2f3" d="m359.92126 336.07874l0 0c8.836548 0 16.0 7.163452 16.0 16.0l0 0c0 4.243469 -1.6856995 8.313141 -4.68631 11.313721c-3.0005798 3.0005798 -7.070221 4.6862793 -11.31369 4.6862793l0 0c-8.836548 0 -16.0 -7.163452 -16.0 -16.0l0 0c0 -8.836548 7.163452 -16.0 16.0 -16.0z" fill-rule="evenodd"/><path stroke="#000000" stroke-width="2.0" stroke-linejoin="round" stroke-linecap="butt" d="m359.92126 336.07874l0 0c8.836548 0 16.0 7.163452 16.0 16.0l0 0c0 4.243469 -1.6856995 8.313141 -4.68631 11.313721c-3.0005798 3.0005798 -7.070221 4.6862793 -11.31369 4.6862793l0 0c-8.836548 0 -16.0 -7.163452 -16.0 -16.0l0 0c0 -8.836548 7.163452 -16.0 16.0 -16.0z" fill-rule="evenodd"/><path fill="#000000" d="m353.00125 347.3257l13.359375 0l0 9.65625l-1.578125 0l0 -7.875l-4.09375 0l0 7.375l-1.5625 0l0 -7.375l-4.546875 0l0 8.1875l-1.578125 0l0 -9.96875z" fill-rule="nonzero"/><path fill="#cfe2f3" d="m503.92126 184.07874l0 0c8.836548 0 16.0 7.163452 16.0 16.0l0 0c0 4.243469 -1.68573 8.313126 -4.6862793 11.313721c-3.0006104 3.0005798 -7.0702515 4.6862793 -11.313721 4.6862793l0 0c-8.836548 0 -16.0 -7.163437 -16.0 -16.0l0 0c0 -8.836548 7.163452 -16.0 16.0 -16.0z" fill-rule="evenodd"/><path stroke="#000000" stroke-width="2.0" stroke-linejoin="round" stroke-linecap="butt" d="m503.92126 184.07874l0 0c8.836548 0 16.0 7.163452 16.0 16.0l0 0c0 4.243469 -1.68573 8.313126 -4.6862793 11.313721c-3.0006104 3.0005798 -7.0702515 4.6862793 -11.313721 4.6862793l0 0c-8.836548 0 -16.0 -7.163437 -16.0 -16.0l0 0c0 -8.836548 7.163452 -16.0 16.0 -16.0z" fill-rule="evenodd"/><path fill="#000000" d="m497.00125 195.3257l13.359375 0l0 9.65625l-1.578125 0l0 -7.875l-4.09375 0l0 7.375l-1.5625 0l0 -7.375l-4.546875 0l0 8.1875l-1.578125 0l0 -9.96875z" fill-rule="nonzero"/><path fill="#cfe2f3" d="m263.92126 416.07874l0 0c8.836548 0 16.0 7.163452 16.0 16.0l0 0c0 4.243469 -1.6856995 8.313141 -4.68631 11.313721c-3.0005798 3.0005798 -7.070221 4.6862793 -11.31369 4.6862793l0 0c-8.836563 0 -16.0 -7.163452 -16.0 -16.0l0 0c0 -8.836548 7.163437 -16.0 16.0 -16.0z" fill-rule="evenodd"/><path stroke="#000000" stroke-width="2.0" stroke-linejoin="round" stroke-linecap="butt" d="m263.92126 416.07874l0 0c8.836548 0 16.0 7.163452 16.0 16.0l0 0c0 4.243469 -1.6856995 8.313141 -4.68631 11.313721c-3.0005798 3.0005798 -7.070221 4.6862793 -11.31369 4.6862793l0 0c-8.836563 0 -16.0 -7.163452 -16.0 -16.0l0 0c0 -8.836548 7.163437 -16.0 16.0 -16.0z" fill-rule="evenodd"/><path fill="#000000" d="m262.23563 432.51053l1.578125 0l0 5.65625l-4.953125 0q-1.046875 -1.296875 -1.578125 -2.6875q-0.515625 -1.375 -0.515625 -2.84375q0 -1.96875 0.84375 -3.578125q0.84375 -1.609375 2.4375 -2.421875q1.59375 -0.8125 3.5625 -0.8125q1.953125 0 3.640625 0.8125q1.6875 0.8125 2.5 2.34375q0.828125 1.53125 0.828125 3.515625q0 1.453125 -0.46875 2.625q-0.46875 1.171875 -1.3125 1.828125q-0.828125 0.671875 -2.171875 1.015625l-0.4375 -1.59375q1.015625 -0.296875 1.59375 -0.75q0.59375 -0.4375 0.9375 -1.265625q0.34375 -0.828125 0.34375 -1.84375q0 -1.203125 -0.375 -2.09375q-0.359375 -0.890625 -0.96875 -1.4375q-0.59375 -0.53125 -1.3125 -0.828125q-1.234375 -0.515625 -2.6875 -0.515625q-1.78125 0 -2.984375 0.609375q-1.203125 0.625 -1.796875 1.796875q-0.578125 1.171875 -0.578125 2.5q0 1.140625 0.4375 2.234375q0.453125 1.09375 0.953125 1.65625l2.484375 0l0 -3.921875z" fill-rule="nonzero"/><path fill="#000000" fill-opacity="0.0" d="m567.92126 72.07874l0 736.0" fill-rule="evenodd"/><path stroke="#000000" stroke-width="1.0" stroke-linejoin="round" stroke-linecap="butt" stroke-dasharray="4.0,3.0" d="m567.92126 72.07874l0 736.0" fill-rule="evenodd"/><path fill="#000000" fill-opacity="0.0" d="m199.92126 72.07874l0 743.937" fill-rule="evenodd"/><path stroke="#000000" stroke-width="1.0" stroke-linejoin="round" stroke-linecap="butt" stroke-dasharray="4.0,3.0" d="m199.92126 72.07874l0 743.937" fill-rule="evenodd"/><path fill="#000000" fill-opacity="0.0" d="m599.92126 168.07874l-516.0 0" fill-rule="evenodd"/><path stroke="#000000" stroke-width="1.0" stroke-linejoin="round" stroke-linecap="butt" stroke-dasharray="4.0,3.0" d="m599.92126 168.07874l-516.0 0" fill-rule="evenodd"/><path fill="#000000" fill-opacity="0.0" d="m599.92126 728.07874l-516.0 0" fill-rule="evenodd"/><path stroke="#000000" stroke-width="1.0" stroke-linejoin="round" stroke-linecap="butt" stroke-dasharray="4.0,3.0" d="m599.92126 728.07874l-516.0 0" fill-rule="evenodd"/><path fill="#000000" fill-opacity="0.0" d="m503.92126 680.07874l0 128.0" fill-rule="evenodd"/><path stroke="#000000" stroke-width="1.0" stroke-linejoin="round" stroke-linecap="butt" stroke-dasharray="4.0,3.0" d="m503.92126 680.07874l0 128.0" fill-rule="evenodd"/><path fill="#000000" fill-opacity="0.0" d="m263.92126 680.07874l0 128.0" fill-rule="evenodd"/><path stroke="#000000" stroke-width="1.0" stroke-linejoin="round" stroke-linecap="butt" stroke-dasharray="4.0,3.0" d="m263.92126 680.07874l0 128.0" fill-rule="evenodd"/><path fill="#000000" fill-opacity="0.0" d="m455.92126 680.07874l0 128.0" fill-rule="evenodd"/><path stroke="#000000" stroke-width="1.0" stroke-linejoin="round" stroke-linecap="butt" stroke-dasharray="4.0,3.0" d="m455.92126 680.07874l0 128.0" fill-rule="evenodd"/><path fill="#000000" fill-opacity="0.0" d="m503.92126 760.07874l-48.0 0" fill-rule="evenodd"/><path stroke="#000000" stroke-width="1.0" stroke-linejoin="round" stroke-linecap="butt" d="m497.92126 760.07874l-36.0 0" fill-rule="evenodd"/><path fill="#000000" stroke="#000000" stroke-width="1.0" stroke-linecap="butt" d="m497.92126 761.73047l4.538086 -1.6517334l-4.538086 -1.6517334z" fill-rule="evenodd"/><path fill="#000000" stroke="#000000" stroke-width="1.0" stroke-linecap="butt" d="m461.92126 758.427l-4.5381165 1.6517334l4.5381165 1.6517334z" fill-rule="evenodd"/><path fill="#000000" fill-opacity="0.0" d="m567.92126 760.07874l-64.0 0" fill-rule="evenodd"/><path stroke="#000000" stroke-width="1.0" stroke-linejoin="round" stroke-linecap="butt" d="m561.92126 760.07874l-52.0 0" fill-rule="evenodd"/><path fill="#000000" stroke="#000000" stroke-width="1.0" stroke-linecap="butt" d="m561.92126 761.73047l4.538086 -1.6517334l-4.538086 -1.6517334z" fill-rule="evenodd"/><path fill="#000000" stroke="#000000" stroke-width="1.0" stroke-linecap="butt" d="m509.92126 758.427l-4.5381165 1.6517334l4.5381165 1.6517334z" fill-rule="evenodd"/><path fill="#000000" fill-opacity="0.0" d="m263.92126 760.07874l-64.0 0" fill-rule="evenodd"/><path stroke="#000000" stroke-width="1.0" stroke-linejoin="round" stroke-linecap="butt" d="m257.92126 760.07874l-52.0 0" fill-rule="evenodd"/><path fill="#000000" stroke="#000000" stroke-width="1.0" stroke-linecap="butt" d="m257.92126 761.73047l4.538086 -1.6517334l-4.538086 -1.6517334z" fill-rule="evenodd"/><path fill="#000000" stroke="#000000" stroke-width="1.0" stroke-linecap="butt" d="m205.92126 758.427l-4.538101 1.6517334l4.538101 1.6517334z" fill-rule="evenodd"/><path fill="#000000" fill-opacity="0.0" d="m247.92126 232.07874l-93.732285 0" fill-rule="evenodd"/><path stroke="#000000" stroke-width="1.0" stroke-linejoin="round" stroke-linecap="butt" stroke-dasharray="4.0,3.0" d="m247.92126 232.07874l-93.732285 0" fill-rule="evenodd"/><path fill="#000000" fill-opacity="0.0" d="m167.92126 168.07874l0 64.0" fill-rule="evenodd"/><path stroke="#000000" stroke-width="1.0" stroke-linejoin="round" stroke-linecap="butt" d="m167.92126 174.07874l0 52.0" fill-rule="evenodd"/><path fill="#000000" stroke="#000000" stroke-width="1.0" stroke-linecap="butt" d="m169.573 174.07874l-1.6517334 -4.538086l-1.6517334 4.538086z" fill-rule="evenodd"/><path fill="#000000" stroke="#000000" stroke-width="1.0" stroke-linecap="butt" d="m166.26953 226.07874l1.6517334 4.538101l1.6517334 -4.538101z" fill-rule="evenodd"/><path fill="#000000" fill-opacity="0.0" d="m612.44354 392.08398l-100.5354 0" fill-rule="evenodd"/><path stroke="#000000" stroke-width="1.0" stroke-linejoin="round" stroke-linecap="butt" stroke-dasharray="4.0,3.0" d="m612.44354 392.08398l-100.5354 0" fill-rule="evenodd"/><path fill="#000000" fill-opacity="0.0" d="m247.92126 664.07874l-96.346466 0" fill-rule="evenodd"/><path stroke="#000000" stroke-width="1.0" stroke-linejoin="round" stroke-linecap="butt" stroke-dasharray="4.0,3.0" d="m247.92126 664.07874l-96.346466 0" fill-rule="evenodd"/><path fill="#000000" fill-opacity="0.0" d="m602.0079 392.07874l0 80.0" fill-rule="evenodd"/><path stroke="#000000" stroke-width="1.0" stroke-linejoin="round" stroke-linecap="butt" d="m602.0079 398.07874l0 68.0" fill-rule="evenodd"/><path fill="#000000" stroke="#000000" stroke-width="1.0" stroke-linecap="butt" d="m603.6596 398.07874l-1.6517334 -4.538086l-1.6517334 4.538086z" fill-rule="evenodd"/><path fill="#000000" stroke="#000000" stroke-width="1.0" stroke-linecap="butt" d="m600.35614 466.07874l1.6517334 4.5381165l1.6517334 -4.5381165z" fill-rule="evenodd"/><path fill="#000000" fill-opacity="0.0" d="m167.92126 664.07874l0 64.0" fill-rule="evenodd"/><path stroke="#000000" stroke-width="1.0" stroke-linejoin="round" stroke-linecap="butt" d="m167.92126 670.07874l0 52.0" fill-rule="evenodd"/><path fill="#000000" stroke="#000000" stroke-width="1.0" stroke-linecap="butt" d="m169.573 670.07874l-1.6517334 -4.538086l-1.6517334 4.538086z" fill-rule="evenodd"/><path fill="#000000" stroke="#000000" stroke-width="1.0" stroke-linecap="butt" d="m166.26953 722.07874l1.6517334 4.538086l1.6517334 -4.538086z" fill-rule="evenodd"/><path fill="#000000" fill-opacity="0.0" d="m103.92126 168.07874l0 560.0" fill-rule="evenodd"/><path stroke="#000000" stroke-width="1.0" stroke-linejoin="round" stroke-linecap="butt" d="m103.92126 174.07874l0 548.0" fill-rule="evenodd"/><path fill="#000000" stroke="#000000" stroke-width="1.0" stroke-linecap="butt" d="m105.57299 174.07874l-1.6517334 -4.538086l-1.6517334 4.538086z" fill-rule="evenodd"/><path fill="#000000" stroke="#000000" stroke-width="1.0" stroke-linecap="butt" d="m102.26952 722.07874l1.6517334 4.538086l1.6517334 -4.538086z" fill-rule="evenodd"/><path fill="#000000" fill-opacity="0.0" d="m503.92126 760.07874l0 96.0l-48.0 0l0 -96.0z" fill-rule="evenodd"/><path fill="#000000" d="m477.18375 769.485l0.1875 1.15625q-0.703125 0.109375 -1.078125 0.546875q-0.359375 0.453125 -0.359375 1.25q0 0.8125 0.328125 1.203125q0.328125 0.390625 0.765625 0.390625q0.390625 0 0.625 -0.359375q0.15625 -0.234375 0.390625 -1.1875q0.328125 -1.296875 0.5625 -1.796875q0.25 -0.484375 0.65625 -0.75q0.421875 -0.25 0.9375 -0.25q0.453125 0 0.84375 0.203125q0.40625 0.21875 0.671875 0.578125q0.1875 0.28125 0.328125 0.75q0.140625 0.46875 0.140625 1.015625q0 0.8125 -0.234375 1.421875q-0.234375 0.609375 -0.640625 0.90625q-0.390625 0.296875 -1.0625 0.40625l-0.15625 -1.140625q0.53125 -0.078125 0.828125 -0.453125q0.3125 -0.375 0.3125 -1.0625q0 -0.8125 -0.265625 -1.15625q-0.265625 -0.34375 -0.625 -0.34375q-0.234375 0 -0.421875 0.140625q-0.1875 0.15625 -0.3125 0.453125q-0.0625 0.171875 -0.296875 1.03125q-0.328125 1.25 -0.546875 1.734375q-0.203125 0.5 -0.609375 0.78125q-0.40625 0.28125 -1.0 0.28125q-0.59375 0 -1.109375 -0.34375q-0.515625 -0.34375 -0.796875 -1.0q-0.28125 -0.640625 -0.28125 -1.453125q0 -1.34375 0.5625 -2.046875q0.5625 -0.703125 1.65625 -0.90625zm-1.015625 9.6953125l-1.03125 0.171875q-0.109375 -0.5 -0.109375 -0.890625q0 -0.640625 0.203125 -1.0q0.203125 -0.34375 0.53125 -0.484375q0.328125 -0.140625 1.390625 -0.140625l3.96875 0l0 -0.859375l0.90625 0l0 0.859375l1.71875 0l0.703125 1.171875l-2.421875 0l0 1.171875l-0.90625 0l0 -1.171875l-4.046875 0q-0.5 0 -0.640625 0.046875q-0.140625 0.0625 -0.234375 0.203125q-0.078125 0.140625 -0.078125 0.40625q0 0.203125 0.046875 0.515625zm-1.046875 1.1248779l6.90625 0l0 1.0625l-1.046875 0q0.734375 0.40625 0.96875 0.734375q0.234375 0.34375 0.234375 0.765625q0 0.59375 -0.375 1.203125l-1.078125 -0.40625q0.25 -0.4375 0.25 -0.859375q0 -0.390625 -0.234375 -0.703125q-0.234375 -0.296875 -0.640625 -0.421875q-0.625 -0.203125 -1.359375 -0.203125l-3.625 0l0 -1.171875zm8.1875 4.4696045l1.359375 0l0 1.171875l-1.359375 0l0 -1.171875zm-8.1875 0l6.90625 0l0 1.171875l-6.90625 0l0 -1.171875zm0 2.9454956l6.90625 0l0 1.0625l-0.984375 0q1.140625 0.75 1.140625 2.1875q0 0.625 -0.21875 1.15625q-0.21875 0.53125 -0.59375 0.78125q-0.359375 0.265625 -0.859375 0.375q-0.328125 0.0625 -1.140625 0.0625l-4.25 0l0 -1.171875l4.203125 0q0.71875 0 1.0625 -0.140625q0.359375 -0.140625 0.5625 -0.484375q0.21875 -0.34375 0.21875 -0.8125q0 -0.75 -0.46875 -1.296875q-0.46875 -0.546875 -1.796875 -0.546875l-3.78125 0l0 -1.171875zm-0.578125 7.1937256l-0.15625 1.140625q-0.53125 0.078125 -0.78125 0.40625q-0.3125 0.4375 -0.3125 1.1875q0 0.8125 0.328125 1.25q0.3125 0.453125 0.90625 0.609375q0.359375 0.09375 1.5 0.078125q-0.90625 -0.765625 -0.90625 -1.90625q0 -1.4375 1.03125 -2.21875q1.03125 -0.78125 2.46875 -0.78125q0.984375 0 1.8125 0.359375q0.84375 0.359375 1.296875 1.03125q0.453125 0.6875 0.453125 1.609375q0 1.21875 -0.984375 2.015625l0.828125 0l0 1.078125l-5.96875 0q-1.609375 0 -2.28125 -0.328125q-0.6875 -0.328125 -1.078125 -1.046875q-0.390625 -0.703125 -0.390625 -1.75q0 -1.234375 0.5625 -2.0q0.5625 -0.75 1.671875 -0.734375zm4.15625 0.984375q-1.359375 0 -1.984375 0.53125q-0.625 0.546875 -0.625 1.359375q0 0.796875 0.625 1.34375q0.625 0.546875 1.953125 0.546875q1.265625 0 1.90625 -0.5625q0.640625 -0.5625 0.640625 -1.359375q0 -0.765625 -0.640625 -1.3125q-0.625 -0.546875 -1.875 -0.546875zm-3.578125 7.0218506l9.546875 0l0 1.25l-9.546875 0l0 -1.25zm0 3.327942l6.90625 0l0 1.0625l-0.984375 0q1.140625 0.75 1.140625 2.1875q0 0.625 -0.21875 1.15625q-0.21875 0.53125 -0.59375 0.78125q-0.359375 0.265625 -0.859375 0.375q-0.328125 0.0625 -1.140625 0.0625l-4.25 0l0 -1.171875l4.203125 0q0.71875 0 1.0625 -0.140625q0.359375 -0.140625 0.5625 -0.484375q0.21875 -0.34375 0.21875 -0.8125q0 -0.75 -0.46875 -1.296875q-0.46875 -0.546875 -1.796875 -0.546875l-3.78125 0l0 -1.171875zm1.046875 9.974976l-1.03125 0.171875q-0.109375 -0.5 -0.109375 -0.890625q0 -0.640625 0.203125 -1.0q0.203125 -0.34375 0.53125 -0.484375q0.328125 -0.140625 1.390625 -0.140625l3.96875 0l0 -0.859375l0.90625 0l0 0.859375l1.71875 0l0.703125 1.171875l-2.421875 0l0 1.171875l-0.90625 0l0 -1.171875l-4.046875 0q-0.5 0 -0.640625 0.046875q-0.140625 0.0625 -0.234375 0.203125q-0.078125 0.140625 -0.078125 0.40625q0 0.203125 0.046875 0.515625zm1.171875 5.874878l-0.140625 1.203125q-1.0625 -0.28125 -1.65625 -1.0625q-0.578125 -0.765625 -0.578125 -1.96875q0 -1.515625 0.9375 -2.40625q0.9375 -0.890625 2.609375 -0.890625q1.75 0 2.703125 0.890625q0.96875 0.90625 0.96875 2.34375q0 1.390625 -0.9375 2.265625q-0.9375 0.875 -2.65625 0.875q-0.109375 0 -0.3125 0l0 -5.15625q-1.140625 0.0625 -1.75 0.640625q-0.59375 0.578125 -0.59375 1.4375q0 0.65625 0.328125 1.109375q0.34375 0.453125 1.078125 0.71875zm1.90625 -3.84375l0 3.859375q0.859375 -0.078125 1.296875 -0.4375q0.6875 -0.5625 0.6875 -1.453125q0 -0.8125 -0.546875 -1.359375q-0.53125 -0.546875 -1.4375 -0.609375zm-4.125 6.5062256l6.90625 0l0 1.0625l-1.046875 0q0.734375 0.40625 0.96875 0.734375q0.234375 0.34375 0.234375 0.765625q0 0.59375 -0.375 1.203125l-1.078125 -0.40625q0.25 -0.4375 0.25 -0.859375q0 -0.390625 -0.234375 -0.703125q-0.234375 -0.296875 -0.640625 -0.421875q-0.625 -0.203125 -1.359375 -0.203125l-3.625 0l0 -1.171875zm0 6.3758545l6.90625 -2.625l0 1.234375l-4.140625 1.484375q-0.65625 0.234375 -1.390625 0.4375q0.546875 0.15625 1.3125 0.4375l4.21875 1.53125l0 1.21875l-6.90625 -2.625l0 -1.09375zm0.859375 9.2578125q-0.5625 -0.65625 -0.796875 -1.265625q-0.21875 -0.59375 -0.21875 -1.28125q0 -1.140625 0.546875 -1.75q0.5625 -0.609375 1.4375 -0.609375q0.5 0 0.921875 0.21875q0.421875 0.234375 0.671875 0.609375q0.25 0.375 0.390625 0.84375q0.078125 0.34375 0.171875 1.046875q0.171875 1.421875 0.40625 2.09375q0.234375 0 0.296875 0q0.71875 0 1.015625 -0.328125q0.390625 -0.453125 0.390625 -1.34375q0 -0.8125 -0.296875 -1.21875q-0.28125 -0.390625 -1.015625 -0.578125l0.15625 -1.140625q0.734375 0.15625 1.1875 0.515625q0.453125 0.359375 0.6875 1.03125q0.25 0.671875 0.25 1.5625q0 0.890625 -0.203125 1.4375q-0.203125 0.5625 -0.53125 0.8125q-0.3125 0.265625 -0.796875 0.375q-0.296875 0.046875 -1.078125 0.046875l-1.5625 0q-1.625 0 -2.0625 0.078125q-0.4375 0.078125 -0.828125 0.296875l0 -1.21875q0.359375 -0.1875 0.859375 -0.234375zm2.609375 -0.09375q-0.265625 -0.640625 -0.4375 -1.921875q-0.109375 -0.71875 -0.25 -1.015625q-0.125 -0.296875 -0.375 -0.46875q-0.25 -0.15625 -0.546875 -0.15625q-0.46875 0 -0.78125 0.34375q-0.3125 0.359375 -0.3125 1.046875q0 0.671875 0.296875 1.203125q0.296875 0.53125 0.8125 0.78125q0.390625 0.1875 1.171875 0.1875l0.421875 0zm-3.46875 2.9749756l9.546875 0l0 1.171875l-9.546875 0l0 -1.171875z" fill-rule="nonzero"/><path fill="#000000" fill-opacity="0.0" d="m263.92126 760.07874l0 111.84253l-64.0 0l0 -111.84253z" fill-rule="evenodd"/><path fill="#000000" d="m224.46501 769.95374l9.5625 0l0 1.078125l-0.890625 0q0.53125 0.375 0.78125 0.84375q0.265625 0.484375 0.265625 1.15625q0 0.875 -0.453125 1.546875q-0.453125 0.6875 -1.28125 1.03125q-0.828125 0.34375 -1.828125 0.34375q-1.046875 0 -1.90625 -0.375q-0.84375 -0.375 -1.296875 -1.109375q-0.453125 -0.71875 -0.453125 -1.53125q0 -0.578125 0.25 -1.046875q0.25 -0.46875 0.625 -0.765625l-3.375 0l0 -1.171875zm6.078125 1.0625q-1.34375 0 -1.984375 0.53125q-0.625 0.546875 -0.625 1.3125q0 0.78125 0.65625 1.34375q0.65625 0.5625 2.046875 0.5625q1.3125 0 1.96875 -0.546875q0.671875 -0.546875 0.671875 -1.296875q0 -0.75 -0.703125 -1.328125q-0.703125 -0.578125 -2.03125 -0.578125zm-2.5625 10.865601q-0.5625 -0.65625 -0.796875 -1.265625q-0.21875 -0.59375 -0.21875 -1.28125q0 -1.140625 0.546875 -1.75q0.5625 -0.609375 1.4375 -0.609375q0.5 0 0.921875 0.21875q0.421875 0.234375 0.671875 0.609375q0.25 0.375 0.390625 0.84375q0.078125 0.34375 0.171875 1.046875q0.171875 1.421875 0.40625 2.09375q0.234375 0 0.296875 0q0.71875 0 1.015625 -0.328125q0.390625 -0.453125 0.390625 -1.34375q0 -0.8125 -0.296875 -1.21875q-0.28125 -0.390625 -1.015625 -0.578125l0.15625 -1.140625q0.734375 0.15625 1.1875 0.515625q0.453125 0.359375 0.6875 1.03125q0.25 0.671875 0.25 1.5625q0 0.890625 -0.203125 1.4375q-0.203125 0.5625 -0.53125 0.8125q-0.3125 0.265625 -0.796875 0.375q-0.296875 0.046875 -1.078125 0.046875l-1.5625 0q-1.625 0 -2.0625 0.078125q-0.4375 0.078125 -0.828125 0.296875l0 -1.21875q0.359375 -0.1875 0.859375 -0.234375zm2.609375 -0.09375q-0.265625 -0.640625 -0.4375 -1.921875q-0.109375 -0.71875 -0.25 -1.015625q-0.125 -0.296875 -0.375 -0.46875q-0.25 -0.15625 -0.546875 -0.15625q-0.46875 0 -0.78125 0.34375q-0.3125 0.359375 -0.3125 1.046875q0 0.671875 0.296875 1.203125q0.296875 0.53125 0.8125 0.78125q0.390625 0.1875 1.171875 0.1875l0.421875 0zm-3.46875 7.4749756l0.875 0q-1.03125 -0.65625 -1.03125 -1.9375q0 -0.8125 0.453125 -1.515625q0.453125 -0.6875 1.265625 -1.078125q0.828125 -0.375 1.890625 -0.375q1.03125 0 1.875 0.34375q0.84375 0.34375 1.28125 1.03125q0.453125 0.703125 0.453125 1.546875q0 0.625 -0.265625 1.109375q-0.25 0.5 -0.671875 0.796875l3.421875 0l0 1.171875l-9.546875 0l0 -1.09375zm3.453125 -3.703125q-1.328125 0 -1.984375 0.5625q-0.65625 0.5625 -0.65625 1.328125q0 0.765625 0.625 1.296875q0.625 0.53125 1.90625 0.53125q1.421875 0 2.078125 -0.546875q0.671875 -0.546875 0.671875 -1.34375q0 -0.78125 -0.640625 -1.3125q-0.625 -0.515625 -2.0 -0.515625zm-3.453125 11.115601l0.875 0q-1.03125 -0.65625 -1.03125 -1.9375q0 -0.8125 0.453125 -1.515625q0.453125 -0.6875 1.265625 -1.078125q0.828125 -0.375 1.890625 -0.375q1.03125 0 1.875 0.34375q0.84375 0.34375 1.28125 1.03125q0.453125 0.703125 0.453125 1.546875q0 0.625 -0.265625 1.109375q-0.25 0.5 -0.671875 0.796875l3.421875 0l0 1.171875l-9.546875 0l0 -1.09375zm3.453125 -3.703125q-1.328125 0 -1.984375 0.5625q-0.65625 0.5625 -0.65625 1.328125q0 0.765625 0.625 1.296875q0.625 0.53125 1.90625 0.53125q1.421875 0 2.078125 -0.546875q0.671875 -0.546875 0.671875 -1.34375q0 -0.78125 -0.640625 -1.3125q-0.625 -0.515625 -2.0 -0.515625zm4.734375 6.6468506l1.359375 0l0 1.171875l-1.359375 0l0 -1.171875zm-8.1875 0l6.90625 0l0 1.171875l-6.90625 0l0 -1.171875zm0 2.9454956l6.90625 0l0 1.0625l-0.984375 0q1.140625 0.75 1.140625 2.1875q0 0.625 -0.21875 1.15625q-0.21875 0.53125 -0.59375 0.78125q-0.359375 0.265625 -0.859375 0.375q-0.328125 0.0625 -1.140625 0.0625l-4.25 0l0 -1.171875l4.203125 0q0.71875 0 1.0625 -0.140625q0.359375 -0.140625 0.5625 -0.484375q0.21875 -0.34375 0.21875 -0.8125q0 -0.75 -0.46875 -1.296875q-0.46875 -0.546875 -1.796875 -0.546875l-3.78125 0l0 -1.171875zm-0.578125 7.1937256l-0.15625 1.140625q-0.53125 0.078125 -0.78125 0.40625q-0.3125 0.4375 -0.3125 1.1875q0 0.8125 0.328125 1.25q0.3125 0.453125 0.90625 0.609375q0.359375 0.09375 1.5 0.078125q-0.90625 -0.765625 -0.90625 -1.90625q0 -1.4375 1.03125 -2.21875q1.03125 -0.78125 2.46875 -0.78125q0.984375 0 1.8125 0.359375q0.84375 0.359375 1.296875 1.03125q0.453125 0.6875 0.453125 1.609375q0 1.21875 -0.984375 2.015625l0.828125 0l0 1.078125l-5.96875 0q-1.609375 0 -2.28125 -0.328125q-0.6875 -0.328125 -1.078125 -1.046875q-0.390625 -0.703125 -0.390625 -1.75q0 -1.234375 0.5625 -2.0q0.5625 -0.75 1.671875 -0.734375zm4.15625 0.984375q-1.359375 0 -1.984375 0.53125q-0.625 0.546875 -0.625 1.359375q0 0.796875 0.625 1.34375q0.625 0.546875 1.953125 0.546875q1.265625 0 1.90625 -0.5625q0.640625 -0.5625 0.640625 -1.359375q0 -0.765625 -0.640625 -1.3125q-0.625 -0.546875 -1.875 -0.546875zm-3.578125 6.7406006l9.546875 0l0 1.265625l-8.421875 0l0 4.703125l-1.125 0l0 -5.96875zm3.453125 6.8812256q1.921875 0 2.84375 1.078125q0.765625 0.890625 0.765625 2.171875q0 1.421875 -0.9375 2.328125q-0.921875 0.90625 -2.578125 0.90625q-1.328125 0 -2.09375 -0.40625q-0.765625 -0.390625 -1.1875 -1.15625q-0.421875 -0.765625 -0.421875 -1.671875q0 -1.453125 0.921875 -2.359375q0.9375 -0.890625 2.6875 -0.890625zm0 1.203125q-1.328125 0 -1.984375 0.578125q-0.65625 0.59375 -0.65625 1.46875q0 0.875 0.65625 1.453125q0.671875 0.578125 2.03125 0.578125q1.28125 0 1.9375 -0.59375q0.65625 -0.578125 0.65625 -1.4375q0 -0.875 -0.65625 -1.46875q-0.65625 -0.578125 -1.984375 -0.578125zm-3.453125 7.9281006l6.90625 -2.125l0 1.21875l-3.984375 1.09375l-1.484375 0.421875q0.109375 0.015625 1.421875 0.359375l4.046875 1.09375l0 1.203125l-4.0 1.03125l-1.328125 0.34375l1.34375 0.40625l3.984375 1.171875l0 1.140625l-6.90625 -2.15625l0 -1.21875l4.140625 -1.09375l1.171875 -0.265625l-5.3125 -1.40625l0 -1.21875z" fill-rule="nonzero"/><path fill="#000000" fill-opacity="0.0" d="m567.92126 760.07874l0 96.0l-64.0 0l0 -96.0z" fill-rule="evenodd"/><path fill="#000000" d="m528.465 769.95374l9.5625 0l0 1.078125l-0.890625 0q0.53125 0.375 0.78125 0.84375q0.265625 0.484375 0.265625 1.15625q0 0.875 -0.453125 1.546875q-0.453125 0.6875 -1.28125 1.03125q-0.828125 0.34375 -1.828125 0.34375q-1.046875 0 -1.90625 -0.375q-0.84375 -0.375 -1.296875 -1.109375q-0.453125 -0.71875 -0.453125 -1.53125q0 -0.578125 0.25 -1.046875q0.25 -0.46875 0.625 -0.765625l-3.375 0l0 -1.171875zm6.078125 1.0625q-1.34375 0 -1.984375 0.53125q-0.625 0.546875 -0.625 1.3125q0 0.78125 0.65625 1.34375q0.65625 0.5625 2.046875 0.5625q1.3125 0 1.96875 -0.546875q0.671875 -0.546875 0.671875 -1.296875q0 -0.75 -0.703125 -1.328125q-0.703125 -0.578125 -2.03125 -0.578125zm-2.5625 10.865601q-0.5625 -0.65625 -0.796875 -1.265625q-0.21875 -0.59375 -0.21875 -1.28125q0 -1.140625 0.546875 -1.75q0.5625 -0.609375 1.4375 -0.609375q0.5 0 0.921875 0.21875q0.421875 0.234375 0.671875 0.609375q0.25 0.375 0.390625 0.84375q0.078125 0.34375 0.171875 1.046875q0.171875 1.421875 0.40625 2.09375q0.234375 0 0.296875 0q0.71875 0 1.015625 -0.328125q0.390625 -0.453125 0.390625 -1.34375q0 -0.8125 -0.296875 -1.21875q-0.28125 -0.390625 -1.015625 -0.578125l0.15625 -1.140625q0.734375 0.15625 1.1875 0.515625q0.453125 0.359375 0.6875 1.03125q0.25 0.671875 0.25 1.5625q0 0.890625 -0.203125 1.4375q-0.203125 0.5625 -0.53125 0.8125q-0.3125 0.265625 -0.796875 0.375q-0.296875 0.046875 -1.078125 0.046875l-1.5625 0q-1.625 0 -2.0625 0.078125q-0.4375 0.078125 -0.828125 0.296875l0 -1.21875q0.359375 -0.1875 0.859375 -0.234375zm2.609375 -0.09375q-0.265625 -0.640625 -0.4375 -1.921875q-0.109375 -0.71875 -0.25 -1.015625q-0.125 -0.296875 -0.375 -0.46875q-0.25 -0.15625 -0.546875 -0.15625q-0.46875 0 -0.78125 0.34375q-0.3125 0.359375 -0.3125 1.046875q0 0.671875 0.296875 1.203125q0.296875 0.53125 0.8125 0.78125q0.390625 0.1875 1.171875 0.1875l0.421875 0zm-3.46875 7.4749756l0.875 0q-1.03125 -0.65625 -1.03125 -1.9375q0 -0.8125 0.453125 -1.515625q0.453125 -0.6875 1.265625 -1.078125q0.828125 -0.375 1.890625 -0.375q1.03125 0 1.875 0.34375q0.84375 0.34375 1.28125 1.03125q0.453125 0.703125 0.453125 1.546875q0 0.625 -0.265625 1.109375q-0.25 0.5 -0.671875 0.796875l3.421875 0l0 1.171875l-9.546875 0l0 -1.09375zm3.453125 -3.703125q-1.328125 0 -1.984375 0.5625q-0.65625 0.5625 -0.65625 1.328125q0 0.765625 0.625 1.296875q0.625 0.53125 1.90625 0.53125q1.421875 0 2.078125 -0.546875q0.671875 -0.546875 0.671875 -1.34375q0 -0.78125 -0.640625 -1.3125q-0.625 -0.515625 -2.0 -0.515625zm-3.453125 11.115601l0.875 0q-1.03125 -0.65625 -1.03125 -1.9375q0 -0.8125 0.453125 -1.515625q0.453125 -0.6875 1.265625 -1.078125q0.828125 -0.375 1.890625 -0.375q1.03125 0 1.875 0.34375q0.84375 0.34375 1.28125 1.03125q0.453125 0.703125 0.453125 1.546875q0 0.625 -0.265625 1.109375q-0.25 0.5 -0.671875 0.796875l3.421875 0l0 1.171875l-9.546875 0l0 -1.09375zm3.453125 -3.703125q-1.328125 0 -1.984375 0.5625q-0.65625 0.5625 -0.65625 1.328125q0 0.765625 0.625 1.296875q0.625 0.53125 1.90625 0.53125q1.421875 0 2.078125 -0.546875q0.671875 -0.546875 0.671875 -1.34375q0 -0.78125 -0.640625 -1.3125q-0.625 -0.515625 -2.0 -0.515625zm4.734375 6.6468506l1.359375 0l0 1.171875l-1.359375 0l0 -1.171875zm-8.1875 0l6.90625 0l0 1.171875l-6.90625 0l0 -1.171875zm0 2.9454956l6.90625 0l0 1.0625l-0.984375 0q1.140625 0.75 1.140625 2.1875q0 0.625 -0.21875 1.15625q-0.21875 0.53125 -0.59375 0.78125q-0.359375 0.265625 -0.859375 0.375q-0.328125 0.0625 -1.140625 0.0625l-4.25 0l0 -1.171875l4.203125 0q0.71875 0 1.0625 -0.140625q0.359375 -0.140625 0.5625 -0.484375q0.21875 -0.34375 0.21875 -0.8125q0 -0.75 -0.46875 -1.296875q-0.46875 -0.546875 -1.796875 -0.546875l-3.78125 0l0 -1.171875zm-0.578125 7.1937256l-0.15625 1.140625q-0.53125 0.078125 -0.78125 0.40625q-0.3125 0.4375 -0.3125 1.1875q0 0.8125 0.328125 1.25q0.3125 0.453125 0.90625 0.609375q0.359375 0.09375 1.5 0.078125q-0.90625 -0.765625 -0.90625 -1.90625q0 -1.4375 1.03125 -2.21875q1.03125 -0.78125 2.46875 -0.78125q0.984375 0 1.8125 0.359375q0.84375 0.359375 1.296875 1.03125q0.453125 0.6875 0.453125 1.609375q0 1.21875 -0.984375 2.015625l0.828125 0l0 1.078125l-5.96875 0q-1.609375 0 -2.28125 -0.328125q-0.6875 -0.328125 -1.078125 -1.046875q-0.390625 -0.703125 -0.390625 -1.75q0 -1.234375 0.5625 -2.0q0.5625 -0.75 1.671875 -0.734375zm4.15625 0.984375q-1.359375 0 -1.984375 0.53125q-0.625 0.546875 -0.625 1.359375q0 0.796875 0.625 1.34375q0.625 0.546875 1.953125 0.546875q1.265625 0 1.90625 -0.5625q0.640625 -0.5625 0.640625 -1.359375q0 -0.765625 -0.640625 -1.3125q-0.625 -0.546875 -1.875 -0.546875zm-3.578125 6.8343506l9.546875 0l0 1.265625l-3.921875 0l0 4.953125l3.921875 0l0 1.265625l-9.546875 0l0 -1.265625l4.5 0l0 -4.953125l-4.5 0l0 -1.265625zm8.1875 9.453247l1.359375 0l0 1.171875l-1.359375 0l0 -1.171875zm-8.1875 0l6.90625 0l0 1.171875l-6.90625 0l0 -1.171875zm-0.578125 2.7267456l-0.15625 1.140625q-0.53125 0.078125 -0.78125 0.40625q-0.3125 0.4375 -0.3125 1.1875q0 0.8125 0.328125 1.25q0.3125 0.453125 0.90625 0.609375q0.359375 0.09375 1.5 0.078125q-0.90625 -0.765625 -0.90625 -1.90625q0 -1.4375 1.03125 -2.21875q1.03125 -0.78125 2.46875 -0.78125q0.984375 0 1.8125 0.359375q0.84375 0.359375 1.296875 1.03125q0.453125 0.6875 0.453125 1.609375q0 1.21875 -0.984375 2.015625l0.828125 0l0 1.078125l-5.96875 0q-1.609375 0 -2.28125 -0.328125q-0.6875 -0.328125 -1.078125 -1.046875q-0.390625 -0.703125 -0.390625 -1.75q0 -1.234375 0.5625 -2.0q0.5625 -0.75 1.671875 -0.734375zm4.15625 0.984375q-1.359375 0 -1.984375 0.53125q-0.625 0.546875 -0.625 1.359375q0 0.796875 0.625 1.34375q0.625 0.546875 1.953125 0.546875q1.265625 0 1.90625 -0.5625q0.640625 -0.5625 0.640625 -1.359375q0 -0.765625 -0.640625 -1.3125q-0.625 -0.546875 -1.875 -0.546875zm-3.578125 6.6468506l9.546875 0l0 1.171875l-3.421875 0q0.9375 0.828125 0.9375 2.078125q0 0.765625 -0.296875 1.328125q-0.296875 0.5625 -0.84375 0.8125q-0.53125 0.25 -1.546875 0.25l-4.375 0l0 -1.171875l4.375 0q0.890625 0 1.28125 -0.390625q0.40625 -0.375 0.40625 -1.078125q0 -0.515625 -0.28125 -0.984375q-0.265625 -0.453125 -0.734375 -0.65625q-0.453125 -0.1875 -1.265625 -0.1875l-3.78125 0l0 -1.171875z" fill-rule="nonzero"/><path fill="#000000" fill-opacity="0.0" d="m167.92126 616.2362l0 111.84253l-51.275597 0l0 -111.84253z" fill-rule="evenodd"/><path fill="#000000" d="m134.82721 642.13904l9.5625 0l0 1.078125l-0.890625 0q0.53125 0.375 0.78125 0.84375q0.265625 0.484375 0.265625 1.15625q0 0.875 -0.453125 1.546875q-0.453125 0.6875 -1.28125 1.03125q-0.828125 0.34375 -1.828125 0.34375q-1.046875 0 -1.90625 -0.375q-0.84375 -0.375 -1.296875 -1.109375q-0.453125 -0.71875 -0.453125 -1.53125q0 -0.578125 0.25 -1.046875q0.25 -0.46875 0.625 -0.765625l-3.375 0l0 -1.171875zm6.078125 1.0625q-1.34375 0 -1.984375 0.53125q-0.625 0.546875 -0.625 1.3125q0 0.78125 0.65625 1.34375q0.65625 0.5625 2.046875 0.5625q1.3125 0 1.96875 -0.546875q0.671875 -0.546875 0.671875 -1.296875q0 -0.75 -0.703125 -1.328125q-0.703125 -0.578125 -2.03125 -0.578125zm-2.5625 10.865601q-0.5625 -0.65625 -0.796875 -1.265625q-0.21875 -0.59375 -0.21875 -1.28125q0 -1.140625 0.546875 -1.75q0.5625 -0.609375 1.4375 -0.609375q0.5 0 0.921875 0.21875q0.421875 0.234375 0.671875 0.609375q0.25 0.375 0.390625 0.84375q0.078125 0.34375 0.171875 1.046875q0.171875 1.421875 0.40625 2.09375q0.234375 0 0.296875 0q0.71875 0 1.015625 -0.328125q0.390625 -0.453125 0.390625 -1.34375q0 -0.8125 -0.296875 -1.21875q-0.28125 -0.390625 -1.015625 -0.578125l0.15625 -1.140625q0.734375 0.15625 1.1875 0.515625q0.453125 0.359375 0.6875 1.03125q0.25 0.671875 0.25 1.5625q0 0.890625 -0.203125 1.4375q-0.203125 0.5625 -0.53125 0.8125q-0.3125 0.265625 -0.796875 0.375q-0.296875 0.046875 -1.078125 0.046875l-1.5625 0q-1.625 0 -2.0625 0.078125q-0.4375 0.078125 -0.828125 0.296875l0 -1.21875q0.359375 -0.1875 0.859375 -0.234375zm2.609375 -0.09375q-0.265625 -0.640625 -0.4375 -1.921875q-0.109375 -0.71875 -0.25 -1.015625q-0.125 -0.296875 -0.375 -0.46875q-0.25 -0.15625 -0.546875 -0.15625q-0.46875 0 -0.78125 0.34375q-0.3125 0.359375 -0.3125 1.046875q0 0.671875 0.296875 1.203125q0.296875 0.53125 0.8125 0.78125q0.390625 0.1875 1.171875 0.1875l0.421875 0zm-3.46875 7.4749756l0.875 0q-1.03125 -0.65625 -1.03125 -1.9375q0 -0.8125 0.453125 -1.515625q0.453125 -0.6875 1.265625 -1.078125q0.828125 -0.375 1.890625 -0.375q1.03125 0 1.875 0.34375q0.84375 0.34375 1.28125 1.03125q0.453125 0.703125 0.453125 1.546875q0 0.625 -0.265625 1.109375q-0.25 0.5 -0.671875 0.796875l3.421875 0l0 1.171875l-9.546875 0l0 -1.09375zm3.453125 -3.703125q-1.328125 0 -1.984375 0.5625q-0.65625 0.5625 -0.65625 1.328125q0 0.765625 0.625 1.296875q0.625 0.53125 1.90625 0.53125q1.421875 0 2.078125 -0.546875q0.671875 -0.546875 0.671875 -1.34375q0 -0.78125 -0.640625 -1.3125q-0.625 -0.515625 -2.0 -0.515625zm-3.453125 11.115601l0.875 0q-1.03125 -0.65625 -1.03125 -1.9375q0 -0.8125 0.453125 -1.515625q0.453125 -0.6875 1.265625 -1.078125q0.828125 -0.375 1.890625 -0.375q1.03125 0 1.875 0.34375q0.84375 0.34375 1.28125 1.03125q0.453125 0.703125 0.453125 1.546875q0 0.625 -0.265625 1.109375q-0.25 0.5 -0.671875 0.796875l3.421875 0l0 1.171875l-9.546875 0l0 -1.09375zm3.453125 -3.703125q-1.328125 0 -1.984375 0.5625q-0.65625 0.5625 -0.65625 1.328125q0 0.765625 0.625 1.296875q0.625 0.53125 1.90625 0.53125q1.421875 0 2.078125 -0.546875q0.671875 -0.546875 0.671875 -1.34375q0 -0.78125 -0.640625 -1.3125q-0.625 -0.515625 -2.0 -0.515625zm4.734375 6.6468506l1.359375 0l0 1.171875l-1.359375 0l0 -1.171875zm-8.1875 0l6.90625 0l0 1.171875l-6.90625 0l0 -1.171875zm0 2.9454346l6.90625 0l0 1.0625l-0.984375 0q1.140625 0.75 1.140625 2.1875q0 0.625 -0.21875 1.15625q-0.21875 0.53125 -0.59375 0.78125q-0.359375 0.265625 -0.859375 0.375q-0.328125 0.0625 -1.140625 0.0625l-4.25 0l0 -1.171875l4.203125 0q0.71875 0 1.0625 -0.140625q0.359375 -0.140625 0.5625 -0.484375q0.21875 -0.34375 0.21875 -0.8125q0 -0.75 -0.46875 -1.296875q-0.46875 -0.546875 -1.796875 -0.546875l-3.78125 0l0 -1.171875zm-0.578125 7.1937256l-0.15625 1.140625q-0.53125 0.078125 -0.78125 0.40625q-0.3125 0.4375 -0.3125 1.1875q0 0.8125 0.328125 1.25q0.3125 0.453125 0.90625 0.609375q0.359375 0.09375 1.5 0.078125q-0.90625 -0.765625 -0.90625 -1.90625q0 -1.4375 1.03125 -2.21875q1.03125 -0.78125 2.46875 -0.78125q0.984375 0 1.8125 0.359375q0.84375 0.359375 1.296875 1.03125q0.453125 0.6875 0.453125 1.609375q0 1.21875 -0.984375 2.015625l0.828125 0l0 1.078125l-5.96875 0q-1.609375 0 -2.28125 -0.328125q-0.6875 -0.328125 -1.078125 -1.046875q-0.390625 -0.703125 -0.390625 -1.75q0 -1.234375 0.5625 -2.0q0.5625 -0.75 1.671875 -0.734375zm4.15625 0.984375q-1.359375 0 -1.984375 0.53125q-0.625 0.546875 -0.625 1.359375q0 0.796875 0.625 1.34375q0.625 0.546875 1.953125 0.546875q1.265625 0 1.90625 -0.5625q0.640625 -0.5625 0.640625 -1.359375q0 -0.765625 -0.640625 -1.3125q-0.625 -0.546875 -1.875 -0.546875zm-3.578125 6.7406006l9.546875 0l0 3.59375q0 1.09375 -0.296875 1.75q-0.28125 0.65625 -0.890625 1.03125q-0.609375 0.375 -1.265625 0.375q-0.609375 0 -1.15625 -0.34375q-0.53125 -0.328125 -0.859375 -0.984375q-0.25 0.859375 -0.875 1.328125q-0.609375 0.46875 -1.4375 0.46875q-0.671875 0 -1.25 -0.296875q-0.578125 -0.28125 -0.890625 -0.703125q-0.3125 -0.40625 -0.46875 -1.03125q-0.15625 -0.625 -0.15625 -1.546875l0 -3.640625zm5.53125 1.265625l0 2.0625q0 0.84375 0.109375 1.203125q0.140625 0.484375 0.46875 0.71875q0.34375 0.25 0.84375 0.25q0.46875 0 0.828125 -0.234375q0.359375 -0.21875 0.5 -0.640625q0.140625 -0.421875 0.140625 -1.453125l0 -1.90625l-2.890625 0zm-4.40625 0l0 2.375q0 0.609375 0.046875 0.859375q0.078125 0.4375 0.25 0.734375q0.1875 0.296875 0.53125 0.484375q0.359375 0.1875 0.8125 0.1875q0.53125 0 0.921875 -0.28125q0.40625 -0.265625 0.5625 -0.75q0.15625 -0.484375 0.15625 -1.40625l0 -2.203125l-3.28125 0zm2.328125 7.0928955q1.921875 0 2.84375 1.078125q0.765625 0.890625 0.765625 2.171875q0 1.421875 -0.9375 2.328125q-0.921875 0.90625 -2.578125 0.90625q-1.328125 0 -2.09375 -0.40625q-0.765625 -0.390625 -1.1875 -1.15625q-0.421875 -0.765625 -0.421875 -1.671875q0 -1.453125 0.921875 -2.359375q0.9375 -0.890625 2.6875 -0.890625zm0 1.203125q-1.328125 0 -1.984375 0.578125q-0.65625 0.59375 -0.65625 1.46875q0 0.875 0.65625 1.453125q0.671875 0.578125 2.03125 0.578125q1.28125 0 1.9375 -0.59375q0.65625 -0.578125 0.65625 -1.4375q0 -0.875 -0.65625 -1.46875q-0.65625 -0.578125 -1.984375 -0.578125zm-3.453125 11.131226l0.875 0q-1.03125 -0.65625 -1.03125 -1.9375q0 -0.8125 0.453125 -1.515625q0.453125 -0.6875 1.265625 -1.078125q0.828125 -0.375 1.890625 -0.375q1.03125 0 1.875 0.34375q0.84375 0.34375 1.28125 1.03125q0.453125 0.703125 0.453125 1.546875q0 0.625 -0.265625 1.109375q-0.25 0.5 -0.671875 0.796875l3.421875 0l0 1.171875l-9.546875 0l0 -1.09375zm3.453125 -3.703125q-1.328125 0 -1.984375 0.5625q-0.65625 0.5625 -0.65625 1.328125q0 0.765625 0.625 1.296875q0.625 0.53125 1.90625 0.53125q1.421875 0 2.078125 -0.546875q0.671875 -0.546875 0.671875 -1.34375q0 -0.78125 -0.640625 -1.3125q-0.625 -0.515625 -2.0 -0.515625zm-6.109375 6.5843506l1.09375 -0.125q-0.109375 0.375 -0.109375 0.65625q0 0.390625 0.140625 0.625q0.125 0.234375 0.359375 0.390625q0.171875 0.109375 0.875 0.359375q0.09375 0.03125 0.28125 0.109375l6.921875 -2.625l0 1.265625l-4.0 1.4375q-0.765625 0.28125 -1.59375 0.5q0.796875 0.203125 1.578125 0.46875l4.015625 1.484375l0 1.171875l-7.015625 -2.625q-1.140625 -0.421875 -1.578125 -0.65625q-0.578125 -0.3125 -0.84375 -0.71875q-0.28125 -0.40625 -0.28125 -0.96875q0 -0.328125 0.15625 -0.75z" fill-rule="nonzero"/><path fill="#000000" fill-opacity="0.0" d="m167.92126 168.07874l0 104.0l-51.275597 0l0 -104.0z" fill-rule="evenodd"/><path fill="#000000" d="m134.82721 177.95374l9.5625 0l0 1.078125l-0.890625 0q0.53125 0.375 0.78125 0.84375q0.265625 0.484375 0.265625 1.15625q0 0.875 -0.453125 1.546875q-0.453125 0.6875 -1.28125 1.03125q-0.828125 0.34375 -1.828125 0.34375q-1.046875 0 -1.90625 -0.375q-0.84375 -0.375 -1.296875 -1.109375q-0.453125 -0.71875 -0.453125 -1.53125q0 -0.578125 0.25 -1.046875q0.25 -0.46875 0.625 -0.765625l-3.375 0l0 -1.171875zm6.078125 1.0625q-1.34375 0 -1.984375 0.53125q-0.625 0.546875 -0.625 1.3125q0 0.78125 0.65625 1.34375q0.65625 0.5625 2.046875 0.5625q1.3125 0 1.96875 -0.546875q0.671875 -0.546875 0.671875 -1.296875q0 -0.75 -0.703125 -1.328125q-0.703125 -0.578125 -2.03125 -0.578125zm-2.5625 10.865601q-0.5625 -0.65625 -0.796875 -1.265625q-0.21875 -0.59375 -0.21875 -1.28125q0 -1.140625 0.546875 -1.75q0.5625 -0.609375 1.4375 -0.609375q0.5 0 0.921875 0.21875q0.421875 0.234375 0.671875 0.609375q0.25 0.375 0.390625 0.84375q0.078125 0.34375 0.171875 1.046875q0.171875 1.421875 0.40625 2.09375q0.234375 0 0.296875 0q0.71875 0 1.015625 -0.328125q0.390625 -0.453125 0.390625 -1.34375q0 -0.8125 -0.296875 -1.21875q-0.28125 -0.390625 -1.015625 -0.578125l0.15625 -1.140625q0.734375 0.15625 1.1875 0.515625q0.453125 0.359375 0.6875 1.03125q0.25 0.671875 0.25 1.5625q0 0.890625 -0.203125 1.4375q-0.203125 0.5625 -0.53125 0.8125q-0.3125 0.265625 -0.796875 0.375q-0.296875 0.046875 -1.078125 0.046875l-1.5625 0q-1.625 0 -2.0625 0.078125q-0.4375 0.078125 -0.828125 0.296875l0 -1.21875q0.359375 -0.1875 0.859375 -0.234375zm2.609375 -0.09375q-0.265625 -0.640625 -0.4375 -1.921875q-0.109375 -0.71875 -0.25 -1.015625q-0.125 -0.296875 -0.375 -0.46875q-0.25 -0.15625 -0.546875 -0.15625q-0.46875 0 -0.78125 0.34375q-0.3125 0.359375 -0.3125 1.046875q0 0.671875 0.296875 1.203125q0.296875 0.53125 0.8125 0.78125q0.390625 0.1875 1.171875 0.1875l0.421875 0zm-3.46875 7.4749756l0.875 0q-1.03125 -0.65625 -1.03125 -1.9375q0 -0.8125 0.453125 -1.515625q0.453125 -0.6875 1.265625 -1.078125q0.828125 -0.375 1.890625 -0.375q1.03125 0 1.875 0.34375q0.84375 0.34375 1.28125 1.03125q0.453125 0.703125 0.453125 1.546875q0 0.625 -0.265625 1.109375q-0.25 0.5 -0.671875 0.796875l3.421875 0l0 1.171875l-9.546875 0l0 -1.09375zm3.453125 -3.703125q-1.328125 0 -1.984375 0.5625q-0.65625 0.5625 -0.65625 1.328125q0 0.765625 0.625 1.296875q0.625 0.53125 1.90625 0.53125q1.421875 0 2.078125 -0.546875q0.671875 -0.546875 0.671875 -1.34375q0 -0.78125 -0.640625 -1.3125q-0.625 -0.515625 -2.0 -0.515625zm-3.453125 11.115601l0.875 0q-1.03125 -0.65625 -1.03125 -1.9375q0 -0.8125 0.453125 -1.515625q0.453125 -0.6875 1.265625 -1.078125q0.828125 -0.375 1.890625 -0.375q1.03125 0 1.875 0.34375q0.84375 0.34375 1.28125 1.03125q0.453125 0.703125 0.453125 1.546875q0 0.625 -0.265625 1.109375q-0.25 0.5 -0.671875 0.796875l3.421875 0l0 1.171875l-9.546875 0l0 -1.09375zm3.453125 -3.703125q-1.328125 0 -1.984375 0.5625q-0.65625 0.5625 -0.65625 1.328125q0 0.765625 0.625 1.296875q0.625 0.53125 1.90625 0.53125q1.421875 0 2.078125 -0.546875q0.671875 -0.546875 0.671875 -1.34375q0 -0.78125 -0.640625 -1.3125q-0.625 -0.515625 -2.0 -0.515625zm4.734375 6.6468506l1.359375 0l0 1.171875l-1.359375 0l0 -1.171875zm-8.1875 0l6.90625 0l0 1.171875l-6.90625 0l0 -1.171875zm0 2.945465l6.90625 0l0 1.0625l-0.984375 0q1.140625 0.75 1.140625 2.1875q0 0.625 -0.21875 1.15625q-0.21875 0.53125 -0.59375 0.78125q-0.359375 0.265625 -0.859375 0.375q-0.328125 0.0625 -1.140625 0.0625l-4.25 0l0 -1.171875l4.203125 0q0.71875 0 1.0625 -0.140625q0.359375 -0.140625 0.5625 -0.484375q0.21875 -0.34375 0.21875 -0.8125q0 -0.75 -0.46875 -1.296875q-0.46875 -0.546875 -1.796875 -0.546875l-3.78125 0l0 -1.171875zm-0.578125 7.1937256l-0.15625 1.140625q-0.53125 0.078125 -0.78125 0.40625q-0.3125 0.4375 -0.3125 1.1875q0 0.8125 0.328125 1.25q0.3125 0.453125 0.90625 0.609375q0.359375 0.09375 1.5 0.078125q-0.90625 -0.765625 -0.90625 -1.90625q0 -1.4375 1.03125 -2.21875q1.03125 -0.78125 2.46875 -0.78125q0.984375 0 1.8125 0.359375q0.84375 0.359375 1.296875 1.03125q0.453125 0.6875 0.453125 1.609375q0 1.21875 -0.984375 2.015625l0.828125 0l0 1.078125l-5.96875 0q-1.609375 0 -2.28125 -0.328125q-0.6875 -0.328125 -1.078125 -1.046875q-0.390625 -0.703125 -0.390625 -1.75q0 -1.234375 0.5625 -2.0q0.5625 -0.75 1.671875 -0.734375zm4.15625 0.984375q-1.359375 0 -1.984375 0.53125q-0.625 0.546875 -0.625 1.359375q0 0.796875 0.625 1.34375q0.625 0.546875 1.953125 0.546875q1.265625 0 1.90625 -0.5625q0.640625 -0.5625 0.640625 -1.359375q0 -0.765625 -0.640625 -1.3125q-0.625 -0.546875 -1.875 -0.546875zm-3.578125 6.8343506l9.546875 0l0 1.265625l-3.921875 0l0 4.953125l3.921875 0l0 1.265625l-9.546875 0l0 -1.265625l4.5 0l0 -4.953125l-4.5 0l0 -1.265625zm2.21875 14.172028l-0.140625 1.203125q-1.0625 -0.28125 -1.65625 -1.0625q-0.578125 -0.765625 -0.578125 -1.96875q0 -1.515625 0.9375 -2.40625q0.9375 -0.890625 2.609375 -0.890625q1.75 0 2.703125 0.890625q0.96875 0.90625 0.96875 2.34375q0 1.390625 -0.9375 2.265625q-0.9375 0.875 -2.65625 0.875q-0.109375 0 -0.3125 0l0 -5.15625q-1.140625 0.0625 -1.75 0.640625q-0.59375 0.578125 -0.59375 1.4375q0 0.65625 0.328125 1.109375q0.34375 0.453125 1.078125 0.71875zm1.90625 -3.84375l0 3.859375q0.859375 -0.078125 1.296875 -0.4375q0.6875 -0.5625 0.6875 -1.453125q0 -0.8125 -0.546875 -1.359375q-0.53125 -0.546875 -1.4375 -0.609375zm-3.265625 11.037476q-0.5625 -0.65625 -0.796875 -1.265625q-0.21875 -0.59375 -0.21875 -1.28125q0 -1.140625 0.546875 -1.75q0.5625 -0.609375 1.4375 -0.609375q0.5 0 0.921875 0.21875q0.421875 0.234375 0.671875 0.609375q0.25 0.375 0.390625 0.84375q0.078125 0.34375 0.171875 1.046875q0.171875 1.421875 0.40625 2.09375q0.234375 0 0.296875 0q0.71875 0 1.015625 -0.328125q0.390625 -0.453125 0.390625 -1.34375q0 -0.8125 -0.296875 -1.21875q-0.28125 -0.390625 -1.015625 -0.578125l0.15625 -1.140625q0.734375 0.15625 1.1875 0.515625q0.453125 0.359375 0.6875 1.03125q0.25 0.671875 0.25 1.5625q0 0.890625 -0.203125 1.4375q-0.203125 0.5625 -0.53125 0.8125q-0.3125 0.265625 -0.796875 0.375q-0.296875 0.046875 -1.078125 0.046875l-1.5625 0q-1.625 0 -2.0625 0.078125q-0.4375 0.078125 -0.828125 0.296875l0 -1.21875q0.359375 -0.1875 0.859375 -0.234375zm2.609375 -0.09375q-0.265625 -0.640625 -0.4375 -1.921875q-0.109375 -0.71875 -0.25 -1.015625q-0.125 -0.296875 -0.375 -0.46875q-0.25 -0.15625 -0.546875 -0.15625q-0.46875 0 -0.78125 0.34375q-0.3125 0.359375 -0.3125 1.046875q0 0.671875 0.296875 1.203125q0.296875 0.53125 0.8125 0.78125q0.390625 0.1875 1.171875 0.1875l0.421875 0zm-3.46875 7.4749756l0.875 0q-1.03125 -0.65625 -1.03125 -1.9375q0 -0.8125 0.453125 -1.515625q0.453125 -0.6875 1.265625 -1.078125q0.828125 -0.375 1.890625 -0.375q1.03125 0 1.875 0.34375q0.84375 0.34375 1.28125 1.03125q0.453125 0.703125 0.453125 1.546875q0 0.625 -0.265625 1.109375q-0.25 0.5 -0.671875 0.796875l3.421875 0l0 1.171875l-9.546875 0l0 -1.09375zm3.453125 -3.703125q-1.328125 0 -1.984375 0.5625q-0.65625 0.5625 -0.65625 1.328125q0 0.765625 0.625 1.296875q0.625 0.53125 1.90625 0.53125q1.421875 0 2.078125 -0.546875q0.671875 -0.546875 0.671875 -1.34375q0 -0.78125 -0.640625 -1.3125q-0.625 -0.515625 -2.0 -0.515625z" fill-rule="nonzero"/><path fill="#000000" fill-opacity="0.0" d="m631.92126 384.07874l0 100.0l-32.0 0l0 -100.0z" fill-rule="evenodd"/><path fill="#000000" d="m611.1213 403.7531l6.0 0l0 -1.03125l0.90625 0l0 1.03125l0.734375 0q0.703125 0 1.046875 0.125q0.453125 0.171875 0.734375 0.59375q0.28125 0.421875 0.28125 1.203125q0 0.484375 -0.109375 1.09375l-1.03125 -0.1875q0.0625 -0.359375 0.0625 -0.6875q0 -0.53125 -0.234375 -0.75q-0.21875 -0.21875 -0.84375 -0.21875l-0.640625 0l0 1.34375l-0.90625 0l0 -1.34375l-6.0 0l0 -1.171875zm0 3.406128l6.90625 0l0 1.0625l-1.046875 0q0.734375 0.40625 0.96875 0.734375q0.234375 0.34375 0.234375 0.765625q0 0.59375 -0.375 1.203125l-1.078125 -0.40625q0.25 -0.4375 0.25 -0.859375q0 -0.390625 -0.234375 -0.703125q-0.234375 -0.296875 -0.640625 -0.421875q-0.625 -0.203125 -1.359375 -0.203125l-3.625 0l0 -1.171875zm2.21875 9.1883545l-0.140625 1.203125q-1.0625 -0.28125 -1.65625 -1.0625q-0.578125 -0.765625 -0.578125 -1.96875q0 -1.515625 0.9375 -2.40625q0.9375 -0.890625 2.609375 -0.890625q1.75 0 2.703125 0.890625q0.96875 0.90625 0.96875 2.34375q0 1.390625 -0.9375 2.265625q-0.9375 0.875 -2.65625 0.875q-0.109375 0 -0.3125 0l0 -5.15625q-1.140625 0.0625 -1.75 0.640625q-0.59375 0.578125 -0.59375 1.4375q0 0.65625 0.328125 1.109375q0.34375 0.453125 1.078125 0.71875zm1.90625 -3.84375l0 3.859375q0.859375 -0.078125 1.296875 -0.4375q0.6875 -0.5625 0.6875 -1.453125q0 -0.8125 -0.546875 -1.359375q-0.53125 -0.546875 -1.4375 -0.609375zm-3.078125 9.084351l-1.03125 0.171875q-0.109375 -0.5 -0.109375 -0.890625q0 -0.640625 0.203125 -1.0q0.203125 -0.34375 0.53125 -0.484375q0.328125 -0.140625 1.390625 -0.140625l3.96875 0l0 -0.859375l0.90625 0l0 0.859375l1.71875 0l0.703125 1.171875l-2.421875 0l0 1.171875l-0.90625 0l0 -1.171875l-4.046875 0q-0.5 0 -0.640625 0.046875q-0.140625 0.0625 -0.234375 0.203125q-0.078125 0.140625 -0.078125 0.40625q0 0.203125 0.046875 0.515625zm-1.046875 1.5155029l9.546875 0l0 1.25l-9.546875 0l0 -1.25zm0 3.3279724l6.90625 0l0 1.0625l-0.984375 0q1.140625 0.75 1.140625 2.1875q0 0.625 -0.21875 1.15625q-0.21875 0.53125 -0.59375 0.78125q-0.359375 0.265625 -0.859375 0.375q-0.328125 0.0625 -1.140625 0.0625l-4.25 0l0 -1.171875l4.203125 0q0.71875 0 1.0625 -0.140625q0.359375 -0.140625 0.5625 -0.484375q0.21875 -0.34375 0.21875 -0.8125q0 -0.75 -0.46875 -1.296875q-0.46875 -0.546875 -1.796875 -0.546875l-3.78125 0l0 -1.171875zm1.046875 9.974976l-1.03125 0.171875q-0.109375 -0.5 -0.109375 -0.890625q0 -0.640625 0.203125 -1.0q0.203125 -0.34375 0.53125 -0.484375q0.328125 -0.140625 1.390625 -0.140625l3.96875 0l0 -0.859375l0.90625 0l0 0.859375l1.71875 0l0.703125 1.171875l-2.421875 0l0 1.171875l-0.90625 0l0 -1.171875l-4.046875 0q-0.5 0 -0.640625 0.046875q-0.140625 0.0625 -0.234375 0.203125q-0.078125 0.140625 -0.078125 0.40625q0 0.203125 0.046875 0.515625zm1.171875 5.874878l-0.140625 1.203125q-1.0625 -0.28125 -1.65625 -1.0625q-0.578125 -0.765625 -0.578125 -1.96875q0 -1.515625 0.9375 -2.40625q0.9375 -0.890625 2.609375 -0.890625q1.75 0 2.703125 0.890625q0.96875 0.90625 0.96875 2.34375q0 1.390625 -0.9375 2.265625q-0.9375 0.875 -2.65625 0.875q-0.109375 0 -0.3125 0l0 -5.15625q-1.140625 0.0625 -1.75 0.640625q-0.59375 0.578125 -0.59375 1.4375q0 0.65625 0.328125 1.109375q0.34375 0.453125 1.078125 0.71875zm1.90625 -3.84375l0 3.859375q0.859375 -0.078125 1.296875 -0.4375q0.6875 -0.5625 0.6875 -1.453125q0 -0.8125 -0.546875 -1.359375q-0.53125 -0.546875 -1.4375 -0.609375zm-4.125 6.5062256l6.90625 0l0 1.0625l-1.046875 0q0.734375 0.40625 0.96875 0.734375q0.234375 0.34375 0.234375 0.765625q0 0.59375 -0.375 1.203125l-1.078125 -0.40625q0.25 -0.4375 0.25 -0.859375q0 -0.390625 -0.234375 -0.703125q-0.234375 -0.296875 -0.640625 -0.421875q-0.625 -0.203125 -1.359375 -0.203125l-3.625 0l0 -1.171875zm0 6.3758545l6.90625 -2.625l0 1.234375l-4.140625 1.484375q-0.65625 0.234375 -1.390625 0.4375q0.546875 0.15625 1.3125 0.4375l4.21875 1.53125l0 1.21875l-6.90625 -2.625l0 -1.09375zm0.859375 9.2578125q-0.5625 -0.65625 -0.796875 -1.265625q-0.21875 -0.59375 -0.21875 -1.28125q0 -1.140625 0.546875 -1.75q0.5625 -0.609375 1.4375 -0.609375q0.5 0 0.921875 0.21875q0.421875 0.234375 0.671875 0.609375q0.25 0.375 0.390625 0.84375q0.078125 0.34375 0.171875 1.046875q0.171875 1.421875 0.40625 2.09375q0.234375 0 0.296875 0q0.71875 0 1.015625 -0.328125q0.390625 -0.453125 0.390625 -1.34375q0 -0.8125 -0.296875 -1.21875q-0.28125 -0.390625 -1.015625 -0.578125l0.15625 -1.140625q0.734375 0.15625 1.1875 0.515625q0.453125 0.359375 0.6875 1.03125q0.25 0.671875 0.25 1.5625q0 0.890625 -0.203125 1.4375q-0.203125 0.5625 -0.53125 0.8125q-0.3125 0.265625 -0.796875 0.375q-0.296875 0.046875 -1.078125 0.046875l-1.5625 0q-1.625 0 -2.0625 0.078125q-0.4375 0.078125 -0.828125 0.296875l0 -1.21875q0.359375 -0.1875 0.859375 -0.234375zm2.609375 -0.09375q-0.265625 -0.640625 -0.4375 -1.921875q-0.109375 -0.71875 -0.25 -1.015625q-0.125 -0.296875 -0.375 -0.46875q-0.25 -0.15625 -0.546875 -0.15625q-0.46875 0 -0.78125 0.34375q-0.3125 0.359375 -0.3125 1.046875q0 0.671875 0.296875 1.203125q0.296875 0.53125 0.8125 0.78125q0.390625 0.1875 1.171875 0.1875l0.421875 0zm-3.46875 2.9749756l9.546875 0l0 1.171875l-9.546875 0l0 -1.171875z" fill-rule="nonzero"/><path fill="#000000" fill-opacity="0.0" d="m103.92126 168.07874l0 560.0l-39.999996 0l0 -560.0z" fill-rule="evenodd"/><path fill="#000000" d="m78.84126 429.04996l10.484375 0l0 1.28125l-10.484375 0l0 -1.28125zm2.453125 8.490509l-0.171875 1.328125q-1.171875 -0.3125 -1.8125 -1.171875q-0.640625 -0.84375 -0.640625 -2.171875q0 -1.671875 1.015625 -2.65625q1.03125 -0.96875 2.890625 -0.96875q1.921875 0 2.96875 0.984375q1.0625 1.0 1.0625 2.578125q0 1.515625 -1.03125 2.484375q-1.03125 0.96875 -2.921875 0.96875q-0.109375 0 -0.34375 -0.015625l0 -5.65625q-1.25 0.0625 -1.921875 0.703125q-0.65625 0.640625 -0.65625 1.59375q0 0.703125 0.359375 1.203125q0.375 0.5 1.203125 0.796875zm2.078125 -4.234375l0 4.25q0.953125 -0.09375 1.4375 -0.484375q0.75 -0.625 0.75 -1.609375q0 -0.875 -0.59375 -1.484375q-0.59375 -0.609375 -1.59375 -0.671875zm-4.53125 7.182373l7.59375 0l0 1.15625l-1.078125 0q1.25 0.84375 1.25 2.421875q0 0.6875 -0.25 1.265625q-0.234375 0.578125 -0.640625 0.859375q-0.40625 0.28125 -0.953125 0.40625q-0.359375 0.0625 -1.25 0.0625l-4.671875 0l0 -1.28125l4.625 0q0.78125 0 1.171875 -0.15625q0.390625 -0.15625 0.625 -0.546875q0.234375 -0.375 0.234375 -0.890625q0 -0.8125 -0.53125 -1.421875q-0.515625 -0.59375 -1.96875 -0.59375l-4.15625 0l0 -1.28125zm-0.625 7.916748l-0.1875 1.25q-0.578125 0.078125 -0.84375 0.4375q-0.359375 0.46875 -0.359375 1.3125q0 0.890625 0.359375 1.375q0.359375 0.484375 1.0 0.65625q0.390625 0.109375 1.65625 0.09375q-1.0 -0.84375 -1.0 -2.109375q0 -1.5625 1.125 -2.421875q1.140625 -0.859375 2.71875 -0.859375q1.09375 0 2.0 0.390625q0.921875 0.40625 1.421875 1.140625q0.5 0.75 0.5 1.765625q0 1.34375 -1.078125 2.21875l0.90625 0l0 1.1875l-6.5625 0q-1.78125 0 -2.515625 -0.359375q-0.734375 -0.359375 -1.15625 -1.15625q-0.4375 -0.78125 -0.4375 -1.921875q0 -1.359375 0.609375 -2.203125q0.609375 -0.828125 1.84375 -0.796875zm4.5625 1.0625q-1.5 0 -2.1875 0.59375q-0.6875 0.59375 -0.6875 1.484375q0 0.890625 0.6875 1.484375q0.6875 0.609375 2.140625 0.609375q1.390625 0 2.09375 -0.625q0.71875 -0.609375 0.71875 -1.484375q0 -0.859375 -0.703125 -1.46875q-0.6875 -0.59375 -2.0625 -0.59375zm-2.78125 10.135468l-1.140625 0.1875q-0.109375 -0.546875 -0.109375 -0.984375q0 -0.6875 0.21875 -1.078125q0.21875 -0.390625 0.578125 -0.546875q0.359375 -0.15625 1.515625 -0.15625l4.375 0l0 -0.953125l1.0 0l0 0.953125l1.890625 0l0.765625 1.28125l-2.65625 0l0 1.296875l-1.0 0l0 -1.296875l-4.4375 0q-0.546875 0 -0.71875 0.0625q-0.15625 0.078125 -0.25 0.21875q-0.078125 0.15625 -0.078125 0.453125q0 0.203125 0.046875 0.5625zm-1.15625 1.259491l10.484375 0l0 1.28125l-3.75 0q1.03125 0.90625 1.03125 2.28125q0 0.84375 -0.328125 1.46875q-0.328125 0.625 -0.921875 0.890625q-0.578125 0.265625 -1.703125 0.265625l-4.8125 0l0 -1.28125l4.8125 0q0.96875 0 1.40625 -0.421875q0.4375 -0.421875 0.4375 -1.1875q0 -0.578125 -0.296875 -1.078125q-0.296875 -0.5 -0.8125 -0.71875q-0.5 -0.21875 -1.390625 -0.21875l-4.15625 0l0 -1.28125z" fill-rule="nonzero"/><path fill="#000000" fill-opacity="0.0" d="m567.92126 88.07874l-368.0 0" fill-rule="evenodd"/><path stroke="#000000" stroke-width="1.0" stroke-linejoin="round" stroke-linecap="butt" d="m561.92126 88.07874l-356.0 0" fill-rule="evenodd"/><path fill="#000000" stroke="#000000" stroke-width="1.0" stroke-linecap="butt" d="m561.92126 89.73048l4.538086 -1.6517334l-4.538086 -1.6517334z" fill-rule="evenodd"/><path fill="#000000" stroke="#000000" stroke-width="1.0" stroke-linecap="butt" d="m205.92126 86.42701l-4.538101 1.6517334l4.538101 1.6517334z" fill-rule="evenodd"/><path fill="#000000" fill-opacity="0.0" d="m199.92126 56.07874l368.0 0l0 32.000004l-368.0 0z" fill-rule="evenodd"/><path fill="#000000" d="m369.18896 77.15874l-2.328125 -7.59375l1.328125 0l1.203125 4.375l0.453125 1.640625q0.03125 -0.125 0.390625 -1.578125l1.21875 -4.4375l1.328125 0l1.125 4.40625l0.390625 1.453125l0.4375 -1.46875l1.296875 -4.390625l1.25 0l-2.375 7.59375l-1.34375 0l-1.203125 -4.546875l-0.296875 -1.296875l-1.53125 5.84375l-1.34375 0zm9.178009 -9.015625l0 -1.46875l1.296875 0l0 1.46875l-1.296875 0zm0 9.015625l0 -7.59375l1.296875 0l0 7.59375l-1.296875 0zm8.17804 0l0 -0.953125q-0.71875 1.125 -2.125 1.125q-0.90625 0 -1.671875 -0.5q-0.75 -0.5 -1.171875 -1.390625q-0.421875 -0.90625 -0.421875 -2.078125q0 -1.140625 0.375 -2.0625q0.390625 -0.921875 1.140625 -1.40625q0.765625 -0.5 1.703125 -0.5q0.6875 0 1.21875 0.296875q0.53125 0.28125 0.875 0.734375l0 -3.75l1.28125 0l0 10.484375l-1.203125 0zm-4.0625 -3.796875q0 1.46875 0.609375 2.1875q0.625 0.71875 1.453125 0.71875q0.84375 0 1.4375 -0.6875q0.59375 -0.6875 0.59375 -2.109375q0 -1.5625 -0.609375 -2.28125q-0.59375 -0.734375 -1.484375 -0.734375q-0.84375 0 -1.421875 0.703125q-0.578125 0.703125 -0.578125 2.203125zm10.104218 2.640625l0.1875 1.140625q-0.546875 0.109375 -0.984375 0.109375q-0.6875 0 -1.078125 -0.21875q-0.390625 -0.21875 -0.546875 -0.578125q-0.15625 -0.359375 -0.15625 -1.515625l0 -4.375l-0.953125 0l0 -1.0l0.953125 0l0 -1.890625l1.28125 -0.765625l0 2.65625l1.296875 0l0 1.0l-1.296875 0l0 4.4375q0 0.546875 0.0625 0.71875q0.078125 0.15625 0.21875 0.25q0.15625 0.078125 0.453125 0.078125q0.203125 0 0.5625 -0.046875zm1.259491 1.15625l0 -10.484375l1.28125 0l0 3.75q0.90625 -1.03125 2.28125 -1.03125q0.84375 0 1.46875 0.328125q0.625 0.328125 0.890625 0.921875q0.265625 0.578125 0.265625 1.703125l0 4.8125l-1.28125 0l0 -4.8125q0 -0.96875 -0.421875 -1.40625q-0.421875 -0.4375 -1.1875 -0.4375q-0.578125 0 -1.078125 0.296875q-0.5 0.296875 -0.71875 0.8125q-0.21875 0.5 -0.21875 1.390625l0 4.15625l-1.28125 0z" fill-rule="nonzero"/><path fill="#000000" fill-opacity="0.0" d="m639.92126 232.07874l-120.0 0" fill-rule="evenodd"/><path stroke="#000000" stroke-width="1.0" stroke-linejoin="round" stroke-linecap="butt" stroke-dasharray="4.0,3.0" d="m639.92126 232.07874l-120.0 0" fill-rule="evenodd"/><path fill="#000000" fill-opacity="0.0" d="m602.0079 272.07874l-122.078735 0" fill-rule="evenodd"/><path stroke="#000000" stroke-width="1.0" stroke-linejoin="round" stroke-linecap="butt" stroke-dasharray="4.0,3.0" d="m602.0079 272.07874l-122.078735 0" fill-rule="evenodd"/><path fill="#000000" fill-opacity="0.0" d="m608.0945 200.07874l-80.15747 0" fill-rule="evenodd"/><path stroke="#000000" stroke-width="1.0" stroke-linejoin="round" stroke-linecap="butt" stroke-dasharray="4.0,3.0" d="m608.0945 200.07874l-80.15747 0" fill-rule="evenodd"/><path fill="#000000" fill-opacity="0.0" d="m599.92126 200.07874l0 32.0" fill-rule="evenodd"/><path stroke="#000000" stroke-width="1.0" stroke-linejoin="round" stroke-linecap="butt" d="m599.92126 206.07874l0 26.0" fill-rule="evenodd"/><path fill="#000000" stroke="#000000" stroke-width="1.0" stroke-linecap="butt" d="m601.573 206.07874l-1.6517334 -4.538086l-1.6517334 4.538086z" fill-rule="evenodd"/><path fill="#000000" fill-opacity="0.0" d="m591.92126 272.07874l-0.5354614 -38.425186" fill-rule="evenodd"/><path stroke="#000000" stroke-width="1.0" stroke-linejoin="round" stroke-linecap="butt" d="m591.8377 266.0793l-0.4519043 -32.425766" fill-rule="evenodd"/><path fill="#000000" stroke="#000000" stroke-width="1.0" stroke-linecap="butt" d="m590.1861 266.10233l1.7147827 4.5146484l1.5883789 -4.560669z" fill-rule="evenodd"/><path fill="#000000" fill-opacity="0.0" d="m631.92126 232.07874l0 80.0l-40.0 0l0 -80.0z" fill-rule="evenodd"/><path fill="#000000" d="m607.1213 246.43811l0.875 0q-1.03125 -0.65625 -1.03125 -1.9375q0 -0.8125 0.453125 -1.515625q0.453125 -0.6875 1.265625 -1.078125q0.828125 -0.375 1.890625 -0.375q1.03125 0 1.875 0.34375q0.84375 0.34375 1.28125 1.03125q0.453125 0.703125 0.453125 1.546875q0 0.625 -0.265625 1.109375q-0.25 0.5 -0.671875 0.796875l3.421875 0l0 1.171875l-9.546875 0l0 -1.09375zm3.453125 -3.703125q-1.328125 0 -1.984375 0.5625q-0.65625 0.5625 -0.65625 1.328125q0 0.765625 0.625 1.296875q0.625 0.53125 1.90625 0.53125q1.421875 0 2.078125 -0.546875q0.671875 -0.546875 0.671875 -1.34375q0 -0.78125 -0.640625 -1.3125q-0.625 -0.515625 -2.0 -0.515625zm0 6.1937256q1.921875 0 2.84375 1.078125q0.765625 0.890625 0.765625 2.171875q0 1.421875 -0.9375 2.328125q-0.921875 0.90625 -2.578125 0.90625q-1.328125 0 -2.09375 -0.40625q-0.765625 -0.390625 -1.1875 -1.15625q-0.421875 -0.765625 -0.421875 -1.671875q0 -1.453125 0.921875 -2.359375q0.9375 -0.890625 2.6875 -0.890625zm0 1.203125q-1.328125 0 -1.984375 0.578125q-0.65625 0.59375 -0.65625 1.46875q0 0.875 0.65625 1.453125q0.671875 0.578125 2.03125 0.578125q1.28125 0 1.9375 -0.59375q0.65625 -0.578125 0.65625 -1.4375q0 -0.875 -0.65625 -1.46875q-0.65625 -0.578125 -1.984375 -0.578125zm-2.40625 9.209351l-1.03125 0.171875q-0.109375 -0.5 -0.109375 -0.890625q0 -0.640625 0.203125 -1.0q0.203125 -0.34375 0.53125 -0.484375q0.328125 -0.140625 1.390625 -0.140625l3.96875 0l0 -0.859375l0.90625 0l0 0.859375l1.71875 0l0.703125 1.171875l-2.421875 0l0 1.171875l-0.90625 0l0 -1.171875l-4.046875 0q-0.5 0 -0.640625 0.046875q-0.140625 0.0625 -0.234375 0.203125q-0.078125 0.140625 -0.078125 0.40625q0 0.203125 0.046875 0.515625zm-1.046875 1.5155029l9.546875 0l0 1.25l-9.546875 0l0 -1.25zm0 3.3279724l6.90625 0l0 1.0625l-0.984375 0q1.140625 0.75 1.140625 2.1875q0 0.625 -0.21875 1.15625q-0.21875 0.53125 -0.59375 0.78125q-0.359375 0.265625 -0.859375 0.375q-0.328125 0.0625 -1.140625 0.0625l-4.25 0l0 -1.171875l4.203125 0q0.71875 0 1.0625 -0.140625q0.359375 -0.140625 0.5625 -0.484375q0.21875 -0.34375 0.21875 -0.8125q0 -0.75 -0.46875 -1.296875q-0.46875 -0.546875 -1.796875 -0.546875l-3.78125 0l0 -1.171875z" fill-rule="nonzero"/><path fill="#000000" fill-opacity="0.0" d="m612.44354 472.08398l-100.5354 0" fill-rule="evenodd"/><path stroke="#000000" stroke-width="1.0" stroke-linejoin="round" stroke-linecap="butt" stroke-dasharray="4.0,3.0" d="m612.44354 472.08398l-100.5354 0" fill-rule="evenodd"/><path fill="#000000" fill-opacity="0.0" d="m639.92126 153.65355l0 80.0l-32.0 0l0 -80.0z" fill-rule="evenodd"/><path fill="#000000" d="m619.1213 190.00247l0.875 0q-1.03125 -0.65625 -1.03125 -1.9375q0 -0.8125 0.453125 -1.515625q0.453125 -0.6875 1.265625 -1.078125q0.828125 -0.375 1.890625 -0.375q1.03125 0 1.875 0.34375q0.84375 0.34375 1.28125 1.03125q0.453125 0.703125 0.453125 1.546875q0 0.625 -0.265625 1.109375q-0.25 0.5 -0.671875 0.796875l3.421875 0l0 1.171875l-9.546875 0l0 -1.09375zm3.453125 -3.703125q-1.328125 0 -1.984375 0.5625q-0.65625 0.5625 -0.65625 1.328125q0 0.765625 0.625 1.296875q0.625 0.53125 1.90625 0.53125q1.421875 0 2.078125 -0.546875q0.671875 -0.546875 0.671875 -1.34375q0 -0.78125 -0.640625 -1.3125q-0.625 -0.515625 -2.0 -0.515625zm0 6.1937256q1.921875 0 2.84375 1.078125q0.765625 0.890625 0.765625 2.171875q0 1.421875 -0.9375 2.328125q-0.921875 0.90625 -2.578125 0.90625q-1.328125 0 -2.09375 -0.40625q-0.765625 -0.390625 -1.1875 -1.15625q-0.421875 -0.765625 -0.421875 -1.671875q0 -1.453125 0.921875 -2.359375q0.9375 -0.890625 2.6875 -0.890625zm0 1.203125q-1.328125 0 -1.984375 0.578125q-0.65625 0.59375 -0.65625 1.46875q0 0.875 0.65625 1.453125q0.671875 0.578125 2.03125 0.578125q1.28125 0 1.9375 -0.59375q0.65625 -0.578125 0.65625 -1.4375q0 -0.875 -0.65625 -1.46875q-0.65625 -0.578125 -1.984375 -0.578125zm-2.40625 9.209351l-1.03125 0.171875q-0.109375 -0.5 -0.109375 -0.890625q0 -0.640625 0.203125 -1.0q0.203125 -0.34375 0.53125 -0.484375q0.328125 -0.140625 1.390625 -0.140625l3.96875 0l0 -0.859375l0.90625 0l0 0.859375l1.71875 0l0.703125 1.171875l-2.421875 0l0 1.171875l-0.90625 0l0 -1.171875l-4.046875 0q-0.5 0 -0.640625 0.046875q-0.140625 0.0625 -0.234375 0.203125q-0.078125 0.140625 -0.078125 0.40625q0 0.203125 0.046875 0.515625zm3.59375 0.9061127q2.375 0 3.71875 1.28125q1.34375 1.28125 1.34375 3.296875q0 1.3125 -0.625 2.375q-0.625 1.0625 -1.765625 1.609375q-1.125 0.5625 -2.5625 0.5625q-1.4375 0 -2.59375 -0.59375q-1.140625 -0.578125 -1.734375 -1.65625q-0.578125 -1.0625 -0.578125 -2.3125q0 -1.34375 0.640625 -2.40625q0.65625 -1.0625 1.78125 -1.609375q1.125 -0.546875 2.375 -0.546875zm-0.015625 1.3125q-1.71875 0 -2.71875 0.921875q-0.984375 0.921875 -0.984375 2.328125q0 1.421875 1.0 2.34375q1.0 0.921875 2.84375 0.921875q1.15625 0 2.03125 -0.40625q0.875 -0.390625 1.34375 -1.15625q0.484375 -0.75 0.484375 -1.6875q0 -1.34375 -0.921875 -2.3125q-0.921875 -0.953125 -3.078125 -0.953125zm-4.625 13.820175l1.015625 0q-1.171875 -0.8125 -1.171875 -2.1875q0 -0.609375 0.234375 -1.140625q0.234375 -0.53125 0.578125 -0.796875q0.359375 -0.25 0.875 -0.359375q0.34375 -0.0625 1.09375 -0.0625l4.28125 0l0 1.171875l-3.828125 0q-0.921875 0 -1.234375 0.0625q-0.46875 0.109375 -0.734375 0.46875q-0.25 0.359375 -0.25 0.890625q0 0.515625 0.265625 0.984375q0.265625 0.46875 0.734375 0.65625q0.46875 0.1875 1.34375 0.1875l3.703125 0l0 1.171875l-6.90625 0l0 -1.046875zm1.046875 5.4437256l-1.03125 0.171875q-0.109375 -0.5 -0.109375 -0.890625q0 -0.640625 0.203125 -1.0q0.203125 -0.34375 0.53125 -0.484375q0.328125 -0.140625 1.390625 -0.140625l3.96875 0l0 -0.859375l0.90625 0l0 0.859375l1.71875 0l0.703125 1.171875l-2.421875 0l0 1.171875l-0.90625 0l0 -1.171875l-4.046875 0q-0.5 0 -0.640625 0.046875q-0.140625 0.0625 -0.234375 0.203125q-0.078125 0.140625 -0.078125 0.40625q0 0.203125 0.046875 0.515625z" fill-rule="nonzero"/><path fill="#000000" fill-opacity="0.0" d="m227.6798 120.46457l0 137.19684" fill-rule="evenodd"/><path stroke="#000000" stroke-width="1.0" stroke-linejoin="round" stroke-linecap="butt" stroke-dasharray="4.0,3.0" d="m227.6798 120.46457l0 137.19684" fill-rule="evenodd"/><path fill="#000000" fill-opacity="0.0" d="m264.1706 132.07874l-35.748016 -0.06298828" fill-rule="evenodd"/><path stroke="#000000" stroke-width="1.0" stroke-linejoin="round" stroke-linecap="butt" d="m258.1706 132.06818l-23.748016 -0.04185486" fill-rule="evenodd"/><path fill="#000000" stroke="#000000" stroke-width="1.0" stroke-linecap="butt" d="m258.1677 133.7199l4.5410156 -1.6437378l-4.535187 -1.6597137z" fill-rule="evenodd"/><path fill="#000000" stroke="#000000" stroke-width="1.0" stroke-linecap="butt" d="m234.42548 130.37459l-4.5410004 1.6437378l4.5351715 1.659729z" fill-rule="evenodd"/><path fill="#000000" fill-opacity="0.0" d="m264.6929 120.46457l0 104.85039" fill-rule="evenodd"/><path stroke="#000000" stroke-width="1.0" stroke-linejoin="round" stroke-linecap="butt" stroke-dasharray="4.0,3.0" d="m264.6929 120.46457l0 104.85039" fill-rule="evenodd"/><path fill="#000000" fill-opacity="0.0" d="m295.1181 84.07874l0 95.99999l-30.393707 0l0 -95.99999z" fill-rule="evenodd"/><path fill="#000000" d="m275.12125 111.38507l6.0 0l0 -1.03125l0.90625 0l0 1.03125l0.734375 0q0.703125 0 1.046875 0.125q0.453125 0.171875 0.734375 0.59375q0.28125 0.421875 0.28125 1.203125q0 0.484375 -0.109375 1.09375l-1.03125 -0.1875q0.0625 -0.359375 0.0625 -0.6875q0 -0.53125 -0.234375 -0.75q-0.21875 -0.21875 -0.84375 -0.21875l-0.640625 0l0 1.34375l-0.90625 0l0 -1.34375l-6.0 0l0 -1.171875zm0 3.4061127l6.90625 0l0 1.0625l-1.046875 0q0.734375 0.40625 0.96875 0.734375q0.234375 0.34375 0.234375 0.765625q0 0.59375 -0.375 1.203125l-1.078125 -0.40625q0.25 -0.4375 0.25 -0.859375q0 -0.390625 -0.234375 -0.703125q-0.234375 -0.296875 -0.640625 -0.421875q-0.625 -0.203125 -1.359375 -0.203125l-3.625 0l0 -1.171875zm2.21875 9.18837l-0.140625 1.203125q-1.0625 -0.28125 -1.65625 -1.0625q-0.578125 -0.765625 -0.578125 -1.96875q0 -1.515625 0.9375 -2.40625q0.9375 -0.890625 2.609375 -0.890625q1.75 0 2.703125 0.890625q0.96875 0.90625 0.96875 2.34375q0 1.390625 -0.9375 2.265625q-0.9375 0.875 -2.65625 0.875q-0.109375 0 -0.3125 0l0 -5.15625q-1.140625 0.0625 -1.75 0.640625q-0.59375 0.578125 -0.59375 1.4375q0 0.65625 0.328125 1.109375q0.34375 0.453125 1.078125 0.71875zm1.90625 -3.84375l0 3.859375q0.859375 -0.078125 1.296875 -0.4375q0.6875 -0.5625 0.6875 -1.453125q0 -0.8125 -0.546875 -1.359375q-0.53125 -0.546875 -1.4375 -0.609375zm-3.078125 9.084351l-1.03125 0.171875q-0.109375 -0.5 -0.109375 -0.890625q0 -0.640625 0.203125 -1.0q0.203125 -0.34375 0.53125 -0.484375q0.328125 -0.140625 1.390625 -0.140625l3.96875 0l0 -0.859375l0.90625 0l0 0.859375l1.71875 0l0.703125 1.171875l-2.421875 0l0 1.171875l-0.90625 0l0 -1.171875l-4.046875 0q-0.5 0 -0.640625 0.046875q-0.140625 0.0625 -0.234375 0.203125q-0.078125 0.140625 -0.078125 0.40625q0 0.203125 0.046875 0.515625zm-1.046875 3.7186127l8.421875 0l0 -3.140625l1.125 0l0 7.5625l-1.125 0l0 -3.15625l-8.421875 0l0 -1.265625zm2.21875 8.819748l-0.140625 1.203125q-1.0625 -0.28125 -1.65625 -1.0625q-0.578125 -0.765625 -0.578125 -1.96875q0 -1.515625 0.9375 -2.40625q0.9375 -0.890625 2.609375 -0.890625q1.75 0 2.703125 0.890625q0.96875 0.90625 0.96875 2.34375q0 1.390625 -0.9375 2.265625q-0.9375 0.875 -2.65625 0.875q-0.109375 0 -0.3125 0l0 -5.15625q-1.140625 0.0625 -1.75 0.640625q-0.59375 0.578125 -0.59375 1.4375q0 0.65625 0.328125 1.109375q0.34375 0.453125 1.078125 0.71875zm1.90625 -3.84375l0 3.859375q0.859375 -0.078125 1.296875 -0.4375q0.6875 -0.5625 0.6875 -1.453125q0 -0.8125 -0.546875 -1.359375q-0.53125 -0.546875 -1.4375 -0.609375zm-4.125 5.7406006l3.59375 2.53125l3.3125 -2.34375l0 1.46875l-1.609375 1.0625q-0.46875 0.296875 -0.78125 0.484375q0.4375 0.28125 0.765625 0.515625l1.625 1.171875l0 1.40625l-3.25 -2.390625l-3.65625 2.5625l0 -1.4375l2.140625 -1.421875l0.59375 -0.375l-2.734375 -1.8125l0 -1.421875zm1.046875 10.0078125l-1.03125 0.171875q-0.109375 -0.5 -0.109375 -0.890625q0 -0.640625 0.203125 -1.0q0.203125 -0.34375 0.53125 -0.484375q0.328125 -0.140625 1.390625 -0.140625l3.96875 0l0 -0.859375l0.90625 0l0 0.859375l1.71875 0l0.703125 1.171875l-2.421875 0l0 1.171875l-0.90625 0l0 -1.171875l-4.046875 0q-0.5 0 -0.640625 0.046875q-0.140625 0.0625 -0.234375 0.203125q-0.078125 0.140625 -0.078125 0.40625q0 0.203125 0.046875 0.515625z" fill-rule="nonzero"/></g></svg>