<svg version="1.1" viewBox="0.0 0.0 960.0 720.0" fill="none" stroke="none" stroke-linecap="square"
     stroke-miterlimit="10" xmlns:xlink="http://www.w3.org/1999/xlink" xmlns="http://www.w3.org/2000/svg">
    <clipPath id="p.0">
        <path d="m0 0l960.0 0l0 720.0l-960.0 0l0 -720.0z" clip-rule="nonzero"/>
    </clipPath>
    <g clip-path="url(#p.0)">
        <path fill="#ffffff" d="m0 0l960.0 0l0 720.0l-960.0 0z" fill-rule="evenodd"/>
        <path fill="#cfe2f3" d="m224.0 128.0l560.0 0l0 368.0l-560.0 0z" fill-rule="evenodd"/>
        <path stroke="#000000" stroke-width="1.0" stroke-linejoin="round" stroke-linecap="butt"
              d="m224.0 128.0l560.0 0l0 368.0l-560.0 0z" fill-rule="evenodd"/>
        <path fill="#000000" fill-opacity="0.0" d="m288.0 192.0l432.0 0" fill-rule="evenodd"/>
        <path stroke="#000000" stroke-width="2.0" stroke-linejoin="round" stroke-linecap="butt" d="m288.0 192.0l432.0 0"
              fill-rule="evenodd"/>
        <path fill="#000000" fill-opacity="0.0" d="m288.0 240.0l432.0 0" fill-rule="evenodd"/>
        <path stroke="#000000" stroke-width="2.0" stroke-linejoin="round" stroke-linecap="butt" d="m288.0 240.0l432.0 0"
              fill-rule="evenodd"/>
        <path fill="#000000" fill-opacity="0.0" d="m288.0 288.0l432.0 0" fill-rule="evenodd"/>
        <path stroke="#000000" stroke-width="2.0" stroke-linejoin="round" stroke-linecap="butt" d="m288.0 288.0l432.0 0"
              fill-rule="evenodd"/>
        <path fill="#000000" fill-opacity="0.0" d="m288.0 336.0l432.0 0" fill-rule="evenodd"/>
        <path stroke="#000000" stroke-width="2.0" stroke-linejoin="round" stroke-linecap="butt" d="m288.0 336.0l432.0 0"
              fill-rule="evenodd"/>
        <path fill="#000000" fill-opacity="0.0" d="m288.0 384.0l432.0 0" fill-rule="evenodd"/>
        <path stroke="#000000" stroke-width="2.0" stroke-linejoin="round" stroke-linecap="butt" d="m288.0 384.0l432.0 0"
              fill-rule="evenodd"/>
        <path fill="#000000" fill-opacity="0.0" d="m288.0 432.0l432.0 0" fill-rule="evenodd"/>
        <path stroke="#000000" stroke-width="2.0" stroke-linejoin="round" stroke-linecap="butt" d="m288.0 432.0l432.0 0"
              fill-rule="evenodd"/>
        <path fill="#000000" fill-opacity="0.0" d="m288.0 192.0l0 240.0" fill-rule="evenodd"/>
        <path stroke="#000000" stroke-width="8.0" stroke-linejoin="round" stroke-linecap="round"
              d="m288.0 192.0l0 240.0" fill-rule="evenodd"/>
        <path fill="#000000" fill-opacity="0.0" d="m368.0 192.0l0 240.0" fill-rule="evenodd"/>
        <path stroke="#000000" stroke-width="2.0" stroke-linejoin="round" stroke-linecap="butt" d="m368.0 192.0l0 240.0"
              fill-rule="evenodd"/>
        <path fill="#000000" fill-opacity="0.0" d="m448.0 192.0l0 240.0" fill-rule="evenodd"/>
        <path stroke="#000000" stroke-width="2.0" stroke-linejoin="round" stroke-linecap="butt" d="m448.0 192.0l0 240.0"
              fill-rule="evenodd"/>
        <path fill="#000000" fill-opacity="0.0" d="m528.0 192.0l0 240.0" fill-rule="evenodd"/>
        <path stroke="#000000" stroke-width="2.0" stroke-linejoin="round" stroke-linecap="butt" d="m528.0 192.0l0 240.0"
              fill-rule="evenodd"/>
        <path fill="#000000" fill-opacity="0.0" d="m608.0 192.0l0 240.0" fill-rule="evenodd"/>
        <path stroke="#000000" stroke-width="2.0" stroke-linejoin="round" stroke-linecap="butt" d="m608.0 192.0l0 240.0"
              fill-rule="evenodd"/>
        <path fill="#000000" fill-opacity="0.0" d="m688.0 192.0l0 240.0" fill-rule="evenodd"/>
        <path stroke="#000000" stroke-width="2.0" stroke-linejoin="round" stroke-linecap="butt" d="m688.0 192.0l0 240.0"
              fill-rule="evenodd"/>
        <path fill="#000000" fill-opacity="0.0" d="m288.0 456.0l80.0 0l0 32.0l-80.0 0z" fill-rule="evenodd"/>
        <path fill="#000000"
              d="m325.65588 473.91998l-2.5625 0l0 -9.640625q-1.40625 1.3125 -3.3125 1.9375l0 -2.328125q1.015625 -0.328125 2.1875 -1.234375q1.171875 -0.921875 1.609375 -2.140625l2.078125 0l0 13.40625z"
              fill-rule="nonzero"/>
        <path fill="#000000" fill-opacity="0.0" d="m368.0 456.0l80.0 0l0 32.0l-80.0 0z" fill-rule="evenodd"/>
        <path fill="#000000"
              d="m407.74963 471.54498l0 2.375l-8.96875 0q0.140625 -1.34375 0.859375 -2.546875q0.734375 -1.21875 2.890625 -3.203125q1.734375 -1.625 2.125 -2.1875q0.53125 -0.796875 0.53125 -1.578125q0 -0.84375 -0.46875 -1.296875q-0.453125 -0.46875 -1.265625 -0.46875q-0.796875 0 -1.28125 0.484375q-0.46875 0.46875 -0.546875 1.59375l-2.546875 -0.25q0.234375 -2.109375 1.421875 -3.03125q1.203125 -0.921875 3.015625 -0.921875q1.96875 0 3.09375 1.0625q1.140625 1.0625 1.140625 2.65625q0 0.890625 -0.328125 1.71875q-0.3125 0.8125 -1.015625 1.703125q-0.46875 0.59375 -1.6875 1.703125q-1.203125 1.109375 -1.53125 1.484375q-0.3125 0.359375 -0.515625 0.703125l5.078125 0z"
              fill-rule="nonzero"/>
        <path fill="#000000" fill-opacity="0.0" d="m448.0 456.0l80.0 0l0 32.0l-80.0 0z" fill-rule="evenodd"/>
        <path fill="#000000"
              d="m479.01526 470.3731l2.46875 -0.296875q0.125 0.953125 0.640625 1.453125q0.53125 0.5 1.265625 0.5q0.78125 0 1.328125 -0.59375q0.546875 -0.609375 0.546875 -1.640625q0 -0.953125 -0.53125 -1.515625q-0.515625 -0.578125 -1.25 -0.578125q-0.5 0 -1.1875 0.203125l0.28125 -2.09375q1.046875 0.03125 1.59375 -0.4375q0.546875 -0.484375 0.546875 -1.28125q0 -0.671875 -0.40625 -1.078125q-0.390625 -0.40625 -1.0625 -0.40625q-0.65625 0 -1.125 0.46875q-0.453125 0.453125 -0.5625 1.328125l-2.359375 -0.40625q0.25 -1.203125 0.734375 -1.921875q0.5 -0.734375 1.390625 -1.140625q0.890625 -0.421875 2.0 -0.421875q1.875 0 3.015625 1.203125q0.9375 0.984375 0.9375 2.21875q0 1.765625 -1.921875 2.8125q1.15625 0.234375 1.84375 1.09375q0.6875 0.859375 0.6875 2.0625q0 1.765625 -1.296875 3.015625q-1.28125 1.234375 -3.1875 1.234375q-1.8125 0 -3.015625 -1.046875q-1.1875 -1.046875 -1.375 -2.734375z"
              fill-rule="nonzero"/>
        <path fill="#000000" fill-opacity="0.0" d="m528.0 456.0l80.0 0l0 32.0l-80.0 0z" fill-rule="evenodd"/>
        <path fill="#000000"
              d="m564.12463 473.91998l0 -2.6875l-5.46875 0l0 -2.234375l5.796875 -8.484375l2.15625 0l0 8.46875l1.65625 0l0 2.25l-1.65625 0l0 2.6875l-2.484375 0zm0 -4.9375l0 -4.5625l-3.078125 4.5625l3.078125 0z"
              fill-rule="nonzero"/>
        <path fill="#000000" fill-opacity="0.0" d="m608.0 456.0l80.0 0l0 32.0l-80.0 0z" fill-rule="evenodd"/>
        <path fill="#000000"
              d="m639.14026 470.48248l2.546875 -0.265625q0.109375 0.875 0.640625 1.375q0.546875 0.5 1.25 0.5q0.796875 0 1.34375 -0.640625q0.5625 -0.65625 0.5625 -1.96875q0 -1.234375 -0.546875 -1.84375q-0.546875 -0.609375 -1.4375 -0.609375q-1.09375 0 -1.96875 0.96875l-2.078125 -0.296875l1.3125 -6.953125l6.765625 0l0 2.390625l-4.828125 0l-0.40625 2.265625q0.859375 -0.421875 1.75 -0.421875q1.703125 0 2.890625 1.25q1.1875 1.234375 1.1875 3.203125q0 1.65625 -0.953125 2.9375q-1.3125 1.78125 -3.625 1.78125q-1.84375 0 -3.015625 -1.0q-1.15625 -1.0 -1.390625 -2.671875z"
              fill-rule="nonzero"/>
        <path fill="#9fc5e8"
              d="m312.0 240.0l0 0c0 -8.836563 7.163452 -16.0 16.0 -16.0l0 0c4.243469 0 8.313141 1.6857147 11.313721 4.6862946c3.0005798 3.0005798 4.6862793 7.070236 4.6862793 11.313705l0 0c0 8.836563 -7.163452 16.0 -16.0 16.0l0 0c-8.836548 0 -16.0 -7.163437 -16.0 -16.0z"
              fill-rule="evenodd"/>
        <path stroke="#000000" stroke-width="2.0" stroke-linejoin="round" stroke-linecap="butt"
              d="m312.0 240.0l0 0c0 -8.836563 7.163452 -16.0 16.0 -16.0l0 0c4.243469 0 8.313141 1.6857147 11.313721 4.6862946c3.0005798 3.0005798 4.6862793 7.070236 4.6862793 11.313705l0 0c0 8.836563 -7.163452 16.0 -16.0 16.0l0 0c-8.836548 0 -16.0 -7.163437 -16.0 -16.0z"
              fill-rule="evenodd"/>
        <path fill="#000000"
              d="m332.23227 242.2325l1.765625 0.453125q-0.5625 2.171875 -2.0 3.328125q-1.4375 1.140625 -3.53125 1.140625q-2.15625 0 -3.515625 -0.875q-1.34375 -0.890625 -2.0625 -2.546875q-0.703125 -1.671875 -0.703125 -3.59375q0 -2.078125 0.796875 -3.625q0.796875 -1.5625 2.265625 -2.359375q1.484375 -0.8125 3.25 -0.8125q2.0 0 3.359375 1.015625q1.375 1.015625 1.90625 2.875l-1.734375 0.40625q-0.46875 -1.453125 -1.359375 -2.109375q-0.875 -0.671875 -2.203125 -0.671875q-1.546875 0 -2.578125 0.734375q-1.03125 0.734375 -1.453125 1.984375q-0.421875 1.234375 -0.421875 2.5625q0 1.703125 0.5 2.96875q0.5 1.265625 1.546875 1.90625q1.046875 0.625 2.265625 0.625q1.484375 0 2.515625 -0.859375q1.03125 -0.859375 1.390625 -2.546875z"
              fill-rule="nonzero"/>
        <path fill="#cfe2f3"
              d="m240.0 288.0l0 0c0 -8.836548 7.163437 -16.0 16.0 -16.0l0 0c4.243469 0 8.313141 1.6856995 11.313721 4.6862793c3.0005798 3.0005798 4.6862793 7.0702515 4.6862793 11.313721l0 0c0 8.836548 -7.163452 16.0 -16.0 16.0l0 0c-8.836563 0 -16.0 -7.163452 -16.0 -16.0z"
              fill-rule="evenodd"/>
        <path stroke="#000000" stroke-width="2.0" stroke-linejoin="round" stroke-linecap="butt"
              d="m240.0 288.0l0 0c0 -8.836548 7.163437 -16.0 16.0 -16.0l0 0c4.243469 0 8.313141 1.6856995 11.313721 4.6862793c3.0005798 3.0005798 4.6862793 7.0702515 4.6862793 11.313721l0 0c0 8.836548 -7.163452 16.0 -16.0 16.0l0 0c-8.836563 0 -16.0 -7.163452 -16.0 -16.0z"
              fill-rule="evenodd"/>
        <path fill="#000000"
              d="m256.4318 289.68564l0 -1.578125l5.65625 0l0 4.953125q-1.296875 1.046875 -2.6875 1.578125q-1.375 0.515625 -2.84375 0.515625q-1.9687653 0 -3.5781403 -0.84375q-1.609375 -0.84375 -2.421875 -2.4375q-0.8125 -1.59375 -0.8125 -3.5625q0 -1.953125 0.8125 -3.640625q0.8125 -1.6875 2.34375 -2.5q1.53125 -0.828125 3.5156403 -0.828125q1.453125 0 2.625 0.46875q1.171875 0.46875 1.828125 1.3125q0.671875 0.828125 1.015625 2.171875l-1.59375 0.4375q-0.296875 -1.015625 -0.75 -1.59375q-0.4375 -0.59375 -1.265625 -0.9375q-0.828125 -0.34375 -1.84375 -0.34375q-1.2031403 0 -2.0937653 0.375q-0.890625 0.359375 -1.4375 0.96875q-0.53125 0.59375 -0.828125 1.3125q-0.515625 1.234375 -0.515625 2.6875q0 1.78125 0.609375 2.984375q0.625 1.203125 1.796875 1.796875q1.171875 0.578125 2.5000153 0.578125q1.140625 0 2.234375 -0.4375q1.09375 -0.453125 1.65625 -0.953125l0 -2.484375l-3.921875 0z"
              fill-rule="nonzero"/>
        <path fill="#9fc5e8"
              d="m472.0 384.0l0 0c0 -8.836548 7.163452 -16.0 16.0 -16.0l0 0c4.243469 0 8.313141 1.6856995 11.313721 4.6862793c3.0005798 3.0005798 4.6862793 7.0702515 4.6862793 11.313721l0 0c0 8.836548 -7.163452 16.0 -16.0 16.0l0 0c-8.836548 0 -16.0 -7.163452 -16.0 -16.0z"
              fill-rule="evenodd"/>
        <path stroke="#000000" stroke-width="2.0" stroke-linejoin="round" stroke-linecap="butt"
              d="m472.0 384.0l0 0c0 -8.836548 7.163452 -16.0 16.0 -16.0l0 0c4.243469 0 8.313141 1.6856995 11.313721 4.6862793c3.0005798 3.0005798 4.6862793 7.0702515 4.6862793 11.313721l0 0c0 8.836548 -7.163452 16.0 -16.0 16.0l0 0c-8.836548 0 -16.0 -7.163452 -16.0 -16.0z"
              fill-rule="evenodd"/>
        <path fill="#000000"
              d="m492.23227 386.2325l1.765625 0.453125q-0.5625 2.171875 -2.0 3.328125q-1.4375 1.140625 -3.53125 1.140625q-2.15625 0 -3.515625 -0.875q-1.34375 -0.890625 -2.0625 -2.546875q-0.703125 -1.671875 -0.703125 -3.59375q0 -2.078125 0.796875 -3.625q0.796875 -1.5625 2.265625 -2.359375q1.484375 -0.8125 3.25 -0.8125q2.0 0 3.359375 1.015625q1.375 1.015625 1.90625 2.875l-1.734375 0.40625q-0.46875 -1.453125 -1.359375 -2.109375q-0.875 -0.671875 -2.203125 -0.671875q-1.546875 0 -2.578125 0.734375q-1.03125 0.734375 -1.453125 1.984375q-0.421875 1.234375 -0.421875 2.5625q0 1.703125 0.5 2.96875q0.5 1.265625 1.546875 1.90625q1.046875 0.625 2.265625 0.625q1.484375 0 2.515625 -0.859375q1.03125 -0.859375 1.390625 -2.546875z"
              fill-rule="nonzero"/>
        <path fill="#cfe2f3"
              d="m392.0 336.0l0 0c0 -8.836548 7.163452 -16.0 16.0 -16.0l0 0c4.243469 0 8.313141 1.6856995 11.313721 4.6862793c3.0005798 3.0005798 4.6862793 7.0702515 4.6862793 11.313721l0 0c0 8.836548 -7.163452 16.0 -16.0 16.0l0 0c-8.836548 0 -16.0 -7.163452 -16.0 -16.0z"
              fill-rule="evenodd"/>
        <path stroke="#000000" stroke-width="2.0" stroke-linejoin="round" stroke-linecap="butt"
              d="m392.0 336.0l0 0c0 -8.836548 7.163452 -16.0 16.0 -16.0l0 0c4.243469 0 8.313141 1.6856995 11.313721 4.6862793c3.0005798 3.0005798 4.6862793 7.0702515 4.6862793 11.313721l0 0c0 8.836548 -7.163452 16.0 -16.0 16.0l0 0c-8.836548 0 -16.0 -7.163452 -16.0 -16.0z"
              fill-rule="evenodd"/>
        <path fill="#000000"
              d="m403.24695 342.92l0 -13.359375l9.6562805 0l0 1.578125l-7.8750305 0l0 4.09375l7.375 0l0 1.5625l-7.375 0l0 4.546875l8.1875305 0l0 1.578125l-9.9687805 0z"
              fill-rule="nonzero"/>
        <path fill="#cfe2f3"
              d="m240.0 192.0l0 0c0 -8.836563 7.163437 -16.0 16.0 -16.0l0 0c4.243469 0 8.313141 1.6857147 11.313721 4.6862946c3.0005798 3.0005798 4.6862793 7.070236 4.6862793 11.313705l0 0c0 8.836563 -7.163452 16.0 -16.0 16.0l0 0c-8.836563 0 -16.0 -7.163437 -16.0 -16.0z"
              fill-rule="evenodd"/>
        <path stroke="#000000" stroke-width="2.0" stroke-linejoin="round" stroke-linecap="butt"
              d="m240.0 192.0l0 0c0 -8.836563 7.163437 -16.0 16.0 -16.0l0 0c4.243469 0 8.313141 1.6857147 11.313721 4.6862946c3.0005798 3.0005798 4.6862793 7.070236 4.6862793 11.313705l0 0c0 8.836563 -7.163452 16.0 -16.0 16.0l0 0c-8.836563 0 -16.0 -7.163437 -16.0 -16.0z"
              fill-rule="evenodd"/>
        <path fill="#000000"
              d="m251.24696 198.92l0 -13.359375l9.656265 0l0 1.578125l-7.8750153 0l0 4.09375l7.3749847 0l0 1.5625l-7.3749847 0l0 4.546875l8.187515 0l0 1.578125l-9.968765 0z"
              fill-rule="nonzero"/>
        <path fill="#cfe2f3"
              d="m472.0 432.0l0 0c0 -8.836548 7.163452 -16.0 16.0 -16.0l0 0c4.243469 0 8.313141 1.6856995 11.313721 4.6862793c3.0005798 3.0005798 4.6862793 7.0702515 4.6862793 11.313721l0 0c0 8.836548 -7.163452 16.0 -16.0 16.0l0 0c-8.836548 0 -16.0 -7.163452 -16.0 -16.0z"
              fill-rule="evenodd"/>
        <path stroke="#000000" stroke-width="2.0" stroke-linejoin="round" stroke-linecap="butt"
              d="m472.0 432.0l0 0c0 -8.836548 7.163452 -16.0 16.0 -16.0l0 0c4.243469 0 8.313141 1.6856995 11.313721 4.6862793c3.0005798 3.0005798 4.6862793 7.0702515 4.6862793 11.313721l0 0c0 8.836548 -7.163452 16.0 -16.0 16.0l0 0c-8.836548 0 -16.0 -7.163452 -16.0 -16.0z"
              fill-rule="evenodd"/>
        <path fill="#000000"
              d="m488.4318 433.68564l0 -1.578125l5.65625 0l0 4.953125q-1.296875 1.046875 -2.6875 1.578125q-1.375 0.515625 -2.84375 0.515625q-1.96875 0 -3.578125 -0.84375q-1.609375 -0.84375 -2.421875 -2.4375q-0.8125 -1.59375 -0.8125 -3.5625q0 -1.953125 0.8125 -3.640625q0.8125 -1.6875 2.34375 -2.5q1.53125 -0.828125 3.515625 -0.828125q1.453125 0 2.625 0.46875q1.171875 0.46875 1.828125 1.3125q0.671875 0.828125 1.015625 2.171875l-1.59375 0.4375q-0.296875 -1.015625 -0.75 -1.59375q-0.4375 -0.59375 -1.265625 -0.9375q-0.828125 -0.34375 -1.84375 -0.34375q-1.203125 0 -2.09375 0.375q-0.890625 0.359375 -1.4375 0.96875q-0.53125 0.59375 -0.828125 1.3125q-0.515625 1.234375 -0.515625 2.6875q0 1.78125 0.609375 2.984375q0.625 1.203125 1.796875 1.796875q1.171875 0.578125 2.5 0.578125q1.140625 0 2.234375 -0.4375q1.09375 -0.453125 1.65625 -0.953125l0 -2.484375l-3.921875 0z"
              fill-rule="nonzero"/>
        <path fill="#000000" fill-opacity="0.0" d="m160.0 128.0l704.0 0" fill-rule="evenodd"/>
        <path stroke="#000000" stroke-width="1.0" stroke-linejoin="round" stroke-linecap="butt"
              stroke-dasharray="4.0,3.0" d="m160.0 128.0l704.0 0" fill-rule="evenodd"/>
        <path fill="#000000" fill-opacity="0.0" d="m160.0 496.0l704.0 0" fill-rule="evenodd"/>
        <path stroke="#000000" stroke-width="1.0" stroke-linejoin="round" stroke-linecap="butt"
              stroke-dasharray="4.0,3.0" d="m160.0 496.0l704.0 0" fill-rule="evenodd"/>
        <path fill="#000000" fill-opacity="0.0" d="m224.0 96.0l0 560.0" fill-rule="evenodd"/>
        <path stroke="#000000" stroke-width="1.0" stroke-linejoin="round" stroke-linecap="butt"
              stroke-dasharray="4.0,3.0" d="m224.0 96.0l0 560.0" fill-rule="evenodd"/>
        <path fill="#000000" fill-opacity="0.0" d="m784.0 96.0l0 560.0" fill-rule="evenodd"/>
        <path stroke="#000000" stroke-width="1.0" stroke-linejoin="round" stroke-linecap="butt"
              stroke-dasharray="4.0,3.0" d="m784.0 96.0l0 560.0" fill-rule="evenodd"/>
        <path fill="#000000" fill-opacity="0.0" d="m736.0 192.0l128.0 0" fill-rule="evenodd"/>
        <path stroke="#000000" stroke-width="1.0" stroke-linejoin="round" stroke-linecap="butt"
              stroke-dasharray="4.0,3.0" d="m736.0 192.0l128.0 0" fill-rule="evenodd"/>
        <path fill="#000000" fill-opacity="0.0" d="m736.0 432.0l128.0 0" fill-rule="evenodd"/>
        <path stroke="#000000" stroke-width="1.0" stroke-linejoin="round" stroke-linecap="butt"
              stroke-dasharray="4.0,3.0" d="m736.0 432.0l128.0 0" fill-rule="evenodd"/>
        <path fill="#000000" fill-opacity="0.0" d="m736.0 240.0l128.0 0" fill-rule="evenodd"/>
        <path stroke="#000000" stroke-width="1.0" stroke-linejoin="round" stroke-linecap="butt"
              stroke-dasharray="4.0,3.0" d="m736.0 240.0l128.0 0" fill-rule="evenodd"/>
        <path fill="#000000" fill-opacity="0.0" d="m816.0 192.0l0 48.0" fill-rule="evenodd"/>
        <path stroke="#000000" stroke-width="1.0" stroke-linejoin="round" stroke-linecap="butt" d="m816.0 198.0l0 36.0"
              fill-rule="evenodd"/>
        <path fill="#000000" stroke="#000000" stroke-width="1.0" stroke-linecap="butt"
              d="m817.65173 198.0l-1.6517334 -4.538101l-1.6517334 4.538101z" fill-rule="evenodd"/>
        <path fill="#000000" stroke="#000000" stroke-width="1.0" stroke-linecap="butt"
              d="m814.34827 234.0l1.6517334 4.538101l1.6517334 -4.538101z" fill-rule="evenodd"/>
        <path fill="#000000" fill-opacity="0.0" d="m816.0 128.0l0 64.0" fill-rule="evenodd"/>
        <path stroke="#000000" stroke-width="1.0" stroke-linejoin="round" stroke-linecap="butt" d="m816.0 134.0l0 52.0"
              fill-rule="evenodd"/>
        <path fill="#000000" stroke="#000000" stroke-width="1.0" stroke-linecap="butt"
              d="m817.65173 134.0l-1.6517334 -4.538101l-1.6517334 4.538101z" fill-rule="evenodd"/>
        <path fill="#000000" stroke="#000000" stroke-width="1.0" stroke-linecap="butt"
              d="m814.34827 186.0l1.6517334 4.538101l1.6517334 -4.538101z" fill-rule="evenodd"/>
        <path fill="#000000" fill-opacity="0.0" d="m816.0 432.0l0 64.0" fill-rule="evenodd"/>
        <path stroke="#000000" stroke-width="1.0" stroke-linejoin="round" stroke-linecap="butt" d="m816.0 438.0l0 52.0"
              fill-rule="evenodd"/>
        <path fill="#000000" stroke="#000000" stroke-width="1.0" stroke-linecap="butt"
              d="m817.65173 438.0l-1.6517334 -4.538086l-1.6517334 4.538086z" fill-rule="evenodd"/>
        <path fill="#000000" stroke="#000000" stroke-width="1.0" stroke-linecap="butt"
              d="m814.34827 490.0l1.6517334 4.538086l1.6517334 -4.538086z" fill-rule="evenodd"/>
        <path fill="#000000" fill-opacity="0.0" d="m288.0 448.0l0 128.0" fill-rule="evenodd"/>
        <path stroke="#000000" stroke-width="1.0" stroke-linejoin="round" stroke-linecap="butt"
              stroke-dasharray="4.0,3.0" d="m288.0 448.0l0 128.0" fill-rule="evenodd"/>
        <path fill="#000000" fill-opacity="0.0" d="m224.0 528.0l64.0 0" fill-rule="evenodd"/>
        <path stroke="#000000" stroke-width="1.0" stroke-linejoin="round" stroke-linecap="butt" d="m230.0 528.0l52.0 0"
              fill-rule="evenodd"/>
        <path fill="#000000" stroke="#000000" stroke-width="1.0" stroke-linecap="butt"
              d="m230.0 526.34827l-4.538101 1.6517334l4.538101 1.6517334z" fill-rule="evenodd"/>
        <path fill="#000000" stroke="#000000" stroke-width="1.0" stroke-linecap="butt"
              d="m282.0 529.65173l4.538086 -1.6517334l-4.538086 -1.6517334z" fill-rule="evenodd"/>
        <path fill="#000000" fill-opacity="0.0" d="m368.0 448.0l0 128.0" fill-rule="evenodd"/>
        <path stroke="#000000" stroke-width="1.0" stroke-linejoin="round" stroke-linecap="butt"
              stroke-dasharray="4.0,3.0" d="m368.0 448.0l0 128.0" fill-rule="evenodd"/>
        <path fill="#000000" fill-opacity="0.0" d="m688.0 448.0l0 128.0" fill-rule="evenodd"/>
        <path stroke="#000000" stroke-width="1.0" stroke-linejoin="round" stroke-linecap="butt"
              stroke-dasharray="4.0,3.0" d="m688.0 448.0l0 128.0" fill-rule="evenodd"/>
        <path fill="#000000" fill-opacity="0.0" d="m720.0 448.0l0 128.0" fill-rule="evenodd"/>
        <path stroke="#000000" stroke-width="1.0" stroke-linejoin="round" stroke-linecap="butt"
              stroke-dasharray="4.0,3.0" d="m720.0 448.0l0 128.0" fill-rule="evenodd"/>
        <path fill="#000000" fill-opacity="0.0" d="m288.0 528.0l80.0 0" fill-rule="evenodd"/>
        <path stroke="#000000" stroke-width="1.0" stroke-linejoin="round" stroke-linecap="butt" d="m294.0 528.0l68.0 0"
              fill-rule="evenodd"/>
        <path fill="#000000" stroke="#000000" stroke-width="1.0" stroke-linecap="butt"
              d="m294.0 526.34827l-4.538086 1.6517334l4.538086 1.6517334z" fill-rule="evenodd"/>
        <path fill="#000000" stroke="#000000" stroke-width="1.0" stroke-linecap="butt"
              d="m362.0 529.65173l4.538086 -1.6517334l-4.538086 -1.6517334z" fill-rule="evenodd"/>
        <path fill="#000000" fill-opacity="0.0" d="m688.0 528.0l32.0 0" fill-rule="evenodd"/>
        <path stroke="#000000" stroke-width="1.0" stroke-linejoin="round" stroke-linecap="butt" d="m694.0 528.0l20.0 0"
              fill-rule="evenodd"/>
        <path fill="#000000" stroke="#000000" stroke-width="1.0" stroke-linecap="butt"
              d="m694.0 526.34827l-4.538086 1.6517334l4.538086 1.6517334z" fill-rule="evenodd"/>
        <path fill="#000000" stroke="#000000" stroke-width="1.0" stroke-linecap="butt"
              d="m714.0 529.65173l4.538086 -1.6517334l-4.538086 -1.6517334z" fill-rule="evenodd"/>
        <path fill="#000000" fill-opacity="0.0" d="m720.0 528.0l64.0 0" fill-rule="evenodd"/>
        <path stroke="#000000" stroke-width="1.0" stroke-linejoin="round" stroke-linecap="butt" d="m726.0 528.0l52.0 0"
              fill-rule="evenodd"/>
        <path fill="#000000" stroke="#000000" stroke-width="1.0" stroke-linecap="butt"
              d="m726.0 526.34827l-4.538086 1.6517334l4.538086 1.6517334z" fill-rule="evenodd"/>
        <path fill="#000000" stroke="#000000" stroke-width="1.0" stroke-linecap="butt"
              d="m778.0 529.65173l4.538086 -1.6517334l-4.538086 -1.6517334z" fill-rule="evenodd"/>
        <path fill="#000000" fill-opacity="0.0" d="m224.0 624.0l560.0 0" fill-rule="evenodd"/>
        <path stroke="#000000" stroke-width="1.0" stroke-linejoin="round" stroke-linecap="butt" d="m230.0 624.0l548.0 0"
              fill-rule="evenodd"/>
        <path fill="#000000" stroke="#000000" stroke-width="1.0" stroke-linecap="butt"
              d="m230.0 622.34827l-4.538101 1.6517334l4.538101 1.6517334z" fill-rule="evenodd"/>
        <path fill="#000000" stroke="#000000" stroke-width="1.0" stroke-linecap="butt"
              d="m778.0 625.65173l4.538086 -1.6517334l-4.538086 -1.6517334z" fill-rule="evenodd"/>
        <path fill="#000000" fill-opacity="0.0" d="m816.0 192.0l96.0 0l0 48.0l-96.0 0z" fill-rule="evenodd"/>
        <path fill="#000000"
              d="m825.4531 218.81438l1.265625 -0.203125q0.109375 0.765625 0.59375 1.171875q0.5 0.40625 1.375 0.40625q0.890625 0 1.3125 -0.359375q0.4375 -0.359375 0.4375 -0.84375q0 -0.4375 -0.375 -0.6875q-0.265625 -0.171875 -1.3125 -0.4375q-1.421875 -0.359375 -1.96875 -0.609375q-0.546875 -0.265625 -0.828125 -0.734375q-0.28125 -0.46875 -0.28125 -1.015625q0 -0.515625 0.21875 -0.9375q0.234375 -0.4375 0.640625 -0.734375q0.296875 -0.21875 0.8125 -0.359375q0.53125 -0.15625 1.125 -0.15625q0.890625 0 1.5625 0.265625q0.671875 0.25 1.0 0.6875q0.328125 0.4375 0.4375 1.171875l-1.25 0.171875q-0.09375 -0.578125 -0.5 -0.90625q-0.40625 -0.34375 -1.15625 -0.34375q-0.890625 0 -1.28125 0.296875q-0.375 0.296875 -0.375 0.6875q0 0.25 0.15625 0.453125q0.15625 0.203125 0.5 0.34375q0.1875 0.078125 1.140625 0.328125q1.359375 0.359375 1.890625 0.59375q0.546875 0.234375 0.859375 0.6875q0.3125 0.4375 0.3125 1.09375q0 0.640625 -0.375 1.21875q-0.375 0.5625 -1.09375 0.875q-0.703125 0.3125 -1.59375 0.3125q-1.484375 0 -2.265625 -0.609375q-0.765625 -0.625 -0.984375 -1.828125zm10.65625 1.109375l0.1875 1.140625q-0.546875 0.109375 -0.984375 0.109375q-0.6875 0 -1.078125 -0.21875q-0.390625 -0.21875 -0.546875 -0.578125q-0.15625 -0.359375 -0.15625 -1.515625l0 -4.375l-0.953125 0l0 -1.0l0.953125 0l0 -1.890625l1.28125 -0.765625l0 2.65625l1.296875 0l0 1.0l-1.296875 0l0 4.4375q0 0.546875 0.0625 0.71875q0.078125 0.15625 0.21875 0.25q0.15625 0.078125 0.453125 0.078125q0.203125 0 0.5625 -0.046875zm1.2438354 1.15625l0 -7.59375l1.15625 0l0 1.140625q0.453125 -0.796875 0.828125 -1.046875q0.375 -0.265625 0.8125 -0.265625q0.65625 0 1.328125 0.40625l-0.4375 1.203125q-0.46875 -0.28125 -0.953125 -0.28125q-0.421875 0 -0.765625 0.25q-0.328125 0.25 -0.46875 0.703125q-0.21875 0.6875 -0.21875 1.5l0 3.984375l-1.28125 0zm4.8963013 -9.015625l0 -1.46875l1.296875 0l0 1.46875l-1.296875 0zm0 9.015625l0 -7.59375l1.296875 0l0 7.59375l-1.296875 0zm3.2561035 0l0 -7.59375l1.15625 0l0 1.078125q0.84375 -1.25 2.421875 -1.25q0.6875 0 1.265625 0.25q0.578125 0.234375 0.859375 0.640625q0.28125 0.40625 0.40625 0.953125q0.0625 0.359375 0.0625 1.25l0 4.671875l-1.28125 0l0 -4.625q0 -0.78125 -0.15625 -1.171875q-0.15625 -0.390625 -0.546875 -0.625q-0.375 -0.234375 -0.890625 -0.234375q-0.8125 0 -1.421875 0.53125q-0.59375 0.515625 -0.59375 1.96875l0 4.15625l-1.28125 0zm7.916748 0.625l1.25 0.1875q0.078125 0.578125 0.4375 0.84375q0.46875 0.359375 1.3125 0.359375q0.890625 0 1.375 -0.359375q0.484375 -0.359375 0.65625 -1.0q0.109375 -0.390625 0.09375 -1.65625q-0.84375 1.0 -2.109375 1.0q-1.5625 0 -2.421875 -1.125q-0.859375 -1.140625 -0.859375 -2.71875q0 -1.09375 0.390625 -2.0q0.40625 -0.921875 1.140625 -1.421875q0.75 -0.5 1.765625 -0.5q1.34375 0 2.21875 1.078125l0 -0.90625l1.1875 0l0 6.5625q0 1.78125 -0.359375 2.515625q-0.359375 0.734375 -1.15625 1.15625q-0.78125 0.4375 -1.921875 0.4375q-1.359375 0 -2.203125 -0.609375q-0.828125 -0.609375 -0.796875 -1.84375zm1.0625 -4.5625q0 1.5 0.59375 2.1875q0.59375 0.6875 1.484375 0.6875q0.890625 0 1.484375 -0.6875q0.609375 -0.6875 0.609375 -2.140625q0 -1.390625 -0.625 -2.09375q-0.609375 -0.71875 -1.484375 -0.71875q-0.859375 0 -1.46875 0.703125q-0.59375 0.6875 -0.59375 2.0625zm6.822998 0.78125l0 -1.28125l3.953125 0l0 1.28125l-3.953125 0zm5.14624 3.78125l1.25 0.1875q0.078125 0.578125 0.4375 0.84375q0.46875 0.359375 1.3125 0.359375q0.890625 0 1.375 -0.359375q0.484375 -0.359375 0.65625 -1.0q0.109375 -0.390625 0.09375 -1.65625q-0.84375 1.0 -2.109375 1.0q-1.5625 0 -2.421875 -1.125q-0.859375 -1.140625 -0.859375 -2.71875q0 -1.09375 0.390625 -2.0q0.40625 -0.921875 1.140625 -1.421875q0.75 -0.5 1.765625 -0.5q1.34375 0 2.21875 1.078125l0 -0.90625l1.1875 0l0 6.5625q0 1.78125 -0.359375 2.515625q-0.359375 0.734375 -1.15625 1.15625q-0.78125 0.4375 -1.921875 0.4375q-1.359375 0 -2.203125 -0.609375q-0.828125 -0.609375 -0.796875 -1.84375zm1.0625 -4.5625q0 1.5 0.59375 2.1875q0.59375 0.6875 1.484375 0.6875q0.890625 0 1.484375 -0.6875q0.609375 -0.6875 0.609375 -2.140625q0 -1.390625 -0.625 -2.09375q-0.609375 -0.71875 -1.484375 -0.71875q-0.859375 0 -1.46875 0.703125q-0.59375 0.6875 -0.59375 2.0625zm12.276123 3.0q-0.71875 0.609375 -1.375 0.859375q-0.65625 0.25 -1.421875 0.25q-1.25 0 -1.921875 -0.609375q-0.671875 -0.609375 -0.671875 -1.5625q0 -0.5625 0.25 -1.015625q0.25 -0.46875 0.65625 -0.75q0.421875 -0.28125 0.9375 -0.421875q0.375 -0.09375 1.140625 -0.1875q1.5625 -0.1875 2.296875 -0.453125q0.015625 -0.265625 0.015625 -0.328125q0 -0.796875 -0.375 -1.109375q-0.484375 -0.4375 -1.453125 -0.4375q-0.921875 0 -1.359375 0.328125q-0.421875 0.3125 -0.625 1.109375l-1.265625 -0.171875q0.171875 -0.796875 0.5625 -1.296875q0.390625 -0.5 1.140625 -0.765625q0.75 -0.265625 1.71875 -0.265625q0.984375 0 1.59375 0.234375q0.609375 0.21875 0.890625 0.5625q0.28125 0.34375 0.40625 0.875q0.0625 0.328125 0.0625 1.1875l0 1.71875q0 1.796875 0.078125 2.28125q0.078125 0.46875 0.328125 0.90625l-1.34375 0q-0.203125 -0.40625 -0.265625 -0.9375zm-0.109375 -2.875q-0.703125 0.28125 -2.09375 0.484375q-0.796875 0.109375 -1.125 0.265625q-0.328125 0.140625 -0.515625 0.421875q-0.171875 0.265625 -0.171875 0.59375q0 0.515625 0.390625 0.859375q0.390625 0.34375 1.140625 0.34375q0.734375 0 1.3125 -0.3125q0.59375 -0.328125 0.859375 -0.890625q0.203125 -0.4375 0.203125 -1.296875l0 -0.46875zm3.307373 6.71875l0 -10.5l1.171875 0l0 0.984375q0.421875 -0.578125 0.9375 -0.859375q0.515625 -0.296875 1.265625 -0.296875q0.96875 0 1.71875 0.5q0.75 0.5 1.125 1.421875q0.375 0.90625 0.375 1.984375q0 1.171875 -0.421875 2.109375q-0.40625 0.921875 -1.21875 1.421875q-0.796875 0.5 -1.671875 0.5q-0.640625 0 -1.15625 -0.265625q-0.515625 -0.28125 -0.84375 -0.6875l0 3.6875l-1.28125 0zm1.15625 -6.65625q0 1.453125 0.59375 2.15625q0.609375 0.703125 1.453125 0.703125q0.859375 0 1.46875 -0.71875q0.609375 -0.734375 0.609375 -2.25q0 -1.453125 -0.609375 -2.171875q-0.59375 -0.734375 -1.421875 -0.734375q-0.8125 0 -1.453125 0.78125q-0.640625 0.765625 -0.640625 2.234375z"
              fill-rule="nonzero"/>
        <path fill="#000000" fill-opacity="0.0" d="m816.0 432.0l96.0 0l0 64.0l-96.0 0z" fill-rule="evenodd"/>
        <path fill="#000000"
              d="m828.0781 469.08002l-2.890625 -7.59375l1.359375 0l1.625 4.546875q0.265625 0.734375 0.5 1.53125q0.15625 -0.609375 0.46875 -1.453125l1.6875 -4.625l1.328125 0l-2.875 7.59375l-1.203125 0zm4.71875 -3.15625l0 -1.28125l3.953125 0l0 1.28125l-3.953125 0zm5.380615 6.0625l0 -10.5l1.171875 0l0 0.984375q0.421875 -0.578125 0.9375 -0.859375q0.515625 -0.296875 1.265625 -0.296875q0.96875 0 1.71875 0.5q0.75 0.5 1.125 1.421875q0.375 0.90625 0.375 1.984375q0 1.171875 -0.421875 2.109375q-0.40625 0.921875 -1.21875 1.421875q-0.796875 0.5 -1.671875 0.5q-0.640625 0 -1.15625 -0.265625q-0.515625 -0.28125 -0.84375 -0.6875l0 3.6875l-1.28125 0zm1.15625 -6.65625q0 1.453125 0.59375 2.15625q0.609375 0.703125 1.453125 0.703125q0.859375 0 1.46875 -0.71875q0.609375 -0.734375 0.609375 -2.25q0 -1.453125 -0.609375 -2.171875q-0.59375 -0.734375 -1.421875 -0.734375q-0.8125 0 -1.453125 0.78125q-0.640625 0.765625 -0.640625 2.234375zm11.947998 2.8125q-0.71875 0.609375 -1.375 0.859375q-0.65625 0.25 -1.421875 0.25q-1.25 0 -1.921875 -0.609375q-0.671875 -0.609375 -0.671875 -1.5625q0 -0.5625 0.25 -1.015625q0.25 -0.46875 0.65625 -0.75q0.421875 -0.28125 0.9375 -0.421875q0.375 -0.09375 1.140625 -0.1875q1.5625 -0.1875 2.296875 -0.453125q0.015625 -0.265625 0.015625 -0.328125q0 -0.796875 -0.375 -1.109375q-0.484375 -0.4375 -1.453125 -0.4375q-0.921875 0 -1.359375 0.328125q-0.421875 0.3125 -0.625 1.109375l-1.265625 -0.171875q0.171875 -0.796875 0.5625 -1.296875q0.390625 -0.5 1.140625 -0.765625q0.75 -0.265625 1.71875 -0.265625q0.984375 0 1.59375 0.234375q0.609375 0.21875 0.890625 0.5625q0.28125 0.34375 0.40625 0.875q0.0625 0.328125 0.0625 1.1875l0 1.71875q0 1.796875 0.078125 2.28125q0.078125 0.46875 0.328125 0.90625l-1.34375 0q-0.203125 -0.40625 -0.265625 -0.9375zm-0.109375 -2.875q-0.703125 0.28125 -2.09375 0.484375q-0.796875 0.109375 -1.125 0.265625q-0.328125 0.140625 -0.515625 0.421875q-0.171875 0.265625 -0.171875 0.59375q0 0.515625 0.390625 0.859375q0.390625 0.34375 1.140625 0.34375q0.734375 0 1.3125 -0.3125q0.59375 -0.328125 0.859375 -0.890625q0.203125 -0.4375 0.203125 -1.296875l0 -0.46875zm8.229248 3.8125l0 -0.953125q-0.71875 1.125 -2.125 1.125q-0.90625 0 -1.671875 -0.5q-0.75 -0.5 -1.171875 -1.390625q-0.421875 -0.90625 -0.421875 -2.078125q0 -1.140625 0.375 -2.0625q0.390625 -0.921875 1.140625 -1.40625q0.765625 -0.5 1.703125 -0.5q0.6875 0 1.21875 0.296875q0.53125 0.28125 0.875 0.734375l0 -3.75l1.28125 0l0 10.484375l-1.203125 0zm-4.0625 -3.796875q0 1.46875 0.609375 2.1875q0.625 0.71875 1.453125 0.71875q0.84375 0 1.4375 -0.6875q0.59375 -0.6875 0.59375 -2.109375q0 -1.5625 -0.609375 -2.28125q-0.59375 -0.734375 -1.484375 -0.734375q-0.84375 0 -1.421875 0.703125q-0.578125 0.703125 -0.578125 2.203125zm12.213623 3.796875l0 -0.953125q-0.71875 1.125 -2.125 1.125q-0.90625 0 -1.671875 -0.5q-0.75 -0.5 -1.171875 -1.390625q-0.421875 -0.90625 -0.421875 -2.078125q0 -1.140625 0.375 -2.0625q0.390625 -0.921875 1.140625 -1.40625q0.765625 -0.5 1.703125 -0.5q0.6875 0 1.21875 0.296875q0.53125 0.28125 0.875 0.734375l0 -3.75l1.28125 0l0 10.484375l-1.203125 0zm-4.0625 -3.796875q0 1.46875 0.609375 2.1875q0.625 0.71875 1.453125 0.71875q0.84375 0 1.4375 -0.6875q0.59375 -0.6875 0.59375 -2.109375q0 -1.5625 -0.609375 -2.28125q-0.59375 -0.734375 -1.484375 -0.734375q-0.84375 0 -1.421875 0.703125q-0.578125 0.703125 -0.578125 2.203125zm7.291748 -5.21875l0 -1.46875l1.296875 0l0 1.46875l-1.296875 0zm0 9.015625l0 -7.59375l1.296875 0l0 7.59375l-1.296875 0zm3.2561035 0l0 -7.59375l1.15625 0l0 1.078125q0.84375 -1.25 2.421875 -1.25q0.6875 0 1.265625 0.25q0.578125 0.234375 0.859375 0.640625q0.28125 0.40625 0.40625 0.953125q0.0625 0.359375 0.0625 1.25l0 4.671875l-1.28125 0l0 -4.625q0 -0.78125 -0.15625 -1.171875q-0.15625 -0.390625 -0.546875 -0.625q-0.375 -0.234375 -0.890625 -0.234375q-0.8125 0 -1.421875 0.53125q-0.59375 0.515625 -0.59375 1.96875l0 4.15625l-1.28125 0zm7.916748 0.625l1.25 0.1875q0.078125 0.578125 0.4375 0.84375q0.46875 0.359375 1.3125 0.359375q0.890625 0 1.375 -0.359375q0.484375 -0.359375 0.65625 -1.0q0.109375 -0.390625 0.09375 -1.65625q-0.84375 1.0 -2.109375 1.0q-1.5625 0 -2.421875 -1.125q-0.859375 -1.140625 -0.859375 -2.71875q0 -1.09375 0.390625 -2.0q0.40625 -0.921875 1.140625 -1.421875q0.75 -0.5 1.765625 -0.5q1.34375 0 2.21875 1.078125l0 -0.90625l1.1875 0l0 6.5625q0 1.78125 -0.359375 2.515625q-0.359375 0.734375 -1.15625 1.15625q-0.78125 0.4375 -1.921875 0.4375q-1.359375 0 -2.203125 -0.609375q-0.828125 -0.609375 -0.796875 -1.84375zm1.0625 -4.5625q0 1.5 0.59375 2.1875q0.59375 0.6875 1.484375 0.6875q0.890625 0 1.484375 -0.6875q0.609375 -0.6875 0.609375 -2.140625q0 -1.390625 -0.625 -2.09375q-0.609375 -0.71875 -1.484375 -0.71875q-0.859375 0 -1.46875 0.703125q-0.59375 0.6875 -0.59375 2.0625z"
              fill-rule="nonzero"/>
        <path fill="#000000" fill-opacity="0.0" d="m816.0 128.0l96.0 0l0 64.0l-96.0 0z" fill-rule="evenodd"/>
        <path fill="#000000"
              d="m828.0781 165.08l-2.890625 -7.59375l1.359375 0l1.625 4.546875q0.265625 0.734375 0.5 1.53125q0.15625 -0.609375 0.46875 -1.453125l1.6875 -4.625l1.328125 0l-2.875 7.59375l-1.203125 0zm4.71875 -3.15625l0 -1.28125l3.953125 0l0 1.28125l-3.953125 0zm5.380615 6.0625l0 -10.5l1.171875 0l0 0.984375q0.421875 -0.578125 0.9375 -0.859375q0.515625 -0.296875 1.265625 -0.296875q0.96875 0 1.71875 0.5q0.75 0.5 1.125 1.421875q0.375 0.90625 0.375 1.984375q0 1.171875 -0.421875 2.109375q-0.40625 0.921875 -1.21875 1.421875q-0.796875 0.5 -1.671875 0.5q-0.640625 0 -1.15625 -0.265625q-0.515625 -0.28125 -0.84375 -0.6875l0 3.6875l-1.28125 0zm1.15625 -6.65625q0 1.453125 0.59375 2.15625q0.609375 0.703125 1.453125 0.703125q0.859375 0 1.46875 -0.71875q0.609375 -0.734375 0.609375 -2.25q0 -1.453125 -0.609375 -2.171875q-0.59375 -0.734375 -1.421875 -0.734375q-0.8125 0 -1.453125 0.78125q-0.640625 0.765625 -0.640625 2.234375zm11.947998 2.8125q-0.71875 0.609375 -1.375 0.859375q-0.65625 0.25 -1.421875 0.25q-1.25 0 -1.921875 -0.609375q-0.671875 -0.609375 -0.671875 -1.5625q0 -0.5625 0.25 -1.015625q0.25 -0.46875 0.65625 -0.75q0.421875 -0.28125 0.9375 -0.421875q0.375 -0.09375 1.140625 -0.1875q1.5625 -0.1875 2.296875 -0.453125q0.015625 -0.265625 0.015625 -0.328125q0 -0.796875 -0.375 -1.109375q-0.484375 -0.4375 -1.453125 -0.4375q-0.921875 0 -1.359375 0.328125q-0.421875 0.3125 -0.625 1.109375l-1.265625 -0.171875q0.171875 -0.796875 0.5625 -1.296875q0.390625 -0.5 1.140625 -0.765625q0.75 -0.265625 1.71875 -0.265625q0.984375 0 1.59375 0.234375q0.609375 0.21875 0.890625 0.5625q0.28125 0.34375 0.40625 0.875q0.0625 0.328125 0.0625 1.1875l0 1.71875q0 1.796875 0.078125 2.28125q0.078125 0.46875 0.328125 0.90625l-1.34375 0q-0.203125 -0.40625 -0.265625 -0.9375zm-0.109375 -2.875q-0.703125 0.28125 -2.09375 0.484375q-0.796875 0.109375 -1.125 0.265625q-0.328125 0.140625 -0.515625 0.421875q-0.171875 0.265625 -0.171875 0.59375q0 0.515625 0.390625 0.859375q0.390625 0.34375 1.140625 0.34375q0.734375 0 1.3125 -0.3125q0.59375 -0.328125 0.859375 -0.890625q0.203125 -0.4375 0.203125 -1.296875l0 -0.46875zm8.229248 3.8125l0 -0.953125q-0.71875 1.125 -2.125 1.125q-0.90625 0 -1.671875 -0.5q-0.75 -0.5 -1.171875 -1.390625q-0.421875 -0.90625 -0.421875 -2.078125q0 -1.140625 0.375 -2.0625q0.390625 -0.921875 1.140625 -1.40625q0.765625 -0.5 1.703125 -0.5q0.6875 0 1.21875 0.296875q0.53125 0.28125 0.875 0.734375l0 -3.75l1.28125 0l0 10.484375l-1.203125 0zm-4.0625 -3.796875q0 1.46875 0.609375 2.1875q0.625 0.71875 1.453125 0.71875q0.84375 0 1.4375 -0.6875q0.59375 -0.6875 0.59375 -2.109375q0 -1.5625 -0.609375 -2.28125q-0.59375 -0.734375 -1.484375 -0.734375q-0.84375 0 -1.421875 0.703125q-0.578125 0.703125 -0.578125 2.203125zm12.213623 3.796875l0 -0.953125q-0.71875 1.125 -2.125 1.125q-0.90625 0 -1.671875 -0.5q-0.75 -0.5 -1.171875 -1.390625q-0.421875 -0.90625 -0.421875 -2.078125q0 -1.140625 0.375 -2.0625q0.390625 -0.921875 1.140625 -1.40625q0.765625 -0.5 1.703125 -0.5q0.6875 0 1.21875 0.296875q0.53125 0.28125 0.875 0.734375l0 -3.75l1.28125 0l0 10.484375l-1.203125 0zm-4.0625 -3.796875q0 1.46875 0.609375 2.1875q0.625 0.71875 1.453125 0.71875q0.84375 0 1.4375 -0.6875q0.59375 -0.6875 0.59375 -2.109375q0 -1.5625 -0.609375 -2.28125q-0.59375 -0.734375 -1.484375 -0.734375q-0.84375 0 -1.421875 0.703125q-0.578125 0.703125 -0.578125 2.203125zm7.291748 -5.21875l0 -1.46875l1.296875 0l0 1.46875l-1.296875 0zm0 9.015625l0 -7.59375l1.296875 0l0 7.59375l-1.296875 0zm3.2561035 0l0 -7.59375l1.15625 0l0 1.078125q0.84375 -1.25 2.421875 -1.25q0.6875 0 1.265625 0.25q0.578125 0.234375 0.859375 0.640625q0.28125 0.40625 0.40625 0.953125q0.0625 0.359375 0.0625 1.25l0 4.671875l-1.28125 0l0 -4.625q0 -0.78125 -0.15625 -1.171875q-0.15625 -0.390625 -0.546875 -0.625q-0.375 -0.234375 -0.890625 -0.234375q-0.8125 0 -1.421875 0.53125q-0.59375 0.515625 -0.59375 1.96875l0 4.15625l-1.28125 0zm7.916748 0.625l1.25 0.1875q0.078125 0.578125 0.4375 0.84375q0.46875 0.359375 1.3125 0.359375q0.890625 0 1.375 -0.359375q0.484375 -0.359375 0.65625 -1.0q0.109375 -0.390625 0.09375 -1.65625q-0.84375 1.0 -2.109375 1.0q-1.5625 0 -2.421875 -1.125q-0.859375 -1.140625 -0.859375 -2.71875q0 -1.09375 0.390625 -2.0q0.40625 -0.921875 1.140625 -1.421875q0.75 -0.5 1.765625 -0.5q1.34375 0 2.21875 1.078125l0 -0.90625l1.1875 0l0 6.5625q0 1.78125 -0.359375 2.515625q-0.359375 0.734375 -1.15625 1.15625q-0.78125 0.4375 -1.921875 0.4375q-1.359375 0 -2.203125 -0.609375q-0.828125 -0.609375 -0.796875 -1.84375zm1.0625 -4.5625q0 1.5 0.59375 2.1875q0.59375 0.6875 1.484375 0.6875q0.890625 0 1.484375 -0.6875q0.609375 -0.6875 0.609375 -2.140625q0 -1.390625 -0.625 -2.09375q-0.609375 -0.71875 -1.484375 -0.71875q-0.859375 0 -1.46875 0.703125q-0.59375 0.6875 -0.59375 2.0625z"
              fill-rule="nonzero"/>
        <path fill="#000000" fill-opacity="0.0" d="m720.0 616.0l0 -88.0l64.0 0l0 88.0z" fill-rule="evenodd"/>
        <path fill="#000000"
              d="m757.08 601.2258l-10.484375 0l0 -1.28125l3.75 0q-1.03125 -0.90625 -1.03125 -2.28125q0 -0.84375 0.328125 -1.46875q0.328125 -0.625 0.921875 -0.890625q0.578125 -0.265625 1.703125 -0.265625l4.8125 0l0 1.28125l-4.8125 0q-0.96875 0 -1.40625 0.421875q-0.4375 0.421875 -0.4375 1.1875q0 0.578125 0.296875 1.078125q0.296875 0.5 0.8125 0.71875q0.5 0.21875 1.390625 0.21875l4.15625 0l0 1.28125zm-3.15625 -7.651123l-1.28125 0l0 -3.953125l1.28125 0l0 3.953125zm6.0625 -5.3806763l-10.5 0l0 -1.171875l0.984375 0q-0.578125 -0.421875 -0.859375 -0.9375q-0.296875 -0.515625 -0.296875 -1.265625q0 -0.96875 0.5 -1.71875q0.5 -0.75 1.421875 -1.125q0.90625 -0.375 1.984375 -0.375q1.171875 0 2.109375 0.421875q0.921875 0.40625 1.421875 1.21875q0.5 0.796875 0.5 1.671875q0 0.640625 -0.265625 1.15625q-0.28125 0.515625 -0.6875 0.84375l3.6875 0l0 1.28125zm-6.65625 -1.15625q1.453125 0 2.15625 -0.59375q0.703125 -0.609375 0.703125 -1.453125q0 -0.859375 -0.71875 -1.46875q-0.734375 -0.609375 -2.25 -0.609375q-1.453125 0 -2.171875 0.609375q-0.734375 0.59375 -0.734375 1.421875q0 0.8125 0.78125 1.453125q0.765625 0.640625 2.234375 0.640625zm2.8125 -11.947937q0.609375 0.71875 0.859375 1.375q0.25 0.65625 0.25 1.421875q0 1.25 -0.609375 1.921875q-0.609375 0.671875 -1.5625 0.671875q-0.5625 0 -1.015625 -0.25q-0.46875 -0.25 -0.75 -0.65625q-0.28125 -0.421875 -0.421875 -0.9375q-0.09375 -0.375 -0.1875 -1.140625q-0.1875 -1.5625 -0.453125 -2.296875q-0.265625 -0.015625 -0.328125 -0.015625q-0.796875 0 -1.109375 0.375q-0.4375 0.484375 -0.4375 1.453125q0 0.921875 0.328125 1.359375q0.3125 0.421875 1.109375 0.625l-0.171875 1.265625q-0.796875 -0.171875 -1.296875 -0.5625q-0.5 -0.390625 -0.765625 -1.140625q-0.265625 -0.75 -0.265625 -1.71875q0 -0.984375 0.234375 -1.59375q0.21875 -0.609375 0.5625 -0.890625q0.34375 -0.28125 0.875 -0.40625q0.328125 -0.0625 1.1875 -0.0625l1.71875 0q1.796875 0 2.28125 -0.078125q0.46875 -0.078125 0.90625 -0.328125l0 1.34375q-0.40625 0.203125 -0.9375 0.265625zm-2.875 0.109375q0.28125 0.703125 0.484375 2.09375q0.109375 0.796875 0.265625 1.125q0.140625 0.328125 0.421875 0.515625q0.265625 0.171875 0.59375 0.171875q0.515625 0 0.859375 -0.390625q0.34375 -0.390625 0.34375 -1.140625q0 -0.734375 -0.3125 -1.3125q-0.328125 -0.59375 -0.890625 -0.859375q-0.4375 -0.203125 -1.296875 -0.203125l-0.46875 0zm3.8125 -8.229248l-0.953125 0q1.125 0.71875 1.125 2.125q0 0.90625 -0.5 1.671875q-0.5 0.75 -1.390625 1.171875q-0.90625 0.421875 -2.078125 0.421875q-1.140625 0 -2.0625 -0.375q-0.921875 -0.390625 -1.40625 -1.140625q-0.5 -0.765625 -0.5 -1.703125q0 -0.6875 0.296875 -1.21875q0.28125 -0.53125 0.734375 -0.875l-3.75 0l0 -1.28125l10.484375 0l0 1.203125zm-3.796875 4.0625q1.46875 0 2.1875 -0.609375q0.71875 -0.625 0.71875 -1.453125q0 -0.84375 -0.6875 -1.4375q-0.6875 -0.59375 -2.109375 -0.59375q-1.5625 0 -2.28125 0.609375q-0.734375 0.59375 -0.734375 1.484375q0 0.84375 0.703125 1.421875q0.703125 0.578125 2.203125 0.578125zm3.796875 -12.213623l-0.953125 0q1.125 0.71875 1.125 2.125q0 0.90625 -0.5 1.671875q-0.5 0.75 -1.390625 1.171875q-0.90625 0.421875 -2.078125 0.421875q-1.140625 0 -2.0625 -0.375q-0.921875 -0.390625 -1.40625 -1.140625q-0.5 -0.765625 -0.5 -1.703125q0 -0.6875 0.296875 -1.21875q0.28125 -0.53125 0.734375 -0.875l-3.75 0l0 -1.28125l10.484375 0l0 1.203125zm-3.796875 4.0625q1.46875 0 2.1875 -0.609375q0.71875 -0.625 0.71875 -1.453125q0 -0.84375 -0.6875 -1.4375q-0.6875 -0.59375 -2.109375 -0.59375q-1.5625 0 -2.28125 0.609375q-0.734375 0.59375 -0.734375 1.484375q0 0.84375 0.703125 1.421875q0.703125 0.578125 2.203125 0.578125zm-5.21875 -7.291748l-1.46875 0l0 -1.296875l1.46875 0l0 1.296875zm9.015625 0l-7.59375 0l0 -1.296875l7.59375 0l0 1.296875zm0 -3.2561035l-7.59375 0l0 -1.15625l1.078125 0q-1.25 -0.84375 -1.25 -2.421875q0 -0.6875 0.25 -1.265625q0.234375 -0.578125 0.640625 -0.859375q0.40625 -0.28125 0.953125 -0.40625q0.359375 -0.0625 1.25 -0.0625l4.671875 0l0 1.28125l-4.625 0q-0.78125 0 -1.171875 0.15625q-0.390625 0.15625 -0.625 0.546875q-0.234375 0.375 -0.234375 0.890625q0 0.8125 0.53125 1.421875q0.515625 0.59375 1.96875 0.59375l4.15625 0l0 1.28125zm0.625 -7.916748l0.1875 -1.25q0.578125 -0.078125 0.84375 -0.4375q0.359375 -0.46875 0.359375 -1.3125q0 -0.890625 -0.359375 -1.375q-0.359375 -0.484375 -1.0 -0.65625q-0.390625 -0.109375 -1.65625 -0.09375q1.0 0.84375 1.0 2.109375q0 1.5625 -1.125 2.421875q-1.140625 0.859375 -2.71875 0.859375q-1.09375 0 -2.0 -0.390625q-0.921875 -0.40625 -1.421875 -1.140625q-0.5 -0.75 -0.5 -1.765625q0 -1.34375 1.078125 -2.21875l-0.90625 0l0 -1.1875l6.5625 0q1.78125 0 2.515625 0.359375q0.734375 0.359375 1.15625 1.15625q0.4375 0.78125 0.4375 1.921875q0 1.359375 -0.609375 2.203125q-0.609375 0.828125 -1.84375 0.796875zm-4.5625 -1.0625q1.5 0 2.1875 -0.59375q0.6875 -0.59375 0.6875 -1.484375q0 -0.890625 -0.6875 -1.484375q-0.6875 -0.609375 -2.140625 -0.609375q-1.390625 0 -2.09375 0.625q-0.71875 0.609375 -0.71875 1.484375q0 0.859375 0.703125 1.46875q0.6875 0.59375 2.0625 0.59375z"
              fill-rule="nonzero"/>
        <path fill="#000000" fill-opacity="0.0" d="m224.0 616.0l0 -88.0l64.0 0l0 88.0z" fill-rule="evenodd"/>
        <path fill="#000000"
              d="m261.08002 601.2258l-10.48439 0l0 -1.28125l3.75 0q-1.03125 -0.90625 -1.03125 -2.28125q0 -0.84375 0.328125 -1.46875q0.328125 -0.625 0.921875 -0.890625q0.578125 -0.265625 1.7031403 -0.265625l4.8125 0l0 1.28125l-4.8125 0q-0.96876526 0 -1.4062653 0.421875q-0.4375 0.421875 -0.4375 1.1875q0 0.578125 0.296875 1.078125q0.296875 0.5 0.8125 0.71875q0.50001526 0.21875 1.3906403 0.21875l4.15625 0l0 1.28125zm-3.15625 -7.651123l-1.28125 0l0 -3.953125l1.28125 0l0 3.953125zm6.0625 -5.3806763l-10.500015 0l0 -1.171875l0.984375 0q-0.578125 -0.421875 -0.859375 -0.9375q-0.296875 -0.515625 -0.296875 -1.265625q0 -0.96875 0.5 -1.71875q0.5 -0.75 1.421875 -1.125q0.90626526 -0.375 1.9843903 -0.375q1.171875 0 2.109375 0.421875q0.921875 0.40625 1.421875 1.21875q0.5 0.796875 0.5 1.671875q0 0.640625 -0.265625 1.15625q-0.28125 0.515625 -0.6875 0.84375l3.6875 0l0 1.28125zm-6.65625 -1.15625q1.453125 0 2.15625 -0.59375q0.703125 -0.609375 0.703125 -1.453125q0 -0.859375 -0.71875 -1.46875q-0.734375 -0.609375 -2.25 -0.609375q-1.4531403 0 -2.1718903 0.609375q-0.734375 0.59375 -0.734375 1.421875q0 0.8125 0.78125 1.453125q0.765625 0.640625 2.2343903 0.640625zm2.8125 -11.947937q0.609375 0.71875 0.859375 1.375q0.25 0.65625 0.25 1.421875q0 1.25 -0.609375 1.921875q-0.609375 0.671875 -1.5625 0.671875q-0.5625 0 -1.015625 -0.25q-0.46875 -0.25 -0.75 -0.65625q-0.28125 -0.421875 -0.421875 -0.9375q-0.09375 -0.375 -0.1875 -1.140625q-0.1875 -1.5625 -0.453125 -2.296875q-0.26564026 -0.015625 -0.32814026 -0.015625q-0.796875 0 -1.109375 0.375q-0.4375 0.484375 -0.4375 1.453125q0 0.921875 0.328125 1.359375q0.3125 0.421875 1.109375 0.625l-0.171875 1.265625q-0.796875 -0.171875 -1.296875 -0.5625q-0.5 -0.390625 -0.765625 -1.140625q-0.265625 -0.75 -0.265625 -1.71875q0 -0.984375 0.234375 -1.59375q0.21875 -0.609375 0.5625 -0.890625q0.34375 -0.28125 0.875 -0.40625q0.328125 -0.0625 1.1875153 -0.0625l1.71875 0q1.796875 0 2.28125 -0.078125q0.46875 -0.078125 0.90625 -0.328125l0 1.34375q-0.40625 0.203125 -0.9375 0.265625zm-2.875 0.109375q0.28125 0.703125 0.484375 2.09375q0.109375 0.796875 0.265625 1.125q0.140625 0.328125 0.421875 0.515625q0.265625 0.171875 0.59375 0.171875q0.515625 0 0.859375 -0.390625q0.34375 -0.390625 0.34375 -1.140625q0 -0.734375 -0.3125 -1.3125q-0.328125 -0.59375 -0.890625 -0.859375q-0.4375 -0.203125 -1.296875 -0.203125l-0.46875 0zm3.8125 -8.229248l-0.953125 0q1.125 0.71875 1.125 2.125q0 0.90625 -0.5 1.671875q-0.5 0.75 -1.390625 1.171875q-0.90625 0.421875 -2.078125 0.421875q-1.140625 0 -2.0625153 -0.375q-0.921875 -0.390625 -1.40625 -1.140625q-0.5 -0.765625 -0.5 -1.703125q0 -0.6875 0.296875 -1.21875q0.28125 -0.53125 0.734375 -0.875l-3.75 0l0 -1.28125l10.48439 0l0 1.203125zm-3.796875 4.0625q1.46875 0 2.1875 -0.609375q0.71875 -0.625 0.71875 -1.453125q0 -0.84375 -0.6875 -1.4375q-0.6875 -0.59375 -2.109375 -0.59375q-1.5625153 0 -2.2812653 0.609375q-0.734375 0.59375 -0.734375 1.484375q0 0.84375 0.703125 1.421875q0.703125 0.578125 2.2031403 0.578125zm3.796875 -12.213623l-0.953125 0q1.125 0.71875 1.125 2.125q0 0.90625 -0.5 1.671875q-0.5 0.75 -1.390625 1.171875q-0.90625 0.421875 -2.078125 0.421875q-1.140625 0 -2.0625153 -0.375q-0.921875 -0.390625 -1.40625 -1.140625q-0.5 -0.765625 -0.5 -1.703125q0 -0.6875 0.296875 -1.21875q0.28125 -0.53125 0.734375 -0.875l-3.75 0l0 -1.28125l10.48439 0l0 1.203125zm-3.796875 4.0625q1.46875 0 2.1875 -0.609375q0.71875 -0.625 0.71875 -1.453125q0 -0.84375 -0.6875 -1.4375q-0.6875 -0.59375 -2.109375 -0.59375q-1.5625153 0 -2.2812653 0.609375q-0.734375 0.59375 -0.734375 1.484375q0 0.84375 0.703125 1.421875q0.703125 0.578125 2.2031403 0.578125zm-5.2187653 -7.291748l-1.46875 0l0 -1.296875l1.46875 0l0 1.296875zm9.01564 0l-7.5937653 0l0 -1.296875l7.5937653 0l0 1.296875zm0 -3.2561035l-7.5937653 0l0 -1.15625l1.078125 0q-1.25 -0.84375 -1.25 -2.421875q0 -0.6875 0.25 -1.265625q0.234375 -0.578125 0.640625 -0.859375q0.40625 -0.28125 0.953125 -0.40625q0.359375 -0.0625 1.2500153 -0.0625l4.671875 0l0 1.28125l-4.625 0q-0.78126526 0 -1.1718903 0.15625q-0.390625 0.15625 -0.625 0.546875q-0.234375 0.375 -0.234375 0.890625q0 0.8125 0.53125 1.421875q0.515625 0.59375 1.9687653 0.59375l4.15625 0l0 1.28125zm0.625 -7.916748l0.1875 -1.25q0.578125 -0.078125 0.84375 -0.4375q0.359375 -0.46875 0.359375 -1.3125q0 -0.890625 -0.359375 -1.375q-0.359375 -0.484375 -1.0 -0.65625q-0.390625 -0.109375 -1.65625 -0.09375q1.0 0.84375 1.0 2.109375q0 1.5625 -1.125 2.421875q-1.140625 0.859375 -2.71875 0.859375q-1.09375 0 -2.0000153 -0.390625q-0.921875 -0.40625 -1.421875 -1.140625q-0.5 -0.75 -0.5 -1.765625q0 -1.34375 1.078125 -2.21875l-0.90625 0l0 -1.1875l6.5625153 0q1.78125 0 2.515625 0.359375q0.734375 0.359375 1.15625 1.15625q0.4375 0.78125 0.4375 1.921875q0 1.359375 -0.609375 2.203125q-0.609375 0.828125 -1.84375 0.796875zm-4.5625 -1.0625q1.5 0 2.1875 -0.59375q0.6875 -0.59375 0.6875 -1.484375q0 -0.890625 -0.6875 -1.484375q-0.6875 -0.609375 -2.140625 -0.609375q-1.3906403 0 -2.0937653 0.625q-0.71875 0.609375 -0.71875 1.484375q0 0.859375 0.703125 1.46875q0.6875 0.59375 2.0625153 0.59375z"
              fill-rule="nonzero"/>
        <path fill="#000000" fill-opacity="0.0" d="m296.0 616.0l0 -88.0l64.0 0l0 88.0z" fill-rule="evenodd"/>
        <path fill="#000000"
              d="m333.08002 586.2284l-6.59375 0l0 1.140625l-1.0 0l0 -1.140625l-0.8125 0q-0.765625 0 -1.140625 -0.125q-0.5 -0.1875 -0.8125 -0.65625q-0.3125 -0.46875 -0.3125 -1.3125q0 -0.546875 0.125 -1.203125l1.125 0.1875q-0.0625 0.40625 -0.0625 0.765625q0 0.578125 0.25 0.828125q0.25 0.234375 0.9375 0.234375l0.703125 0l0 -1.46875l1.0 0l0 1.46875l6.59375 0l0 1.28125zm0 -3.7438354l-7.59375 0l0 -1.15625l1.140625 0q-0.796875 -0.453125 -1.046875 -0.828125q-0.265625 -0.375 -0.265625 -0.8125q0 -0.65625 0.40625 -1.328125l1.203125 0.4375q-0.28125 0.46875 -0.28125 0.953125q0 0.421875 0.25 0.765625q0.25 0.328125 0.703125 0.46875q0.6875 0.21875 1.5 0.21875l3.984375 0l0 1.28125zm-2.453125 -10.099365l0.171875 -1.328125q1.171875 0.3125 1.8125 1.171875q0.640625 0.84375 0.640625 2.171875q0 1.671875 -1.015625 2.65625q-1.03125 0.96875 -2.890625 0.96875q-1.921875 0 -2.96875 -0.984375q-1.0625 -1.0 -1.0625 -2.578125q0 -1.515625 1.03125 -2.484375q1.03125 -0.96875 2.921875 -0.96875q0.109375 0 0.34375 0.015625l0 5.65625q1.25 -0.0625 1.921875 -0.703125q0.65625 -0.640625 0.65625 -1.59375q0 -0.703125 -0.359375 -1.203125q-0.375 -0.5 -1.203125 -0.796875zm-2.078125 4.234375l0 -4.25q-0.953125 0.09375 -1.4375 0.484375q-0.75 0.625 -0.75 1.609375q0 0.875 0.59375 1.484375q0.59375 0.609375 1.59375 0.671875zm3.375 -9.994873l1.140625 -0.1875q0.109375 0.546875 0.109375 0.984375q0 0.6875 -0.21875 1.078125q-0.21875 0.390625 -0.578125 0.546875q-0.359375 0.15625 -1.515625 0.15625l-4.375 0l0 0.953125l-1.0 0l0 -0.953125l-1.890625 0l-0.765625 -1.28125l2.65625 0l0 -1.296875l1.0 0l0 1.296875l4.4375 0q0.546875 0 0.71875 -0.0625q0.15625 -0.078125 0.25 -0.21875q0.078125 -0.15625 0.078125 -0.453125q0 -0.203125 -0.046875 -0.5625zm-2.0 -0.75946045l-1.28125 0l0 -3.953125l1.28125 0l0 3.953125zm3.78125 -5.1463013l0.1875 -1.25q0.578125 -0.078125 0.84375 -0.4375q0.359375 -0.46875 0.359375 -1.3125q0 -0.890625 -0.359375 -1.375q-0.359375 -0.484375 -1.0 -0.65625q-0.390625 -0.109375 -1.65625 -0.09375q1.0 0.84375 1.0 2.109375q0 1.5625 -1.125 2.421875q-1.140625 0.859375 -2.71875 0.859375q-1.09375 0 -2.0 -0.390625q-0.921875 -0.40625 -1.421875 -1.140625q-0.5 -0.75 -0.5 -1.765625q0 -1.34375 1.078125 -2.21875l-0.90625 0l0 -1.1875l6.5625 0q1.78125 0 2.515625 0.359375q0.734375 0.359375 1.15625 1.15625q0.4375 0.78125 0.4375 1.921875q0 1.359375 -0.609375 2.203125q-0.609375 0.828125 -1.84375 0.796875zm-4.5625 -1.0625q1.5 0 2.1875 -0.59375q0.6875 -0.59375 0.6875 -1.484375q0 -0.890625 -0.6875 -1.484375q-0.6875 -0.609375 -2.140625 -0.609375q-1.390625 0 -2.09375 0.625q-0.71875 0.609375 -0.71875 1.484375q0 0.859375 0.703125 1.46875q0.6875 0.59375 2.0625 0.59375zm3.0 -12.276062q0.609375 0.71875 0.859375 1.375q0.25 0.65625 0.25 1.421875q0 1.25 -0.609375 1.921875q-0.609375 0.671875 -1.5625 0.671875q-0.5625 0 -1.015625 -0.25q-0.46875 -0.25 -0.75 -0.65625q-0.28125 -0.421875 -0.421875 -0.9375q-0.09375 -0.375 -0.1875 -1.140625q-0.1875 -1.5625 -0.453125 -2.296875q-0.265625 -0.015625 -0.328125 -0.015625q-0.796875 0 -1.109375 0.375q-0.4375 0.484375 -0.4375 1.453125q0 0.921875 0.328125 1.359375q0.3125 0.421875 1.109375 0.625l-0.171875 1.265625q-0.796875 -0.171875 -1.296875 -0.5625q-0.5 -0.390625 -0.765625 -1.140625q-0.265625 -0.75 -0.265625 -1.71875q0 -0.984375 0.234375 -1.59375q0.21875 -0.609375 0.5625 -0.890625q0.34375 -0.28125 0.875 -0.40625q0.328125 -0.0625 1.1875 -0.0625l1.71875 0q1.796875 0 2.28125 -0.078125q0.46875 -0.078125 0.90625 -0.328125l0 1.34375q-0.40625 0.203125 -0.9375 0.265625zm-2.875 0.109375q0.28125 0.703125 0.484375 2.09375q0.109375 0.796875 0.265625 1.125q0.140625 0.328125 0.421875 0.515625q0.265625 0.171875 0.59375 0.171875q0.515625 0 0.859375 -0.390625q0.34375 -0.390625 0.34375 -1.140625q0 -0.734375 -0.3125 -1.3125q-0.328125 -0.59375 -0.890625 -0.859375q-0.4375 -0.203125 -1.296875 -0.203125l-0.46875 0zm6.71875 -3.307373l-10.5 0l0 -1.171875l0.984375 0q-0.578125 -0.421875 -0.859375 -0.9375q-0.296875 -0.515625 -0.296875 -1.265625q0 -0.96875 0.5 -1.71875q0.5 -0.75 1.421875 -1.125q0.90625 -0.375 1.984375 -0.375q1.171875 0 2.109375 0.421875q0.921875 0.40625 1.421875 1.21875q0.5 0.796875 0.5 1.671875q0 0.640625 -0.265625 1.15625q-0.28125 0.515625 -0.6875 0.84375l3.6875 0l0 1.28125zm-6.65625 -1.15625q1.453125 0 2.15625 -0.59375q0.703125 -0.609375 0.703125 -1.453125q0 -0.859375 -0.71875 -1.46875q-0.734375 -0.609375 -2.25 -0.609375q-1.453125 0 -2.171875 0.609375q-0.734375 0.59375 -0.734375 1.421875q0 0.8125 0.78125 1.453125q0.765625 0.640625 2.234375 0.640625z"
              fill-rule="nonzero"/>
        <path fill="#000000" fill-opacity="0.0" d="m688.0 616.0l0 -88.0l32.0 0l0 88.0z" fill-rule="evenodd"/>
        <path fill="#000000"
              d="m709.08 594.35803l-6.59375 0l0 1.140625l-1.0 0l0 -1.140625l-0.8125 0q-0.765625 0 -1.140625 -0.125q-0.5 -0.1875 -0.8125 -0.65625q-0.3125 -0.46875 -0.3125 -1.3125q0 -0.546875 0.125 -1.203125l1.125 0.1875q-0.0625 0.40625 -0.0625 0.765625q0 0.578125 0.25 0.828125q0.25 0.234375 0.9375 0.234375l0.703125 0l0 -1.46875l1.0 0l0 1.46875l6.59375 0l0 1.28125zm0 -3.7438354l-7.59375 0l0 -1.15625l1.140625 0q-0.796875 -0.453125 -1.046875 -0.828125q-0.265625 -0.375 -0.265625 -0.8125q0 -0.65625 0.40625 -1.328125l1.203125 0.4375q-0.28125 0.46875 -0.28125 0.953125q0 0.421875 0.25 0.765625q0.25 0.328125 0.703125 0.46875q0.6875 0.21875 1.5 0.21875l3.984375 0l0 1.28125zm-2.453125 -10.099365l0.171875 -1.328125q1.171875 0.3125 1.8125 1.171875q0.640625 0.84375 0.640625 2.171875q0 1.671875 -1.015625 2.65625q-1.03125 0.96875 -2.890625 0.96875q-1.921875 0 -2.96875 -0.984375q-1.0625 -1.0 -1.0625 -2.578125q0 -1.515625 1.03125 -2.484375q1.03125 -0.96875 2.921875 -0.96875q0.109375 0 0.34375 0.015625l0 5.65625q1.25 -0.0625 1.921875 -0.703125q0.65625 -0.640625 0.65625 -1.59375q0 -0.703125 -0.359375 -1.203125q-0.375 -0.5 -1.203125 -0.796875zm-2.078125 4.234375l0 -4.25q-0.953125 0.09375 -1.4375 0.484375q-0.75 0.625 -0.75 1.609375q0 0.875 0.59375 1.484375q0.59375 0.609375 1.59375 0.671875zm3.375 -9.994873l1.140625 -0.1875q0.109375 0.546875 0.109375 0.984375q0 0.6875 -0.21875 1.078125q-0.21875 0.390625 -0.578125 0.546875q-0.359375 0.15625 -1.515625 0.15625l-4.375 0l0 0.953125l-1.0 0l0 -0.953125l-1.890625 0l-0.765625 -1.28125l2.65625 0l0 -1.296875l1.0 0l0 1.296875l4.4375 0q0.546875 0 0.71875 -0.0625q0.15625 -0.078125 0.25 -0.21875q0.078125 -0.15625 0.078125 -0.453125q0 -0.203125 -0.046875 -0.5625zm-2.0 -0.75946045l-1.28125 0l0 -3.953125l1.28125 0l0 3.953125zm0.703125 -10.583801l0.171875 -1.328125q1.171875 0.3125 1.8125 1.171875q0.640625 0.84375 0.640625 2.171875q0 1.671875 -1.015625 2.65625q-1.03125 0.96875 -2.890625 0.96875q-1.921875 0 -2.96875 -0.984375q-1.0625 -1.0 -1.0625 -2.578125q0 -1.515625 1.03125 -2.484375q1.03125 -0.96875 2.921875 -0.96875q0.109375 0 0.34375 0.015625l0 5.65625q1.25 -0.0625 1.921875 -0.703125q0.65625 -0.640625 0.65625 -1.59375q0 -0.703125 -0.359375 -1.203125q-0.375 -0.5 -1.203125 -0.796875zm-2.078125 4.234375l0 -4.25q-0.953125 0.09375 -1.4375 0.484375q-0.75 0.625 -0.75 1.609375q0 0.875 0.59375 1.484375q0.59375 0.609375 1.59375 0.671875zm4.53125 -6.322937l-3.953125 -2.78125l-3.640625 2.578125l0 -1.609375l1.78125 -1.171875q0.5 -0.328125 0.84375 -0.53125q-0.46875 -0.3125 -0.828125 -0.578125l-1.796875 -1.28125l0 -1.53125l3.578125 2.625l4.015625 -2.828125l0 1.578125l-2.359375 1.5625l-0.640625 0.40625l3.0 2.0l0 1.5625zm-1.15625 -11.0l1.140625 -0.1875q0.109375 0.546875 0.109375 0.984375q0 0.6875 -0.21875 1.078125q-0.21875 0.390625 -0.578125 0.546875q-0.359375 0.15625 -1.515625 0.15625l-4.375 0l0 0.953125l-1.0 0l0 -0.953125l-1.890625 0l-0.765625 -1.28125l2.65625 0l0 -1.296875l1.0 0l0 1.296875l4.4375 0q0.546875 0 0.71875 -0.0625q0.15625 -0.078125 0.25 -0.21875q0.078125 -0.15625 0.078125 -0.453125q0 -0.203125 -0.046875 -0.5625zm1.15625 -1.2438965l-7.59375 0l0 -1.15625l1.140625 0q-0.796875 -0.453125 -1.046875 -0.828125q-0.265625 -0.375 -0.265625 -0.8125q0 -0.65625 0.40625 -1.328125l1.203125 0.4375q-0.28125 0.46875 -0.28125 0.953125q0 0.421875 0.25 0.765625q0.25 0.328125 0.703125 0.46875q0.6875 0.21875 1.5 0.21875l3.984375 0l0 1.28125zm-0.9375 -9.849365q0.609375 0.71875 0.859375 1.375q0.25 0.65625 0.25 1.421875q0 1.25 -0.609375 1.921875q-0.609375 0.671875 -1.5625 0.671875q-0.5625 0 -1.015625 -0.25q-0.46875 -0.25 -0.75 -0.65625q-0.28125 -0.421875 -0.421875 -0.9375q-0.09375 -0.375 -0.1875 -1.140625q-0.1875 -1.5625 -0.453125 -2.296875q-0.265625 -0.015625 -0.328125 -0.015625q-0.796875 0 -1.109375 0.375q-0.4375 0.484375 -0.4375 1.453125q0 0.921875 0.328125 1.359375q0.3125 0.421875 1.109375 0.625l-0.171875 1.265625q-0.796875 -0.171875 -1.296875 -0.5625q-0.5 -0.390625 -0.765625 -1.140625q-0.265625 -0.75 -0.265625 -1.71875q0 -0.984375 0.234375 -1.59375q0.21875 -0.609375 0.5625 -0.890625q0.34375 -0.28125 0.875 -0.40625q0.328125 -0.0625 1.1875 -0.0625l1.71875 0q1.796875 0 2.28125 -0.078125q0.46875 -0.078125 0.90625 -0.328125l0 1.34375q-0.40625 0.203125 -0.9375 0.265625zm-2.875 0.109375q0.28125 0.703125 0.484375 2.09375q0.109375 0.796875 0.265625 1.125q0.140625 0.328125 0.421875 0.515625q0.265625 0.171875 0.59375 0.171875q0.515625 0 0.859375 -0.390625q0.34375 -0.390625 0.34375 -1.140625q0 -0.734375 -0.3125 -1.3125q-0.328125 -0.59375 -0.890625 -0.859375q-0.4375 -0.203125 -1.296875 -0.203125l-0.46875 0z"
              fill-rule="nonzero"/>
        <path fill="#000000" fill-opacity="0.0" d="m224.0 624.0l560.0 0l0 40.0l-560.0 0z" fill-rule="evenodd"/>
        <path fill="#000000"
              d="m478.4866 649.08l0 -10.484375l1.28125 0l0 3.75q0.90625 -1.03125 2.28125 -1.03125q0.84375 0 1.46875 0.328125q0.625 0.328125 0.890625 0.921875q0.265625 0.578125 0.265625 1.703125l0 4.8125l-1.28125 0l0 -4.8125q0 -0.96875 -0.421875 -1.40625q-0.421875 -0.4375 -1.1875 -0.4375q-0.578125 0 -1.078125 0.296875q-0.5 0.296875 -0.71875 0.8125q-0.21875 0.5 -0.21875 1.390625l0 4.15625l-1.28125 0zm7.6510925 -3.15625l0 -1.28125l3.953125 0l0 1.28125l-3.953125 0zm5.3494263 3.15625l0 -10.484375l1.28125 0l0 10.484375l-1.28125 0zm8.490509 -2.453125l1.328125 0.171875q-0.3125 1.171875 -1.171875 1.8125q-0.84375 0.640625 -2.171875 0.640625q-1.671875 0 -2.65625 -1.015625q-0.96875 -1.03125 -0.96875 -2.890625q0 -1.921875 0.984375 -2.96875q1.0 -1.0625 2.578125 -1.0625q1.515625 0 2.484375 1.03125q0.96875 1.03125 0.96875 2.921875q0 0.109375 -0.015625 0.34375l-5.65625 0q0.0625 1.25 0.703125 1.921875q0.640625 0.65625 1.59375 0.65625q0.703125 0 1.203125 -0.359375q0.5 -0.375 0.796875 -1.203125zm-4.234375 -2.078125l4.25 0q-0.09375 -0.953125 -0.484375 -1.4375q-0.625 -0.75 -1.609375 -0.75q-0.875 0 -1.484375 0.59375q-0.609375 0.59375 -0.671875 1.59375zm7.1823425 4.53125l0 -7.59375l1.15625 0l0 1.078125q0.84375 -1.25 2.421875 -1.25q0.6875 0 1.265625 0.25q0.578125 0.234375 0.859375 0.640625q0.28125 0.40625 0.40625 0.953125q0.0625 0.359375 0.0625 1.25l0 4.671875l-1.28125 0l0 -4.625q0 -0.78125 -0.15625 -1.171875q-0.15625 -0.390625 -0.546875 -0.625q-0.375 -0.234375 -0.890625 -0.234375q-0.8125 0 -1.421875 0.53125q-0.59375 0.515625 -0.59375 1.96875l0 4.15625l-1.28125 0zm7.916748 0.625l1.25 0.1875q0.078125 0.578125 0.4375 0.84375q0.46875 0.359375 1.3125 0.359375q0.890625 0 1.375 -0.359375q0.484375 -0.359375 0.65625 -1.0q0.109375 -0.390625 0.09375 -1.65625q-0.84375 1.0 -2.109375 1.0q-1.5625 0 -2.421875 -1.125q-0.859375 -1.140625 -0.859375 -2.71875q0 -1.09375 0.390625 -2.0q0.40625 -0.921875 1.140625 -1.421875q0.75 -0.5 1.765625 -0.5q1.34375 0 2.21875 1.078125l0 -0.90625l1.1875 0l0 6.5625q0 1.78125 -0.359375 2.515625q-0.359375 0.734375 -1.15625 1.15625q-0.78125 0.4375 -1.921875 0.4375q-1.359375 0 -2.203125 -0.609375q-0.828125 -0.609375 -0.796875 -1.84375zm1.0625 -4.5625q0 1.5 0.59375 2.1875q0.59375 0.6875 1.484375 0.6875q0.890625 0 1.484375 -0.6875q0.609375 -0.6875 0.609375 -2.140625q0 -1.390625 -0.625 -2.09375q-0.609375 -0.71875 -1.484375 -0.71875q-0.859375 0 -1.46875 0.703125q-0.59375 0.6875 -0.59375 2.0625zm10.135498 2.78125l0.1875 1.140625q-0.546875 0.109375 -0.984375 0.109375q-0.6875 0 -1.078125 -0.21875q-0.390625 -0.21875 -0.546875 -0.578125q-0.15625 -0.359375 -0.15625 -1.515625l0 -4.375l-0.953125 0l0 -1.0l0.953125 0l0 -1.890625l1.28125 -0.765625l0 2.65625l1.296875 0l0 1.0l-1.296875 0l0 4.4375q0 0.546875 0.0625 0.71875q0.078125 0.15625 0.21875 0.25q0.15625 0.078125 0.453125 0.078125q0.203125 0 0.5625 -0.046875zm1.2594604 1.15625l0 -10.484375l1.28125 0l0 3.75q0.90625 -1.03125 2.28125 -1.03125q0.84375 0 1.46875 0.328125q0.625 0.328125 0.890625 0.921875q0.265625 0.578125 0.265625 1.703125l0 4.8125l-1.28125 0l0 -4.8125q0 -0.96875 -0.421875 -1.40625q-0.421875 -0.4375 -1.1875 -0.4375q-0.578125 0 -1.078125 0.296875q-0.5 0.296875 -0.71875 0.8125q-0.21875 0.5 -0.21875 1.390625l0 4.15625l-1.28125 0z"
              fill-rule="nonzero"/>
        <path fill="#000000" fill-opacity="0.0" d="m176.0 128.0l0 368.0" fill-rule="evenodd"/>
        <path stroke="#000000" stroke-width="1.0" stroke-linejoin="round" stroke-linecap="butt" d="m176.0 134.0l0 356.0"
              fill-rule="evenodd"/>
        <path fill="#000000" stroke="#000000" stroke-width="1.0" stroke-linecap="butt"
              d="m177.65173 134.0l-1.6517334 -4.538101l-1.6517334 4.538101z" fill-rule="evenodd"/>
        <path fill="#000000" stroke="#000000" stroke-width="1.0" stroke-linecap="butt"
              d="m174.34827 490.0l1.6517334 4.538086l1.6517334 -4.538086z" fill-rule="evenodd"/>
        <path fill="#000000" fill-opacity="0.0" d="m144.0 496.0l0 -368.0l32.0 0l0 368.0z" fill-rule="evenodd"/>
        <path fill="#000000"
              d="m165.08 334.99255l-7.59375 2.890625l0 -1.359375l4.546875 -1.625q0.734375 -0.265625 1.53125 -0.5q-0.609375 -0.15625 -1.453125 -0.46875l-4.625 -1.6875l0 -1.328125l7.59375 2.875l0 1.203125zm-3.15625 -4.71875l-1.28125 0l0 -3.953125l1.28125 0l0 3.953125zm3.15625 -5.3494263l-10.484375 0l0 -1.28125l10.484375 0l0 1.28125zm-2.453125 -8.490509l0.171875 -1.328125q1.171875 0.3125 1.8125 1.171875q0.640625 0.84375 0.640625 2.171875q0 1.671875 -1.015625 2.65625q-1.03125 0.96875 -2.890625 0.96875q-1.921875 0 -2.96875 -0.984375q-1.0625 -1.0 -1.0625 -2.578125q0 -1.515625 1.03125 -2.484375q1.03125 -0.96875 2.921875 -0.96875q0.109375 0 0.34375 0.015625l0 5.65625q1.25 -0.0625 1.921875 -0.703125q0.65625 -0.640625 0.65625 -1.59375q0 -0.703125 -0.359375 -1.203125q-0.375 -0.5 -1.203125 -0.796875zm-2.078125 4.234375l0 -4.25q-0.953125 0.09375 -1.4375 0.484375q-0.75 0.625 -0.75 1.609375q0 0.875 0.59375 1.484375q0.59375 0.609375 1.59375 0.671875zm4.53125 -7.1823425l-7.59375 0l0 -1.15625l1.078125 0q-1.25 -0.84375 -1.25 -2.421875q0 -0.6875 0.25 -1.265625q0.234375 -0.578125 0.640625 -0.859375q0.40625 -0.28125 0.953125 -0.40625q0.359375 -0.0625 1.25 -0.0625l4.671875 0l0 1.28125l-4.625 0q-0.78125 0 -1.171875 0.15625q-0.390625 0.15625 -0.625 0.546875q-0.234375 0.375 -0.234375 0.890625q0 0.8125 0.53125 1.421875q0.515625 0.59375 1.96875 0.59375l4.15625 0l0 1.28125zm0.625 -7.916748l0.1875 -1.25q0.578125 -0.078125 0.84375 -0.4375q0.359375 -0.46875 0.359375 -1.3125q0 -0.890625 -0.359375 -1.375q-0.359375 -0.484375 -1.0 -0.65625q-0.390625 -0.109375 -1.65625 -0.09375q1.0 0.84375 1.0 2.109375q0 1.5625 -1.125 2.421875q-1.140625 0.859375 -2.71875 0.859375q-1.09375 0 -2.0 -0.390625q-0.921875 -0.40625 -1.421875 -1.140625q-0.5 -0.75 -0.5 -1.765625q0 -1.34375 1.078125 -2.21875l-0.90625 0l0 -1.1875l6.5625 0q1.78125 0 2.515625 0.359375q0.734375 0.359375 1.15625 1.15625q0.4375 0.78125 0.4375 1.921875q0 1.359375 -0.609375 2.203125q-0.609375 0.828125 -1.84375 0.796875zm-4.5625 -1.0625q1.5 0 2.1875 -0.59375q0.6875 -0.59375 0.6875 -1.484375q0 -0.890625 -0.6875 -1.484375q-0.6875 -0.609375 -2.140625 -0.609375q-1.390625 0 -2.09375 0.625q-0.71875 0.609375 -0.71875 1.484375q0 0.859375 0.703125 1.46875q0.6875 0.59375 2.0625 0.59375zm2.78125 -10.135498l1.140625 -0.1875q0.109375 0.546875 0.109375 0.984375q0 0.6875 -0.21875 1.078125q-0.21875 0.390625 -0.578125 0.546875q-0.359375 0.15625 -1.515625 0.15625l-4.375 0l0 0.953125l-1.0 0l0 -0.953125l-1.890625 0l-0.765625 -1.28125l2.65625 0l0 -1.296875l1.0 0l0 1.296875l4.4375 0q0.546875 0 0.71875 -0.0625q0.15625 -0.078125 0.25 -0.21875q0.078125 -0.15625 0.078125 -0.453125q0 -0.203125 -0.046875 -0.5625zm1.15625 -1.2594604l-10.484375 0l0 -1.28125l3.75 0q-1.03125 -0.90625 -1.03125 -2.28125q0 -0.84375 0.328125 -1.46875q0.328125 -0.625 0.921875 -0.890625q0.578125 -0.265625 1.703125 -0.265625l4.8125 0l0 1.28125l-4.8125 0q-0.96875 0 -1.40625 0.421875q-0.4375 0.421875 -0.4375 1.1875q0 0.578125 0.296875 1.078125q0.296875 0.5 0.8125 0.71875q0.5 0.21875 1.390625 0.21875l4.15625 0l0 1.28125z"
              fill-rule="nonzero"/>
        <path fill="#000000" fill-opacity="0.0" d="m288.0 56.0l0 120.0" fill-rule="evenodd"/>
        <path stroke="#000000" stroke-width="1.0" stroke-linejoin="round" stroke-linecap="butt"
              stroke-dasharray="4.0,3.0" d="m288.0 56.0l0 120.0" fill-rule="evenodd"/>
        <path fill="#000000" fill-opacity="0.0" d="m328.0 56.0l0 160.0" fill-rule="evenodd"/>
        <path stroke="#000000" stroke-width="1.0" stroke-linejoin="round" stroke-linecap="butt"
              stroke-dasharray="4.0,3.0" d="m328.0 56.0l0 160.0" fill-rule="evenodd"/>
        <path fill="#000000" fill-opacity="0.0" d="m256.0 56.0l0 112.0" fill-rule="evenodd"/>
        <path stroke="#000000" stroke-width="1.0" stroke-linejoin="round" stroke-linecap="butt"
              stroke-dasharray="4.0,3.0" d="m256.0 56.0l0 112.0" fill-rule="evenodd"/>
        <path fill="#000000" fill-opacity="0.0" d="m256.0 96.0l0 -80.0l32.0 0l0 80.0z" fill-rule="evenodd"/>
        <path fill="#000000"
              d="m277.08 81.109375l-0.953125 0q1.125 0.71875 1.125 2.125q0 0.90625 -0.5 1.671875q-0.5 0.75 -1.390625 1.171875q-0.90625 0.421875 -2.078125 0.421875q-1.140625 0 -2.0625 -0.375q-0.921875 -0.390625 -1.40625 -1.140625q-0.5 -0.765625 -0.5 -1.703125q0 -0.6875 0.296875 -1.21875q0.28125 -0.53125 0.734375 -0.875l-3.75 0l0 -1.28125l10.484375 0l0 1.203125zm-3.796875 4.0625q1.46875 0 2.1875 -0.609375q0.71875 -0.625 0.71875 -1.453125q0 -0.84375 -0.6875 -1.4375q-0.6875 -0.59375 -2.109375 -0.59375q-1.5625 0 -2.28125 0.609375q-0.734375 0.59375 -0.734375 1.484375q0 0.84375 0.703125 1.421875q0.703125 0.578125 2.203125 0.578125zm0 -6.807358q-2.109375 0 -3.125 -1.171875q-0.84375 -0.984375 -0.84375 -2.390625q0 -1.578125 1.03125 -2.5625q1.015625 -1.0 2.828125 -1.0q1.46875 0 2.3125 0.4375q0.828125 0.4375 1.296875 1.28125q0.46875 0.84375 0.46875 1.84375q0 1.59375 -1.015625 2.578125q-1.03125 0.984375 -2.953125 0.984375zm0 -1.328125q1.453125 0 2.1875 -0.625q0.71875 -0.640625 0.71875 -1.609375q0 -0.96875 -0.71875 -1.59375q-0.734375 -0.640625 -2.234375 -0.640625q-1.40625 0 -2.125 0.640625q-0.734375 0.640625 -0.734375 1.59375q0 0.96875 0.71875 1.609375q0.71875 0.625 2.1875 0.625zm2.640625 -10.119858l1.140625 -0.1875q0.109375 0.546875 0.109375 0.984375q0 0.6875 -0.21875 1.078125q-0.21875 0.390625 -0.578125 0.546875q-0.359375 0.15625 -1.515625 0.15625l-4.375 0l0 0.953125l-1.0 0l0 -0.953125l-1.890625 0l-0.765625 -1.28125l2.65625 0l0 -1.296875l1.0 0l0 1.296875l4.4375 0q0.546875 0 0.71875 -0.0625q0.15625 -0.078125 0.25 -0.21875q0.078125 -0.15625 0.078125 -0.453125q0 -0.203125 -0.046875 -0.5625zm-2.0 -0.7594757l-1.28125 0l0 -3.953125l1.28125 0l0 3.953125zm-0.640625 -4.8962708q-2.109375 0 -3.125 -1.171875q-0.84375 -0.984375 -0.84375 -2.390625q0 -1.578125 1.03125 -2.5625q1.015625 -1.0 2.828125 -1.0q1.46875 0 2.3125 0.4375q0.828125 0.4375 1.296875 1.28125q0.46875 0.84375 0.46875 1.84375q0 1.59375 -1.015625 2.578125q-1.03125 0.984375 -2.953125 0.984375zm0 -1.328125q1.453125 0 2.1875 -0.625q0.71875 -0.640625 0.71875 -1.609375q0 -0.96875 -0.71875 -1.59375q-0.734375 -0.640625 -2.234375 -0.640625q-1.40625 0 -2.125 0.640625q-0.734375 0.640625 -0.734375 1.59375q0 0.96875 0.71875 1.609375q0.71875 0.625 2.1875 0.625zm3.796875 -12.291733l-1.109375 0q1.28125 0.890625 1.28125 2.421875q0 0.671875 -0.25 1.25q-0.265625 0.578125 -0.65625 0.875q-0.390625 0.28125 -0.953125 0.390625q-0.375 0.078125 -1.203125 0.078125l-4.703125 0l0 -1.28125l4.203125 0q1.015625 0 1.359375 -0.078125q0.515625 -0.125 0.8125 -0.515625q0.28125 -0.40625 0.28125 -0.984375q0 -0.578125 -0.296875 -1.078125q-0.296875 -0.515625 -0.8125 -0.71875q-0.515625 -0.21875 -1.484375 -0.21875l-4.0625 0l0 -1.28125l7.59375 0l0 1.140625zm-1.15625 -5.979233l1.140625 -0.1875q0.109375 0.546875 0.109375 0.984375q0 0.6875 -0.21875 1.078125q-0.21875 0.390625 -0.578125 0.546875q-0.359375 0.15625 -1.515625 0.15625l-4.375 0l0 0.953125l-1.0 0l0 -0.953125l-1.890625 0l-0.765625 -1.28125l2.65625 0l0 -1.296875l1.0 0l0 1.296875l4.4375 0q0.546875 0 0.71875 -0.0625q0.15625 -0.078125 0.25 -0.21875q0.078125 -0.15625 0.078125 -0.453125q0 -0.203125 -0.046875 -0.5625z"
              fill-rule="nonzero"/>
        <path fill="#000000" fill-opacity="0.0" d="m256.0 96.0l32.0 0" fill-rule="evenodd"/>
        <path stroke="#000000" stroke-width="1.0" stroke-linejoin="round" stroke-linecap="butt" d="m262.0 96.0l26.0 0"
              fill-rule="evenodd"/>
        <path fill="#000000" stroke="#000000" stroke-width="1.0" stroke-linecap="butt"
              d="m262.0 94.34827l-4.538086 1.6517334l4.538086 1.6517334z" fill-rule="evenodd"/>
        <path fill="#000000" fill-opacity="0.0" d="m328.0 96.0l40.0 0" fill-rule="evenodd"/>
        <path stroke="#000000" stroke-width="1.0" stroke-linejoin="round" stroke-linecap="butt" d="m334.0 96.0l34.0 0"
              fill-rule="evenodd"/>
        <path fill="#000000" stroke="#000000" stroke-width="1.0" stroke-linecap="butt"
              d="m334.0 94.34827l-4.538086 1.6517334l4.538086 1.6517334z" fill-rule="evenodd"/>
        <path fill="#000000" fill-opacity="0.0" d="m328.0 96.0l0 -80.0l40.0 0l0 80.0z" fill-rule="evenodd"/>
        <path fill="#000000"
              d="m353.08 81.109375l-0.953125 0q1.125 0.71875 1.125 2.125q0 0.90625 -0.5 1.671875q-0.5 0.75 -1.390625 1.171875q-0.90625 0.421875 -2.078125 0.421875q-1.140625 0 -2.0625 -0.375q-0.921875 -0.390625 -1.40625 -1.140625q-0.5 -0.765625 -0.5 -1.703125q0 -0.6875 0.296875 -1.21875q0.28125 -0.53125 0.734375 -0.875l-3.75 0l0 -1.28125l10.484375 0l0 1.203125zm-3.796875 4.0625q1.46875 0 2.1875 -0.609375q0.71875 -0.625 0.71875 -1.453125q0 -0.84375 -0.6875 -1.4375q-0.6875 -0.59375 -2.109375 -0.59375q-1.5625 0 -2.28125 0.609375q-0.734375 0.59375 -0.734375 1.484375q0 0.84375 0.703125 1.421875q0.703125 0.578125 2.203125 0.578125zm0 -6.807358q-2.109375 0 -3.125 -1.171875q-0.84375 -0.984375 -0.84375 -2.390625q0 -1.578125 1.03125 -2.5625q1.015625 -1.0 2.828125 -1.0q1.46875 0 2.3125 0.4375q0.828125 0.4375 1.296875 1.28125q0.46875 0.84375 0.46875 1.84375q0 1.59375 -1.015625 2.578125q-1.03125 0.984375 -2.953125 0.984375zm0 -1.328125q1.453125 0 2.1875 -0.625q0.71875 -0.640625 0.71875 -1.609375q0 -0.96875 -0.71875 -1.59375q-0.734375 -0.640625 -2.234375 -0.640625q-1.40625 0 -2.125 0.640625q-0.734375 0.640625 -0.734375 1.59375q0 0.96875 0.71875 1.609375q0.71875 0.625 2.1875 0.625zm2.640625 -10.119858l1.140625 -0.1875q0.109375 0.546875 0.109375 0.984375q0 0.6875 -0.21875 1.078125q-0.21875 0.390625 -0.578125 0.546875q-0.359375 0.15625 -1.515625 0.15625l-4.375 0l0 0.953125l-1.0 0l0 -0.953125l-1.890625 0l-0.765625 -1.28125l2.65625 0l0 -1.296875l1.0 0l0 1.296875l4.4375 0q0.546875 0 0.71875 -0.0625q0.15625 -0.078125 0.25 -0.21875q0.078125 -0.15625 0.078125 -0.453125q0 -0.203125 -0.046875 -0.5625zm-2.0 -0.7594757l-1.28125 0l0 -3.953125l1.28125 0l0 3.953125zm-5.859375 -5.3806458l-1.46875 0l0 -1.296875l1.46875 0l0 1.296875zm9.015625 0l-7.59375 0l0 -1.296875l7.59375 0l0 1.296875zm0 -3.2561493l-7.59375 0l0 -1.15625l1.078125 0q-1.25 -0.84375 -1.25 -2.421875q0 -0.6875 0.25 -1.265625q0.234375 -0.578125 0.640625 -0.859375q0.40625 -0.28125 0.953125 -0.40625q0.359375 -0.0625 1.25 -0.0625l4.671875 0l0 1.28125l-4.625 0q-0.78125 0 -1.171875 0.15625q-0.390625 0.15625 -0.625 0.546875q-0.234375 0.375 -0.234375 0.890625q0 0.8125 0.53125 1.421875q0.515625 0.59375 1.96875 0.59375l4.15625 0l0 1.28125z"
              fill-rule="nonzero"/>
        <path fill="#000000" fill-opacity="0.0" d="m368.0 56.0l0 128.0" fill-rule="evenodd"/>
        <path stroke="#000000" stroke-width="1.0" stroke-linejoin="round" stroke-linecap="butt"
              stroke-dasharray="4.0,3.0" d="m368.0 56.0l0 128.0" fill-rule="evenodd"/>
    </g>
</svg>